<svg xmlns="http://www.w3.org/2000/svg" viewBox="0 -3.95 114.853 112.941"><defs><clipPath id="a"><path d="M0 0h456v110H0z"/></clipPath></defs><g clip-path="url(#a)"><path fill="#FFF" d="M50.063 47.38h57.946a52.54 52.54 0 0 0-2.461-9.98H52.18c-4.241 0-5.937-1.592-5.3-5.202L52.583 2.13a54.674 54.674 0 0 0-4.355.428l-8.453 32.184c-2.334 9.022.638 12.631 10.282 12.631z"/><path fill="#FFF" d="M46.88 63.098c-15.581 0-22.572-8.6-17.807-22.191l13.09-37.132a52.672 52.672 0 0 0-4.734 1.483L21.01 42.92c-7.735 17.84 2.017 30.151 24.59 30.151h59.823a53.002 53.002 0 0 0 2.527-9.98H46.868z"/><path fill="#009343" d="M52.18 37.4h53.368C98.28 16.8 78.675 2.04 55.628 2.04c-1.023 0-2.034.03-3.038.09l-5.704 30.068c-.637 3.61 1.059 5.201 5.3 5.201z"/><path fill="#009343" d="m21.023 42.925 16.418-37.66c-20.1 7.358-34.207 26.493-34.73 48.4-.277 60.395 81.45 75.318 102.729 19.418H45.617c-22.578 0-32.324-12.318-24.588-30.152z"/><path fill="#F00023" d="M46.88 63.098h61.08c.398-2.616.602-5.292.602-8.016a52.11 52.11 0 0 0-.56-7.697H50.058c-9.644 0-12.61-3.61-10.282-12.631L48.228 2.57c-2.064.29-4.085.693-6.064 1.212l-13.091 37.13c-4.771 13.591 2.226 22.192 17.807 22.192zM126.039 60c0-22.065 16.303-38.717 38.009-38.717 13.764 0 24.67 8.064 29.219 20.685l-15.244 4.35c-2.328-6.786-8.05-10.607-15.455-10.607-12.598 0-21.706 9.656-21.706 22.908 0 10.397 6.672 17.292 17.47 17.292 7.304 0 13.873-3.924 17.152-10.607l13.446 6.786c-6.353 11.245-18.421 18.454-32.084 18.454-18.42 0-30.807-13.15-30.807-30.55zm66.073 5.942c0-17.182 13.025-31.292 28.799-31.292 7.41 0 12.916 2.544 16.519 7.745l2.756-6.256h11.538l-5.612 53.036h-13.657l.74-6.256c-4.764 5.195-10.696 7.745-18.108 7.745-13.127 0-22.975-10.715-22.975-24.716zm43.303-5.195c0-7.745-5.402-13.048-13.343-13.048-9.211 0-16.201 7.316-16.201 16.863 0 7.744 5.185 13.048 13.127 13.048 9.318 0 16.41-7.317 16.41-16.863zm73.269 10.607 2.328-22.064H301.8l1.378-13.15h9.21l1.168-10.716 14.083-4.135-1.588 14.85h11.966l-1.378 13.15h-11.966l-2.328 22.065c-.421 4.351 1.907 5.623 7.2 5.623 1.168 0 2.757-.109 4.236-.21l-1.377 12.408c-2.647.32-4.975.422-7.093.422-13.765 0-17.892-6.045-16.622-18.243zm31.024 17.816 5.613-53.037h11.539l1.48 6.256c4.127-4.881 10.696-7.316 16.832-7.316l-1.48 14.21h-2.225c-7.52 0-14.403 4.353-15.353 13.58l-2.756 26.306h-13.656zm33.455-23.439c0-17.29 13.765-31.08 31.024-31.08 14.613 0 25.2 10.716 25.2 24.926 0 17.291-13.763 31.081-31.023 31.081-14.613 0-25.201-10.715-25.201-24.927zm42.455-4.984c0-7.533-5.084-12.729-12.814-12.729-9 0-15.882 7.106-15.882 16.55 0 7.534 5.083 12.728 12.814 12.728 9 0 15.882-7.105 15.882-16.549zm16.947 28.423 6.672-63.746 14.083-4.135-7.093 67.886H432.57zM251.29 76.025l13.874-4.665c1.799 4.563 5.084 6.895 9.95 6.895 4.868 0 7.412-1.802 7.412-4.346 0-7.636-25.092-4.133-25.092-20.575 0-10.818 9.318-18.666 22.024-18.666 9 0 15.774 5.305 18.529 14.743l-13.445 3.82c-1.06-4.243-3.387-6.364-6.991-6.364-3.604 0-6.034 2.013-6.034 4.563 0 7.533 25.412 3.073 25.412 20.792 0 10.927-9.422 18.454-23.505 18.454-11.117 0-18.637-4.984-22.127-14.64z"/></g></svg>