<svg width="335" height="191" viewBox="0 0 335 191" fill="none" xmlns="http://www.w3.org/2000/svg">
<g clip-path="url(#clip0_892_183)">
<path d="M315.78 74.3179C315.78 84.0894 313.849 93.7651 310.098 102.793C306.347 111.82 300.849 120.023 293.918 126.933C286.987 133.842 278.759 139.323 269.703 143.062C260.647 146.802 250.941 148.726 241.139 148.726V128.571C248.286 128.571 255.363 127.168 261.966 124.441C268.568 121.715 274.568 117.719 279.622 112.681C284.675 107.643 288.684 101.662 291.419 95.0797C294.154 88.4974 295.562 81.4425 295.562 74.3179H315.78Z" fill="#B3B3B3"/>
<path d="M241.139 148.726C226.322 148.726 211.84 144.33 199.538 136.098C187.236 127.865 177.67 116.169 172.058 102.499L190.77 94.8652C194.862 104.833 201.837 113.361 210.807 119.363C219.777 125.366 230.336 128.571 241.139 128.571V148.726Z" fill="#666666"/>
<path d="M172.588 103.756C168.117 93.4099 166.061 82.1867 166.575 70.9331C167.089 59.6794 170.16 48.6889 175.556 38.7906C180.951 28.8923 188.531 20.3445 197.723 13.7919C206.915 7.23927 217.48 2.85287 228.621 0.963503C239.761 -0.925866 251.186 -0.268877 262.035 2.88492C272.884 6.03872 282.872 11.607 291.248 19.1698C299.623 26.7326 306.167 36.0925 310.385 46.5437C314.603 56.9948 316.386 68.2643 315.598 79.5023L295.429 78.098C296.003 69.9041 294.704 61.6872 291.628 54.067C288.553 46.4468 283.781 39.6222 277.675 34.108C271.568 28.5938 264.285 24.5338 256.375 22.2343C248.465 19.9348 240.134 19.4557 232.011 20.8333C223.889 22.2109 216.186 25.4091 209.483 30.1868C202.781 34.9645 197.255 41.1969 193.32 48.4141C189.386 55.6312 187.147 63.6446 186.773 71.8499C186.398 80.0553 187.897 88.2384 191.157 95.7821L172.588 103.756Z" fill="#1EB300"/>
<path d="M114.754 38.5437C118.521 28.6271 126.215 25.0167 135.88 21.6344C143.776 18.871 152.767 18.2238 160.995 19.5589" stroke="#009900" stroke-width="2" stroke-linecap="round"/>
<path d="M157.311 12.0216C161.178 13.4688 163.639 14.5422 166.471 17.4652C167.497 18.5242 171.037 21.7099 170.421 23.3311C170.144 24.0624 164.279 23.8143 163.414 23.7924C160.728 23.7243 155.257 25.8743 154.263 28.4914" stroke="#009900" stroke-width="2" stroke-linecap="round"/>
<path d="M163.261 158.012C164.349 151.147 168.787 147.813 174.515 144.366C179.195 141.55 184.857 139.949 190.294 139.721" stroke="#666666" stroke-width="2" stroke-linecap="round"/>
<path d="M183.439 134.995C186.104 135.414 187.82 135.779 190.019 137.283C190.816 137.828 193.503 139.407 193.326 140.529C193.245 141.036 189.463 141.65 188.908 141.75C187.181 142.06 183.97 144.163 183.683 145.975" stroke="#666666" stroke-width="2" stroke-linecap="round"/>
<path d="M308.096 158.338C309.951 153.256 308.174 149.314 305.556 144.807C303.416 141.125 300.145 137.9 296.506 135.693" stroke="#B3B3B3" stroke-width="2" stroke-linecap="round"/>
<path d="M302.992 135.064C301.007 134.344 299.694 133.945 297.617 134.138C296.865 134.209 294.426 134.269 294.123 135.1C293.986 135.475 296.344 137.32 296.687 137.597C297.752 138.46 299.155 141.102 298.666 142.443" stroke="#B3B3B3" stroke-width="2" stroke-linecap="round"/>
<path d="M127.96 168.204C127.96 168.86 127.876 169.456 127.708 169.992C127.548 170.528 127.308 170.996 126.988 171.396C126.668 171.788 126.264 172.092 125.776 172.308C125.296 172.516 124.736 172.62 124.096 172.62C123.448 172.62 122.884 172.512 122.404 172.296C121.924 172.08 121.524 171.776 121.204 171.384C120.884 170.992 120.644 170.528 120.484 169.992C120.324 169.448 120.244 168.848 120.244 168.192C120.244 167.32 120.388 166.556 120.676 165.9C120.972 165.244 121.408 164.732 121.984 164.364C122.568 163.988 123.288 163.8 124.144 163.8C124.968 163.8 125.66 163.98 126.22 164.34C126.788 164.692 127.22 165.196 127.516 165.852C127.812 166.508 127.96 167.292 127.96 168.204ZM120.976 168.192C120.976 168.96 121.088 169.628 121.312 170.196C121.536 170.764 121.88 171.208 122.344 171.528C122.808 171.848 123.396 172.008 124.108 172.008C124.828 172.008 125.416 171.852 125.872 171.54C126.336 171.22 126.676 170.776 126.892 170.208C127.116 169.64 127.228 168.972 127.228 168.204C127.228 167.012 126.968 166.084 126.448 165.42C125.936 164.756 125.168 164.424 124.144 164.424C123.424 164.424 122.828 164.58 122.356 164.892C121.892 165.204 121.544 165.644 121.312 166.212C121.088 166.78 120.976 167.44 120.976 168.192ZM131.556 172.044C131.732 172.044 131.9 172.032 132.06 172.008C132.22 171.976 132.36 171.94 132.48 171.9V172.452C132.36 172.5 132.208 172.54 132.024 172.572C131.848 172.604 131.66 172.62 131.46 172.62C131.108 172.62 130.808 172.556 130.56 172.428C130.312 172.292 130.12 172.084 129.984 171.804C129.856 171.524 129.792 171.164 129.792 170.724V166.668H128.856V166.284L129.792 166.068L130.044 164.592H130.476V166.116H132.444V166.668H130.476V170.7C130.476 171.14 130.564 171.476 130.74 171.708C130.916 171.932 131.188 172.044 131.556 172.044ZM134.506 166.308C134.506 166.468 134.502 166.624 134.494 166.776C134.486 166.928 134.478 167.08 134.47 167.232H134.518C134.63 166.992 134.786 166.78 134.986 166.596C135.186 166.412 135.426 166.268 135.706 166.164C135.994 166.06 136.318 166.008 136.678 166.008C137.166 166.008 137.578 166.092 137.914 166.26C138.25 166.42 138.502 166.672 138.67 167.016C138.846 167.352 138.934 167.792 138.934 168.336V172.5H138.262V168.372C138.262 167.756 138.122 167.304 137.842 167.016C137.562 166.728 137.15 166.584 136.606 166.584C136.142 166.584 135.754 166.676 135.442 166.86C135.13 167.036 134.894 167.308 134.734 167.676C134.582 168.036 134.506 168.484 134.506 169.02V172.5H133.834V163.38H134.506V166.308ZM143.382 165.996C143.934 165.996 144.39 166.124 144.75 166.38C145.118 166.628 145.394 166.972 145.578 167.412C145.77 167.852 145.866 168.36 145.866 168.936V169.392H141.306C141.306 170.248 141.502 170.9 141.894 171.348C142.294 171.796 142.858 172.02 143.586 172.02C143.986 172.02 144.334 171.988 144.63 171.924C144.926 171.86 145.25 171.748 145.602 171.588V172.212C145.282 172.356 144.966 172.46 144.654 172.524C144.342 172.588 143.978 172.62 143.562 172.62C142.93 172.62 142.39 172.488 141.942 172.224C141.502 171.96 141.166 171.584 140.934 171.096C140.71 170.6 140.598 170.024 140.598 169.368C140.598 168.712 140.706 168.132 140.922 167.628C141.138 167.124 141.454 166.728 141.87 166.44C142.286 166.144 142.79 165.996 143.382 165.996ZM143.382 166.572C142.79 166.572 142.314 166.768 141.954 167.16C141.594 167.544 141.382 168.1 141.318 168.828H145.158C145.158 168.38 145.094 167.988 144.966 167.652C144.838 167.316 144.642 167.052 144.378 166.86C144.122 166.668 143.79 166.572 143.382 166.572ZM150.208 166.008C150.368 166.008 150.52 166.02 150.664 166.044C150.816 166.06 150.952 166.084 151.072 166.116L150.976 166.74C150.848 166.708 150.72 166.684 150.592 166.668C150.464 166.644 150.324 166.632 150.172 166.632C149.884 166.632 149.624 166.688 149.392 166.8C149.16 166.912 148.96 167.072 148.792 167.28C148.624 167.488 148.496 167.736 148.408 168.024C148.32 168.312 148.276 168.636 148.276 168.996V172.5H147.592V166.116H148.168L148.24 167.316H148.276C148.38 167.068 148.52 166.848 148.696 166.656C148.88 166.456 149.1 166.3 149.356 166.188C149.612 166.068 149.896 166.008 150.208 166.008ZM159.223 164.436C158.695 164.436 158.219 164.528 157.795 164.712C157.379 164.888 157.027 165.144 156.739 165.48C156.451 165.808 156.231 166.204 156.079 166.668C155.927 167.124 155.851 167.632 155.851 168.192C155.851 168.96 155.971 169.632 156.211 170.208C156.451 170.776 156.811 171.216 157.291 171.528C157.779 171.84 158.383 171.996 159.103 171.996C159.519 171.996 159.903 171.964 160.255 171.9C160.607 171.836 160.931 171.756 161.227 171.66V172.26C160.939 172.372 160.615 172.46 160.255 172.524C159.903 172.588 159.491 172.62 159.019 172.62C158.163 172.62 157.443 172.436 156.859 172.068C156.283 171.7 155.847 171.184 155.551 170.52C155.263 169.856 155.119 169.08 155.119 168.192C155.119 167.56 155.211 166.976 155.395 166.44C155.579 165.904 155.847 165.44 156.199 165.048C156.551 164.656 156.979 164.352 157.483 164.136C157.995 163.92 158.579 163.812 159.235 163.812C159.643 163.812 160.035 163.852 160.411 163.932C160.795 164.012 161.151 164.128 161.479 164.28L161.203 164.892C160.899 164.74 160.579 164.628 160.243 164.556C159.915 164.476 159.575 164.436 159.223 164.436ZM165.32 165.996C165.872 165.996 166.328 166.124 166.688 166.38C167.056 166.628 167.332 166.972 167.516 167.412C167.708 167.852 167.804 168.36 167.804 168.936V169.392H163.244C163.244 170.248 163.44 170.9 163.832 171.348C164.232 171.796 164.796 172.02 165.524 172.02C165.924 172.02 166.272 171.988 166.568 171.924C166.864 171.86 167.188 171.748 167.54 171.588V172.212C167.22 172.356 166.904 172.46 166.592 172.524C166.28 172.588 165.916 172.62 165.5 172.62C164.868 172.62 164.328 172.488 163.88 172.224C163.44 171.96 163.104 171.584 162.872 171.096C162.648 170.6 162.536 170.024 162.536 169.368C162.536 168.712 162.644 168.132 162.86 167.628C163.076 167.124 163.392 166.728 163.808 166.44C164.224 166.144 164.728 165.996 165.32 165.996ZM165.32 166.572C164.728 166.572 164.252 166.768 163.892 167.16C163.532 167.544 163.32 168.1 163.256 168.828H167.096C167.096 168.38 167.032 167.988 166.904 167.652C166.776 167.316 166.58 167.052 166.316 166.86C166.06 166.668 165.728 166.572 165.32 166.572ZM172.145 166.008C172.305 166.008 172.457 166.02 172.601 166.044C172.753 166.06 172.889 166.084 173.009 166.116L172.913 166.74C172.785 166.708 172.657 166.684 172.529 166.668C172.401 166.644 172.261 166.632 172.109 166.632C171.821 166.632 171.561 166.688 171.329 166.8C171.097 166.912 170.897 167.072 170.729 167.28C170.561 167.488 170.433 167.736 170.345 168.024C170.257 168.312 170.213 168.636 170.213 168.996V172.5H169.529V166.116H170.105L170.177 167.316H170.213C170.317 167.068 170.457 166.848 170.633 166.656C170.817 166.456 171.037 166.3 171.293 166.188C171.549 166.068 171.833 166.008 172.145 166.008ZM176.052 172.044C176.228 172.044 176.396 172.032 176.556 172.008C176.716 171.976 176.856 171.94 176.976 171.9V172.452C176.856 172.5 176.704 172.54 176.52 172.572C176.344 172.604 176.156 172.62 175.956 172.62C175.604 172.62 175.304 172.556 175.056 172.428C174.808 172.292 174.616 172.084 174.48 171.804C174.352 171.524 174.288 171.164 174.288 170.724V166.668H173.352V166.284L174.288 166.068L174.54 164.592H174.972V166.116H176.94V166.668H174.972V170.7C174.972 171.14 175.06 171.476 175.236 171.708C175.412 171.932 175.684 172.044 176.052 172.044ZM179.002 166.116V172.5H178.33V166.116H179.002ZM178.666 163.752C178.818 163.752 178.934 163.8 179.014 163.896C179.094 163.984 179.134 164.108 179.134 164.268C179.134 164.436 179.094 164.568 179.014 164.664C178.934 164.752 178.818 164.796 178.666 164.796C178.522 164.796 178.41 164.752 178.33 164.664C178.25 164.568 178.21 164.436 178.21 164.268C178.21 164.108 178.25 163.984 178.33 163.896C178.41 163.8 178.522 163.752 178.666 163.752ZM183.603 166.668H182.079V172.5H181.395V166.668H180.219V166.296L181.395 166.104V165.456C181.395 164.976 181.463 164.58 181.599 164.268C181.743 163.948 181.955 163.712 182.235 163.56C182.523 163.4 182.879 163.32 183.303 163.32C183.527 163.32 183.731 163.34 183.915 163.38C184.099 163.412 184.267 163.452 184.419 163.5L184.251 164.064C184.115 164.016 183.963 163.976 183.795 163.944C183.635 163.912 183.471 163.896 183.303 163.896C182.871 163.896 182.559 164.02 182.367 164.268C182.175 164.508 182.079 164.904 182.079 165.456V166.116H183.603V166.668ZM185.499 166.116V172.5H184.827V166.116H185.499ZM185.163 163.752C185.315 163.752 185.431 163.8 185.511 163.896C185.591 163.984 185.631 164.108 185.631 164.268C185.631 164.436 185.591 164.568 185.511 164.664C185.431 164.752 185.315 164.796 185.163 164.796C185.019 164.796 184.907 164.752 184.827 164.664C184.747 164.568 184.707 164.436 184.707 164.268C184.707 164.108 184.747 163.984 184.827 163.896C184.907 163.8 185.019 163.752 185.163 163.752ZM190.167 172.62C189.543 172.62 189.011 172.492 188.571 172.236C188.139 171.972 187.807 171.596 187.575 171.108C187.351 170.62 187.239 170.032 187.239 169.344C187.239 168.624 187.367 168.016 187.623 167.52C187.887 167.024 188.247 166.648 188.703 166.392C189.159 166.128 189.695 165.996 190.311 165.996C190.615 165.996 190.899 166.028 191.163 166.092C191.435 166.148 191.675 166.224 191.883 166.32L191.703 166.896C191.487 166.808 191.255 166.74 191.007 166.692C190.759 166.636 190.523 166.608 190.299 166.608C189.787 166.608 189.355 166.72 189.003 166.944C188.659 167.16 188.395 167.472 188.211 167.88C188.035 168.288 187.947 168.776 187.947 169.344C187.947 169.872 188.023 170.34 188.175 170.748C188.335 171.148 188.579 171.46 188.907 171.684C189.235 171.908 189.655 172.02 190.167 172.02C190.479 172.02 190.771 171.988 191.043 171.924C191.323 171.86 191.579 171.776 191.811 171.672V172.296C191.603 172.384 191.363 172.46 191.091 172.524C190.819 172.588 190.511 172.62 190.167 172.62ZM195.574 166.008C196.294 166.008 196.83 166.184 197.182 166.536C197.534 166.888 197.71 167.448 197.71 168.216V172.5H197.194L197.074 171.42H197.038C196.886 171.66 196.71 171.872 196.51 172.056C196.318 172.232 196.082 172.372 195.802 172.476C195.53 172.572 195.194 172.62 194.794 172.62C194.394 172.62 194.046 172.552 193.75 172.416C193.454 172.272 193.226 172.068 193.066 171.804C192.906 171.54 192.826 171.216 192.826 170.832C192.826 170.2 193.086 169.72 193.606 169.392C194.126 169.056 194.882 168.864 195.874 168.816L197.038 168.768V168.312C197.038 167.68 196.91 167.236 196.654 166.98C196.406 166.716 196.034 166.584 195.538 166.584C195.21 166.584 194.894 166.628 194.59 166.716C194.294 166.796 193.994 166.912 193.69 167.064L193.474 166.524C193.77 166.372 194.098 166.248 194.458 166.152C194.818 166.056 195.19 166.008 195.574 166.008ZM195.946 169.32C195.138 169.36 194.534 169.504 194.134 169.752C193.734 169.992 193.534 170.356 193.534 170.844C193.534 171.236 193.658 171.536 193.906 171.744C194.154 171.944 194.49 172.044 194.914 172.044C195.594 172.044 196.114 171.856 196.474 171.48C196.842 171.104 197.03 170.576 197.038 169.896V169.272L195.946 169.32ZM201.552 172.044C201.728 172.044 201.896 172.032 202.056 172.008C202.216 171.976 202.356 171.94 202.476 171.9V172.452C202.356 172.5 202.204 172.54 202.02 172.572C201.844 172.604 201.656 172.62 201.456 172.62C201.104 172.62 200.804 172.556 200.556 172.428C200.308 172.292 200.116 172.084 199.98 171.804C199.852 171.524 199.788 171.164 199.788 170.724V166.668H198.852V166.284L199.788 166.068L200.04 164.592H200.472V166.116H202.44V166.668H200.472V170.7C200.472 171.14 200.56 171.476 200.736 171.708C200.912 171.932 201.184 172.044 201.552 172.044ZM204.502 166.116V172.5H203.83V166.116H204.502ZM204.166 163.752C204.318 163.752 204.434 163.8 204.514 163.896C204.594 163.984 204.634 164.108 204.634 164.268C204.634 164.436 204.594 164.568 204.514 164.664C204.434 164.752 204.318 164.796 204.166 164.796C204.022 164.796 203.91 164.752 203.83 164.664C203.75 164.568 203.71 164.436 203.71 164.268C203.71 164.108 203.75 163.984 203.83 163.896C203.91 163.8 204.022 163.752 204.166 163.752ZM211.959 169.308C211.959 169.804 211.895 170.256 211.767 170.664C211.647 171.064 211.463 171.412 211.215 171.708C210.975 171.996 210.675 172.22 210.315 172.38C209.955 172.54 209.543 172.62 209.079 172.62C208.639 172.62 208.243 172.544 207.891 172.392C207.547 172.232 207.251 172.008 207.003 171.72C206.755 171.424 206.567 171.072 206.439 170.664C206.311 170.256 206.247 169.804 206.247 169.308C206.247 168.612 206.359 168.02 206.583 167.532C206.815 167.036 207.147 166.656 207.579 166.392C208.019 166.128 208.539 165.996 209.139 165.996C209.747 165.996 210.259 166.136 210.675 166.416C211.099 166.688 211.419 167.072 211.635 167.568C211.851 168.064 211.959 168.644 211.959 169.308ZM206.955 169.308C206.955 169.852 207.031 170.332 207.183 170.748C207.335 171.156 207.571 171.472 207.891 171.696C208.211 171.92 208.611 172.032 209.091 172.032C209.587 172.032 209.995 171.92 210.315 171.696C210.635 171.464 210.871 171.144 211.023 170.736C211.175 170.32 211.251 169.844 211.251 169.308C211.251 168.772 211.179 168.3 211.035 167.892C210.891 167.484 210.663 167.164 210.351 166.932C210.039 166.7 209.631 166.584 209.127 166.584C208.399 166.584 207.855 166.824 207.495 167.304C207.135 167.784 206.955 168.452 206.955 169.308ZM216.553 165.996C217.281 165.996 217.837 166.184 218.221 166.56C218.605 166.936 218.797 167.528 218.797 168.336V172.5H218.125V168.372C218.125 167.756 217.985 167.304 217.705 167.016C217.425 166.728 217.013 166.584 216.469 166.584C215.773 166.584 215.249 166.788 214.897 167.196C214.545 167.604 214.369 168.212 214.369 169.02V172.5H213.697V166.116H214.237L214.345 167.22H214.381C214.501 166.988 214.661 166.78 214.861 166.596C215.061 166.412 215.301 166.268 215.581 166.164C215.869 166.052 216.193 165.996 216.553 165.996ZM224.842 170.808C224.842 171.192 224.746 171.52 224.554 171.792C224.362 172.064 224.082 172.272 223.714 172.416C223.346 172.552 222.898 172.62 222.37 172.62C221.93 172.62 221.538 172.58 221.194 172.5C220.85 172.42 220.558 172.324 220.318 172.212V171.552C220.606 171.696 220.93 171.816 221.29 171.912C221.65 172 222.014 172.044 222.382 172.044C223.022 172.044 223.482 171.94 223.762 171.732C224.042 171.516 224.182 171.224 224.182 170.856C224.182 170.616 224.114 170.42 223.978 170.268C223.85 170.108 223.654 169.968 223.39 169.848C223.134 169.72 222.814 169.592 222.43 169.464C222.038 169.328 221.69 169.192 221.386 169.056C221.082 168.912 220.846 168.732 220.678 168.516C220.51 168.3 220.426 168.004 220.426 167.628C220.426 167.116 220.634 166.716 221.05 166.428C221.466 166.14 222.022 165.996 222.718 165.996C223.102 165.996 223.458 166.032 223.786 166.104C224.122 166.176 224.426 166.272 224.698 166.392L224.458 166.956C224.298 166.884 224.118 166.82 223.918 166.764C223.718 166.7 223.514 166.652 223.306 166.62C223.098 166.588 222.89 166.572 222.682 166.572C222.178 166.572 221.786 166.66 221.506 166.836C221.226 167.012 221.086 167.268 221.086 167.604C221.086 167.86 221.15 168.064 221.278 168.216C221.414 168.36 221.61 168.484 221.866 168.588C222.13 168.692 222.446 168.812 222.814 168.948C223.19 169.076 223.53 169.212 223.834 169.356C224.146 169.5 224.39 169.684 224.566 169.908C224.75 170.132 224.842 170.432 224.842 170.808Z" fill="#666666"/>
<path d="M278.048 166.476C278.048 167.132 277.92 167.696 277.664 168.168C277.408 168.632 277.04 168.992 276.56 169.248C276.08 169.496 275.492 169.62 274.796 169.62C273.772 169.62 272.984 169.344 272.432 168.792C271.888 168.232 271.616 167.452 271.616 166.452V160.932H272.3V166.452C272.3 167.284 272.516 167.92 272.948 168.36C273.38 168.792 274.008 169.008 274.832 169.008C275.376 169.008 275.836 168.912 276.212 168.72C276.588 168.52 276.872 168.236 277.064 167.868C277.264 167.492 277.364 167.044 277.364 166.524V160.932H278.048V166.476ZM283.061 162.996C283.789 162.996 284.345 163.184 284.729 163.56C285.113 163.936 285.305 164.528 285.305 165.336V169.5H284.633V165.372C284.633 164.756 284.493 164.304 284.213 164.016C283.933 163.728 283.521 163.584 282.977 163.584C282.281 163.584 281.757 163.788 281.405 164.196C281.053 164.604 280.877 165.212 280.877 166.02V169.5H280.205V163.116H280.745L280.853 164.22H280.889C281.009 163.988 281.169 163.78 281.369 163.596C281.569 163.412 281.809 163.268 282.089 163.164C282.377 163.052 282.701 162.996 283.061 162.996ZM289.898 169.62C289.274 169.62 288.742 169.492 288.302 169.236C287.87 168.972 287.538 168.596 287.306 168.108C287.082 167.62 286.97 167.032 286.97 166.344C286.97 165.624 287.098 165.016 287.354 164.52C287.618 164.024 287.978 163.648 288.434 163.392C288.89 163.128 289.426 162.996 290.042 162.996C290.346 162.996 290.63 163.028 290.894 163.092C291.166 163.148 291.406 163.224 291.614 163.32L291.434 163.896C291.218 163.808 290.986 163.74 290.738 163.692C290.49 163.636 290.254 163.608 290.03 163.608C289.518 163.608 289.086 163.72 288.734 163.944C288.39 164.16 288.126 164.472 287.942 164.88C287.766 165.288 287.678 165.776 287.678 166.344C287.678 166.872 287.754 167.34 287.906 167.748C288.066 168.148 288.31 168.46 288.638 168.684C288.966 168.908 289.386 169.02 289.898 169.02C290.21 169.02 290.502 168.988 290.774 168.924C291.054 168.86 291.31 168.776 291.542 168.672V169.296C291.334 169.384 291.094 169.46 290.822 169.524C290.55 169.588 290.242 169.62 289.898 169.62ZM295.461 162.996C296.013 162.996 296.469 163.124 296.829 163.38C297.197 163.628 297.473 163.972 297.657 164.412C297.849 164.852 297.945 165.36 297.945 165.936V166.392H293.385C293.385 167.248 293.581 167.9 293.973 168.348C294.373 168.796 294.937 169.02 295.665 169.02C296.065 169.02 296.413 168.988 296.709 168.924C297.005 168.86 297.329 168.748 297.681 168.588V169.212C297.361 169.356 297.045 169.46 296.733 169.524C296.421 169.588 296.057 169.62 295.641 169.62C295.009 169.62 294.469 169.488 294.021 169.224C293.581 168.96 293.245 168.584 293.013 168.096C292.789 167.6 292.677 167.024 292.677 166.368C292.677 165.712 292.785 165.132 293.001 164.628C293.217 164.124 293.533 163.728 293.949 163.44C294.365 163.144 294.869 162.996 295.461 162.996ZM295.461 163.572C294.869 163.572 294.393 163.768 294.033 164.16C293.673 164.544 293.461 165.1 293.397 165.828H297.237C297.237 165.38 297.173 164.988 297.045 164.652C296.917 164.316 296.721 164.052 296.457 163.86C296.201 163.668 295.869 163.572 295.461 163.572ZM302.286 163.008C302.446 163.008 302.598 163.02 302.742 163.044C302.894 163.06 303.03 163.084 303.15 163.116L303.054 163.74C302.926 163.708 302.798 163.684 302.67 163.668C302.542 163.644 302.402 163.632 302.25 163.632C301.962 163.632 301.702 163.688 301.47 163.8C301.238 163.912 301.038 164.072 300.87 164.28C300.702 164.488 300.574 164.736 300.486 165.024C300.398 165.312 300.354 165.636 300.354 165.996V169.5H299.67V163.116H300.246L300.318 164.316H300.354C300.458 164.068 300.598 163.848 300.774 163.656C300.958 163.456 301.178 163.3 301.434 163.188C301.69 163.068 301.974 163.008 302.286 163.008ZM306.192 169.044C306.368 169.044 306.536 169.032 306.696 169.008C306.856 168.976 306.996 168.94 307.116 168.9V169.452C306.996 169.5 306.844 169.54 306.66 169.572C306.484 169.604 306.296 169.62 306.096 169.62C305.744 169.62 305.444 169.556 305.196 169.428C304.948 169.292 304.756 169.084 304.62 168.804C304.492 168.524 304.428 168.164 304.428 167.724V163.668H303.492V163.284L304.428 163.068L304.68 161.592H305.112V163.116H307.08V163.668H305.112V167.7C305.112 168.14 305.2 168.476 305.376 168.708C305.552 168.932 305.824 169.044 306.192 169.044ZM309.142 163.116V169.5H308.47V163.116H309.142ZM308.806 160.752C308.958 160.752 309.074 160.8 309.154 160.896C309.234 160.984 309.274 161.108 309.274 161.268C309.274 161.436 309.234 161.568 309.154 161.664C309.074 161.752 308.958 161.796 308.806 161.796C308.662 161.796 308.55 161.752 308.47 161.664C308.39 161.568 308.35 161.436 308.35 161.268C308.35 161.108 308.39 160.984 308.47 160.896C308.55 160.8 308.662 160.752 308.806 160.752ZM313.744 163.668H312.22V169.5H311.536V163.668H310.36V163.296L311.536 163.104V162.456C311.536 161.976 311.604 161.58 311.74 161.268C311.884 160.948 312.096 160.712 312.376 160.56C312.664 160.4 313.02 160.32 313.444 160.32C313.668 160.32 313.872 160.34 314.056 160.38C314.24 160.412 314.408 160.452 314.56 160.5L314.392 161.064C314.256 161.016 314.104 160.976 313.936 160.944C313.776 160.912 313.612 160.896 313.444 160.896C313.012 160.896 312.7 161.02 312.508 161.268C312.316 161.508 312.22 161.904 312.22 162.456V163.116H313.744V163.668ZM315.64 163.116V169.5H314.968V163.116H315.64ZM315.304 160.752C315.456 160.752 315.572 160.8 315.652 160.896C315.732 160.984 315.772 161.108 315.772 161.268C315.772 161.436 315.732 161.568 315.652 161.664C315.572 161.752 315.456 161.796 315.304 161.796C315.16 161.796 315.048 161.752 314.968 161.664C314.888 161.568 314.848 161.436 314.848 161.268C314.848 161.108 314.888 160.984 314.968 160.896C315.048 160.8 315.16 160.752 315.304 160.752ZM320.164 162.996C320.716 162.996 321.172 163.124 321.532 163.38C321.9 163.628 322.176 163.972 322.36 164.412C322.552 164.852 322.648 165.36 322.648 165.936V166.392H318.088C318.088 167.248 318.284 167.9 318.676 168.348C319.076 168.796 319.64 169.02 320.368 169.02C320.768 169.02 321.116 168.988 321.412 168.924C321.708 168.86 322.032 168.748 322.384 168.588V169.212C322.064 169.356 321.748 169.46 321.436 169.524C321.124 169.588 320.76 169.62 320.344 169.62C319.712 169.62 319.172 169.488 318.724 169.224C318.284 168.96 317.948 168.584 317.716 168.096C317.492 167.6 317.38 167.024 317.38 166.368C317.38 165.712 317.488 165.132 317.704 164.628C317.92 164.124 318.236 163.728 318.652 163.44C319.068 163.144 319.572 162.996 320.164 162.996ZM320.164 163.572C319.572 163.572 319.096 163.768 318.736 164.16C318.376 164.544 318.164 165.1 318.1 165.828H321.94C321.94 165.38 321.876 164.988 321.748 164.652C321.62 164.316 321.424 164.052 321.16 163.86C320.904 163.668 320.572 163.572 320.164 163.572ZM326.665 169.62C325.809 169.62 325.149 169.348 324.685 168.804C324.229 168.252 324.001 167.444 324.001 166.38C324.001 165.276 324.241 164.436 324.721 163.86C325.209 163.284 325.877 162.996 326.725 162.996C327.085 162.996 327.397 163.052 327.661 163.164C327.925 163.268 328.149 163.412 328.333 163.596C328.525 163.78 328.673 163.988 328.777 164.22H328.825C328.817 164.028 328.805 163.82 328.789 163.596C328.781 163.364 328.777 163.156 328.777 162.972V160.38H329.461V169.5H328.909L328.813 168.384H328.777C328.665 168.608 328.517 168.816 328.333 169.008C328.149 169.192 327.921 169.34 327.649 169.452C327.377 169.564 327.049 169.62 326.665 169.62ZM326.749 169.032C327.493 169.032 328.017 168.808 328.321 168.36C328.633 167.912 328.789 167.264 328.789 166.416V166.308C328.789 165.428 328.633 164.756 328.321 164.292C328.017 163.82 327.509 163.584 326.797 163.584C326.109 163.584 325.589 163.828 325.237 164.316C324.885 164.796 324.709 165.488 324.709 166.392C324.709 167.256 324.877 167.912 325.213 168.36C325.549 168.808 326.061 169.032 326.749 169.032ZM275.36 185.348C275.32 185.212 275.28 185.08 275.24 184.952C275.208 184.824 275.176 184.704 275.144 184.592C275.112 184.472 275.08 184.356 275.048 184.244C275.016 184.132 274.988 184.028 274.964 183.932H274.928C274.904 184.028 274.876 184.132 274.844 184.244C274.82 184.356 274.792 184.476 274.76 184.604C274.728 184.724 274.692 184.848 274.652 184.976C274.62 185.096 274.584 185.224 274.544 185.36L273.188 189.5H272.468L270.668 183.116H271.376L272.456 187.064C272.52 187.304 272.576 187.524 272.624 187.724C272.672 187.916 272.716 188.096 272.756 188.264C272.796 188.424 272.824 188.572 272.84 188.708H272.876C272.9 188.612 272.924 188.508 272.948 188.396C272.98 188.276 273.012 188.152 273.044 188.024C273.076 187.896 273.112 187.76 273.152 187.616C273.2 187.464 273.248 187.312 273.296 187.16L274.616 183.116H275.324L276.584 187.148C276.648 187.34 276.704 187.532 276.752 187.724C276.808 187.908 276.856 188.084 276.896 188.252C276.944 188.412 276.98 188.564 277.004 188.708H277.04C277.056 188.572 277.08 188.424 277.112 188.264C277.152 188.096 277.196 187.912 277.244 187.712C277.3 187.512 277.36 187.296 277.424 187.064L278.468 183.116H279.164L277.424 189.5H276.668L275.36 185.348ZM285.721 186.308C285.721 186.804 285.657 187.256 285.529 187.664C285.409 188.064 285.225 188.412 284.977 188.708C284.737 188.996 284.437 189.22 284.077 189.38C283.717 189.54 283.305 189.62 282.841 189.62C282.401 189.62 282.005 189.544 281.653 189.392C281.309 189.232 281.013 189.008 280.765 188.72C280.517 188.424 280.329 188.072 280.201 187.664C280.073 187.256 280.009 186.804 280.009 186.308C280.009 185.612 280.121 185.02 280.345 184.532C280.577 184.036 280.909 183.656 281.341 183.392C281.781 183.128 282.301 182.996 282.901 182.996C283.509 182.996 284.021 183.136 284.437 183.416C284.861 183.688 285.181 184.072 285.397 184.568C285.613 185.064 285.721 185.644 285.721 186.308ZM280.717 186.308C280.717 186.852 280.793 187.332 280.945 187.748C281.097 188.156 281.333 188.472 281.653 188.696C281.973 188.92 282.373 189.032 282.853 189.032C283.349 189.032 283.757 188.92 284.077 188.696C284.397 188.464 284.633 188.144 284.785 187.736C284.937 187.32 285.013 186.844 285.013 186.308C285.013 185.772 284.941 185.3 284.797 184.892C284.653 184.484 284.425 184.164 284.113 183.932C283.801 183.7 283.393 183.584 282.889 183.584C282.161 183.584 281.617 183.824 281.257 184.304C280.897 184.784 280.717 185.452 280.717 186.308ZM290.075 183.008C290.235 183.008 290.387 183.02 290.531 183.044C290.683 183.06 290.819 183.084 290.939 183.116L290.843 183.74C290.715 183.708 290.587 183.684 290.459 183.668C290.331 183.644 290.191 183.632 290.039 183.632C289.751 183.632 289.491 183.688 289.259 183.8C289.027 183.912 288.827 184.072 288.659 184.28C288.491 184.488 288.363 184.736 288.275 185.024C288.187 185.312 288.143 185.636 288.143 185.996V189.5H287.459V183.116H288.035L288.107 184.316H288.143C288.247 184.068 288.387 183.848 288.563 183.656C288.747 183.456 288.967 183.3 289.223 183.188C289.479 183.068 289.763 183.008 290.075 183.008ZM292.853 185.012C292.853 185.268 292.849 185.536 292.841 185.816C292.833 186.088 292.825 186.36 292.817 186.632H292.841C292.913 186.544 292.989 186.452 293.069 186.356C293.149 186.252 293.233 186.152 293.321 186.056C293.409 185.952 293.493 185.856 293.573 185.768L295.997 183.116H296.813L294.281 185.852L297.029 189.5H296.213L293.813 186.296L292.853 187.292V189.5H292.181V180.38H292.853V185.012ZM302.119 187.808C302.119 188.192 302.023 188.52 301.831 188.792C301.639 189.064 301.359 189.272 300.991 189.416C300.623 189.552 300.175 189.62 299.647 189.62C299.207 189.62 298.815 189.58 298.471 189.5C298.127 189.42 297.835 189.324 297.595 189.212V188.552C297.883 188.696 298.207 188.816 298.567 188.912C298.927 189 299.291 189.044 299.659 189.044C300.299 189.044 300.759 188.94 301.039 188.732C301.319 188.516 301.459 188.224 301.459 187.856C301.459 187.616 301.391 187.42 301.255 187.268C301.127 187.108 300.931 186.968 300.667 186.848C300.411 186.72 300.091 186.592 299.707 186.464C299.315 186.328 298.967 186.192 298.663 186.056C298.359 185.912 298.123 185.732 297.955 185.516C297.787 185.3 297.703 185.004 297.703 184.628C297.703 184.116 297.911 183.716 298.327 183.428C298.743 183.14 299.299 182.996 299.995 182.996C300.379 182.996 300.735 183.032 301.063 183.104C301.399 183.176 301.703 183.272 301.975 183.392L301.735 183.956C301.575 183.884 301.395 183.82 301.195 183.764C300.995 183.7 300.791 183.652 300.583 183.62C300.375 183.588 300.167 183.572 299.959 183.572C299.455 183.572 299.063 183.66 298.783 183.836C298.503 184.012 298.363 184.268 298.363 184.604C298.363 184.86 298.427 185.064 298.555 185.216C298.691 185.36 298.887 185.484 299.143 185.588C299.407 185.692 299.723 185.812 300.091 185.948C300.467 186.076 300.807 186.212 301.111 186.356C301.423 186.5 301.667 186.684 301.843 186.908C302.027 187.132 302.119 187.432 302.119 187.808ZM304.396 183.308C304.396 183.468 304.392 183.624 304.384 183.776C304.376 183.928 304.368 184.08 304.36 184.232H304.408C304.52 183.992 304.676 183.78 304.876 183.596C305.076 183.412 305.316 183.268 305.596 183.164C305.884 183.06 306.208 183.008 306.568 183.008C307.056 183.008 307.468 183.092 307.804 183.26C308.14 183.42 308.392 183.672 308.56 184.016C308.736 184.352 308.824 184.792 308.824 185.336V189.5H308.152V185.372C308.152 184.756 308.012 184.304 307.732 184.016C307.452 183.728 307.04 183.584 306.496 183.584C306.032 183.584 305.644 183.676 305.332 183.86C305.02 184.036 304.784 184.308 304.624 184.676C304.472 185.036 304.396 185.484 304.396 186.02V189.5H303.724V180.38H304.396V183.308ZM316.201 186.308C316.201 186.804 316.137 187.256 316.009 187.664C315.889 188.064 315.705 188.412 315.457 188.708C315.217 188.996 314.917 189.22 314.557 189.38C314.197 189.54 313.785 189.62 313.321 189.62C312.881 189.62 312.485 189.544 312.133 189.392C311.789 189.232 311.493 189.008 311.245 188.72C310.997 188.424 310.809 188.072 310.681 187.664C310.553 187.256 310.489 186.804 310.489 186.308C310.489 185.612 310.601 185.02 310.825 184.532C311.057 184.036 311.389 183.656 311.821 183.392C312.261 183.128 312.781 182.996 313.381 182.996C313.989 182.996 314.501 183.136 314.917 183.416C315.341 183.688 315.661 184.072 315.877 184.568C316.093 185.064 316.201 185.644 316.201 186.308ZM311.197 186.308C311.197 186.852 311.273 187.332 311.425 187.748C311.577 188.156 311.813 188.472 312.133 188.696C312.453 188.92 312.853 189.032 313.333 189.032C313.829 189.032 314.237 188.92 314.557 188.696C314.877 188.464 315.113 188.144 315.265 187.736C315.417 187.32 315.493 186.844 315.493 186.308C315.493 185.772 315.421 185.3 315.277 184.892C315.133 184.484 314.905 184.164 314.593 183.932C314.281 183.7 313.873 183.584 313.369 183.584C312.641 183.584 312.097 183.824 311.737 184.304C311.377 184.784 311.197 185.452 311.197 186.308ZM320.795 182.996C321.611 182.996 322.247 183.272 322.703 183.824C323.167 184.376 323.399 185.192 323.399 186.272C323.399 186.992 323.291 187.604 323.075 188.108C322.859 188.604 322.551 188.98 322.151 189.236C321.759 189.492 321.287 189.62 320.735 189.62C320.359 189.62 320.031 189.564 319.751 189.452C319.471 189.34 319.239 189.192 319.055 189.008C318.871 188.824 318.727 188.62 318.623 188.396H318.575C318.591 188.596 318.603 188.816 318.611 189.056C318.619 189.288 318.623 189.504 318.623 189.704V192.332H317.939V183.116H318.503L318.587 184.316H318.623C318.727 184.084 318.875 183.868 319.067 183.668C319.259 183.468 319.495 183.308 319.775 183.188C320.063 183.06 320.403 182.996 320.795 182.996ZM320.699 183.584C320.227 183.584 319.839 183.684 319.535 183.884C319.231 184.084 319.003 184.38 318.851 184.772C318.699 185.156 318.623 185.632 318.623 186.2V186.32C318.623 186.92 318.695 187.424 318.839 187.832C318.991 188.232 319.215 188.532 319.511 188.732C319.815 188.932 320.195 189.032 320.651 189.032C321.099 189.032 321.471 188.924 321.767 188.708C322.071 188.484 322.299 188.168 322.451 187.76C322.611 187.344 322.691 186.848 322.691 186.272C322.691 185.4 322.527 184.736 322.199 184.28C321.871 183.816 321.371 183.584 320.699 183.584ZM329.131 187.808C329.131 188.192 329.035 188.52 328.843 188.792C328.651 189.064 328.371 189.272 328.003 189.416C327.635 189.552 327.187 189.62 326.659 189.62C326.219 189.62 325.827 189.58 325.483 189.5C325.139 189.42 324.847 189.324 324.607 189.212V188.552C324.895 188.696 325.219 188.816 325.579 188.912C325.939 189 326.303 189.044 326.671 189.044C327.311 189.044 327.771 188.94 328.051 188.732C328.331 188.516 328.471 188.224 328.471 187.856C328.471 187.616 328.403 187.42 328.267 187.268C328.139 187.108 327.943 186.968 327.679 186.848C327.423 186.72 327.103 186.592 326.719 186.464C326.327 186.328 325.979 186.192 325.675 186.056C325.371 185.912 325.135 185.732 324.967 185.516C324.799 185.3 324.715 185.004 324.715 184.628C324.715 184.116 324.923 183.716 325.339 183.428C325.755 183.14 326.311 182.996 327.007 182.996C327.391 182.996 327.747 183.032 328.075 183.104C328.411 183.176 328.715 183.272 328.987 183.392L328.747 183.956C328.587 183.884 328.407 183.82 328.207 183.764C328.007 183.7 327.803 183.652 327.595 183.62C327.387 183.588 327.179 183.572 326.971 183.572C326.467 183.572 326.075 183.66 325.795 183.836C325.515 184.012 325.375 184.268 325.375 184.604C325.375 184.86 325.439 185.064 325.567 185.216C325.703 185.36 325.899 185.484 326.155 185.588C326.419 185.692 326.735 185.812 327.103 185.948C327.479 186.076 327.819 186.212 328.123 186.356C328.435 186.5 328.679 186.684 328.855 186.908C329.039 187.132 329.131 187.432 329.131 187.808Z" fill="#666666"/>
<path d="M7.592 58L3.832 47.984H3.768C3.78933 48.1973 3.80533 48.4693 3.816 48.8C3.83733 49.1307 3.85333 49.4933 3.864 49.888C3.87467 50.272 3.88 50.6667 3.88 51.072V58H2.552V46.576H4.68L8.2 55.936H8.264L11.848 46.576H13.96V58H12.536V50.976C12.536 50.6027 12.5413 50.2347 12.552 49.872C12.5627 49.4987 12.5787 49.152 12.6 48.832C12.6213 48.5013 12.6373 48.224 12.648 48H12.584L8.776 58H7.592ZM24.3316 53.696C24.3316 54.4107 24.2356 55.0453 24.0436 55.6C23.8623 56.144 23.5956 56.608 23.2436 56.992C22.9023 57.376 22.481 57.6693 21.9796 57.872C21.489 58.064 20.9396 58.16 20.3316 58.16C19.7663 58.16 19.2436 58.064 18.7636 57.872C18.2836 57.6693 17.8676 57.376 17.5156 56.992C17.1636 56.608 16.8863 56.144 16.6836 55.6C16.4916 55.0453 16.3956 54.4107 16.3956 53.696C16.3956 52.7467 16.5556 51.9467 16.8756 51.296C17.1956 50.6347 17.6543 50.1333 18.2516 49.792C18.849 49.44 19.5583 49.264 20.3796 49.264C21.1583 49.264 21.841 49.44 22.4276 49.792C23.025 50.1333 23.489 50.6347 23.8196 51.296C24.161 51.9467 24.3316 52.7467 24.3316 53.696ZM17.8516 53.696C17.8516 54.368 17.937 54.9547 18.1076 55.456C18.289 55.9467 18.5663 56.3253 18.9396 56.592C19.313 56.8587 19.7876 56.992 20.3636 56.992C20.9396 56.992 21.4143 56.8587 21.7876 56.592C22.161 56.3253 22.433 55.9467 22.6036 55.456C22.785 54.9547 22.8756 54.368 22.8756 53.696C22.8756 53.0133 22.785 52.432 22.6036 51.952C22.4223 51.472 22.145 51.104 21.7716 50.848C21.409 50.5813 20.9343 50.448 20.3476 50.448C19.473 50.448 18.8383 50.736 18.4436 51.312C18.049 51.888 17.8516 52.6827 17.8516 53.696ZM30.5631 49.264C30.7231 49.264 30.8938 49.2747 31.0751 49.296C31.2671 49.3067 31.4325 49.328 31.5711 49.36L31.3951 50.656C31.2565 50.624 31.1018 50.5973 30.9311 50.576C30.7711 50.5547 30.6165 50.544 30.4671 50.544C30.1365 50.544 29.8218 50.6133 29.5231 50.752C29.2245 50.8907 28.9578 51.088 28.7231 51.344C28.4885 51.5893 28.3018 51.888 28.1631 52.24C28.0351 52.592 27.9711 52.9867 27.9711 53.424V58H26.5631V49.424H27.7151L27.8751 50.992H27.9391C28.1205 50.672 28.3391 50.384 28.5951 50.128C28.8511 49.8613 29.1445 49.6533 29.4751 49.504C29.8058 49.344 30.1685 49.264 30.5631 49.264ZM36.172 49.264C36.908 49.264 37.5373 49.424 38.06 49.744C38.5933 50.064 38.9987 50.5173 39.276 51.104C39.564 51.68 39.708 52.3573 39.708 53.136V53.984H33.836C33.8573 54.9547 34.1027 55.696 34.572 56.208C35.052 56.7093 35.7187 56.96 36.572 56.96C37.116 56.96 37.596 56.912 38.012 56.816C38.4387 56.7093 38.876 56.56 39.324 56.368V57.6C38.8867 57.792 38.4547 57.9307 38.028 58.016C37.6013 58.112 37.0947 58.16 36.508 58.16C35.6973 58.16 34.9773 57.9947 34.348 57.664C33.7293 57.3333 33.244 56.8427 32.892 56.192C32.5507 55.5307 32.38 54.7253 32.38 53.776C32.38 52.8373 32.5347 52.032 32.844 51.36C33.164 50.688 33.6067 50.1707 34.172 49.808C34.748 49.4453 35.4147 49.264 36.172 49.264ZM36.156 50.416C35.484 50.416 34.9507 50.6347 34.556 51.072C34.172 51.4987 33.9427 52.096 33.868 52.864H38.236C38.236 52.3733 38.1613 51.9467 38.012 51.584C37.8627 51.2213 37.6333 50.9387 37.324 50.736C37.0253 50.5227 36.636 50.416 36.156 50.416ZM48.9115 57.008C49.1248 57.008 49.3435 56.992 49.5675 56.96C49.7915 56.9173 49.9728 56.8747 50.1115 56.832V57.904C49.9622 57.9787 49.7488 58.0373 49.4715 58.08C49.1942 58.1333 48.9275 58.16 48.6715 58.16C48.2235 58.16 47.8075 58.0853 47.4235 57.936C47.0502 57.776 46.7462 57.504 46.5115 57.12C46.2768 56.736 46.1595 56.1973 46.1595 55.504V50.512H44.9435V49.84L46.1755 49.28L46.7355 47.456H47.5675V49.424H50.0475V50.512H47.5675V55.472C47.5675 55.9947 47.6902 56.384 47.9355 56.64C48.1915 56.8853 48.5168 57.008 48.9115 57.008ZM53.2368 49.408C53.2368 49.6107 53.2261 49.8187 53.2048 50.032C53.1941 50.2453 53.1781 50.4373 53.1568 50.608H53.2528C53.4341 50.3093 53.6634 50.064 53.9408 49.872C54.2181 49.68 54.5274 49.536 54.8688 49.44C55.2101 49.3333 55.5621 49.28 55.9248 49.28C56.6181 49.28 57.1941 49.392 57.6528 49.616C58.1221 49.8293 58.4741 50.1653 58.7088 50.624C58.9434 51.0827 59.0608 51.68 59.0608 52.416V58H57.6688V52.512C57.6688 51.8187 57.5141 51.3013 57.2048 50.96C56.8954 50.6187 56.4101 50.448 55.7488 50.448C55.1088 50.448 54.6074 50.5707 54.2448 50.816C53.8821 51.0507 53.6208 51.4027 53.4608 51.872C53.3114 52.3307 53.2368 52.896 53.2368 53.568V58H51.8288V45.84H53.2368V49.408ZM64.9674 49.28C66.0127 49.28 66.786 49.5093 67.2874 49.968C67.7887 50.4267 68.0394 51.1573 68.0394 52.16V58H67.0154L66.7434 56.784H66.6794C66.434 57.0933 66.178 57.3547 65.9114 57.568C65.6554 57.7707 65.3567 57.92 65.0154 58.016C64.6847 58.112 64.2794 58.16 63.7994 58.16C63.2874 58.16 62.8234 58.0693 62.4074 57.888C62.002 57.7067 61.682 57.4293 61.4474 57.056C61.2127 56.672 61.0954 56.192 61.0954 55.616C61.0954 54.7627 61.4314 54.1067 62.1034 53.648C62.7754 53.1787 63.81 52.9227 65.2074 52.88L66.6634 52.832V52.32C66.6634 51.6053 66.5087 51.1093 66.1994 50.832C65.89 50.5547 65.4527 50.416 64.8874 50.416C64.4394 50.416 64.0127 50.4853 63.6074 50.624C63.202 50.752 62.8234 50.9013 62.4714 51.072L62.0394 50.016C62.4127 49.8133 62.8554 49.6427 63.3674 49.504C63.8794 49.3547 64.4127 49.28 64.9674 49.28ZM65.3834 53.856C64.3167 53.8987 63.5754 54.0693 63.1594 54.368C62.754 54.6667 62.5514 55.088 62.5514 55.632C62.5514 56.112 62.6954 56.464 62.9834 56.688C63.282 56.912 63.6607 57.024 64.1194 57.024C64.8447 57.024 65.4474 56.8267 65.9274 56.432C66.4074 56.0267 66.6474 55.408 66.6474 54.576V53.808L65.3834 53.856ZM74.8161 49.264C75.8401 49.264 76.6135 49.5147 77.1361 50.016C77.6588 50.5067 77.9201 51.3067 77.9201 52.416V58H76.5281V52.512C76.5281 51.8187 76.3735 51.3013 76.0641 50.96C75.7548 50.6187 75.2695 50.448 74.6081 50.448C73.6588 50.448 73.0028 50.7147 72.6401 51.248C72.2775 51.7813 72.0961 52.5493 72.0961 53.552V58H70.6881V49.424H71.8241L72.0321 50.592H72.1121C72.3041 50.2933 72.5388 50.048 72.8161 49.856C73.1041 49.6533 73.4188 49.504 73.7601 49.408C74.1015 49.312 74.4535 49.264 74.8161 49.264ZM84.255 53.12C84.255 52.4587 84.2977 51.808 84.383 51.168C84.479 50.528 84.639 49.9253 84.863 49.36C85.087 48.784 85.3963 48.2773 85.791 47.84C86.1857 47.392 86.6817 47.0453 87.279 46.8C87.887 46.544 88.623 46.416 89.487 46.416C89.711 46.416 89.9563 46.4267 90.223 46.448C90.5003 46.4693 90.7243 46.5067 90.895 46.56V47.76C90.703 47.696 90.4843 47.648 90.239 47.616C90.0043 47.584 89.7643 47.568 89.519 47.568C88.783 47.568 88.1697 47.6907 87.679 47.936C87.1883 48.1813 86.799 48.5173 86.511 48.944C86.2337 49.3707 86.031 49.8613 85.903 50.416C85.775 50.9707 85.695 51.5627 85.663 52.192H85.759C85.919 51.936 86.1217 51.7067 86.367 51.504C86.6123 51.3013 86.9057 51.1413 87.247 51.024C87.599 50.9067 88.0043 50.848 88.463 50.848C89.1243 50.848 89.7003 50.9867 90.191 51.264C90.6923 51.5307 91.0817 51.9253 91.359 52.448C91.6363 52.96 91.775 53.584 91.775 54.32C91.775 55.1093 91.6257 55.792 91.327 56.368C91.0283 56.944 90.607 57.3867 90.063 57.696C89.5297 58.0053 88.8897 58.16 88.143 58.16C87.599 58.16 87.0923 58.0587 86.623 57.856C86.1537 57.6533 85.7377 57.344 85.375 56.928C85.023 56.512 84.7457 55.9893 84.543 55.36C84.351 54.72 84.255 53.9733 84.255 53.12ZM88.127 56.976C88.799 56.976 89.343 56.7627 89.759 56.336C90.175 55.8987 90.383 55.2267 90.383 54.32C90.383 53.5947 90.1963 53.0187 89.823 52.592C89.4603 52.1653 88.911 51.952 88.175 51.952C87.6737 51.952 87.2363 52.0587 86.863 52.272C86.4897 52.4747 86.1963 52.736 85.983 53.056C85.7803 53.376 85.679 53.7067 85.679 54.048C85.679 54.4 85.727 54.7467 85.823 55.088C85.9297 55.4293 86.0843 55.744 86.287 56.032C86.5003 56.32 86.7563 56.5493 87.055 56.72C87.3643 56.8907 87.7217 56.976 88.127 56.976ZM100.899 52.272C100.899 53.2 100.83 54.0267 100.691 54.752C100.553 55.4773 100.329 56.096 100.019 56.608C99.7206 57.1093 99.3259 57.4933 98.8353 57.76C98.3553 58.0267 97.7739 58.16 97.0913 58.16C96.2379 58.16 95.5286 57.9253 94.9633 57.456C94.4086 56.9867 93.9926 56.3147 93.7153 55.44C93.4486 54.5547 93.3153 53.4987 93.3153 52.272C93.3153 51.0347 93.4379 49.9787 93.6833 49.104C93.9393 48.2293 94.3446 47.5627 94.8993 47.104C95.4539 46.6347 96.1846 46.4 97.0913 46.4C97.9446 46.4 98.6539 46.6347 99.2193 47.104C99.7846 47.5627 100.206 48.2293 100.483 49.104C100.761 49.9787 100.899 51.0347 100.899 52.272ZM94.7233 52.272C94.7233 53.3173 94.7979 54.1867 94.9473 54.88C95.1073 55.5733 95.3579 56.096 95.6993 56.448C96.0513 56.7893 96.5153 56.96 97.0913 56.96C97.6673 56.96 98.1259 56.7893 98.4673 56.448C98.8193 56.1067 99.0753 55.5893 99.2353 54.896C99.3953 54.192 99.4753 53.3173 99.4753 52.272C99.4753 51.2267 99.3953 50.3627 99.2353 49.68C99.0753 48.9867 98.8193 48.4693 98.4673 48.128C98.1259 47.776 97.6673 47.6 97.0913 47.6C96.5153 47.6 96.0513 47.776 95.6993 48.128C95.3579 48.4693 95.1073 48.9867 94.9473 49.68C94.7979 50.3627 94.7233 51.2267 94.7233 52.272ZM104.808 46.416C105.597 46.416 106.194 46.7307 106.6 47.36C107.005 47.9787 107.208 48.8533 107.208 49.984C107.208 51.1147 107.01 52 106.616 52.64C106.232 53.2693 105.629 53.584 104.808 53.584C104.306 53.584 103.88 53.44 103.528 53.152C103.176 52.864 102.909 52.4533 102.728 51.92C102.557 51.376 102.472 50.7307 102.472 49.984C102.472 48.8533 102.658 47.9787 103.032 47.36C103.405 46.7307 103.997 46.416 104.808 46.416ZM104.808 47.408C104.402 47.408 104.104 47.6267 103.912 48.064C103.73 48.4907 103.64 49.1307 103.64 49.984C103.64 50.8373 103.73 51.4827 103.912 51.92C104.104 52.3573 104.402 52.576 104.808 52.576C105.224 52.576 105.533 52.3627 105.736 51.936C105.938 51.4987 106.04 50.848 106.04 49.984C106.04 49.1307 105.938 48.4907 105.736 48.064C105.533 47.6267 105.224 47.408 104.808 47.408ZM112.12 46.576L105.784 58H104.552L110.888 46.576H112.12ZM111.8 50.992C112.322 50.992 112.76 51.136 113.112 51.424C113.464 51.7013 113.73 52.1067 113.912 52.64C114.104 53.1627 114.2 53.8027 114.2 54.56C114.2 55.6907 114.002 56.576 113.608 57.216C113.224 57.8453 112.621 58.16 111.8 58.16C111.298 58.16 110.872 58.016 110.52 57.728C110.168 57.44 109.901 57.0293 109.72 56.496C109.549 55.952 109.464 55.3067 109.464 54.56C109.464 53.4293 109.65 52.5547 110.024 51.936C110.397 51.3067 110.989 50.992 111.8 50.992ZM111.8 52C111.394 52 111.096 52.2133 110.904 52.64C110.722 53.0667 110.632 53.7067 110.632 54.56C110.632 55.424 110.722 56.0747 110.904 56.512C111.096 56.9387 111.394 57.152 111.8 57.152C112.216 57.152 112.525 56.9387 112.728 56.512C112.93 56.0853 113.032 55.4347 113.032 54.56C113.032 53.7067 112.93 53.0667 112.728 52.64C112.525 52.2133 112.216 52 111.8 52ZM127.957 53.696C127.957 54.4107 127.861 55.0453 127.669 55.6C127.487 56.144 127.221 56.608 126.869 56.992C126.527 57.376 126.106 57.6693 125.605 57.872C125.114 58.064 124.565 58.16 123.957 58.16C123.391 58.16 122.869 58.064 122.389 57.872C121.909 57.6693 121.493 57.376 121.141 56.992C120.789 56.608 120.511 56.144 120.309 55.6C120.117 55.0453 120.021 54.4107 120.021 53.696C120.021 52.7467 120.181 51.9467 120.501 51.296C120.821 50.6347 121.279 50.1333 121.877 49.792C122.474 49.44 123.183 49.264 124.005 49.264C124.783 49.264 125.466 49.44 126.053 49.792C126.65 50.1333 127.114 50.6347 127.445 51.296C127.786 51.9467 127.957 52.7467 127.957 53.696ZM121.477 53.696C121.477 54.368 121.562 54.9547 121.733 55.456C121.914 55.9467 122.191 56.3253 122.565 56.592C122.938 56.8587 123.413 56.992 123.989 56.992C124.565 56.992 125.039 56.8587 125.413 56.592C125.786 56.3253 126.058 55.9467 126.229 55.456C126.41 54.9547 126.501 54.368 126.501 53.696C126.501 53.0133 126.41 52.432 126.229 51.952C126.047 51.472 125.77 51.104 125.397 50.848C125.034 50.5813 124.559 50.448 123.973 50.448C123.098 50.448 122.463 50.736 122.069 51.312C121.674 51.888 121.477 52.6827 121.477 53.696ZM134.14 50.512H131.98V58H130.572V50.512H129.068V49.856L130.572 49.376V48.88C130.572 48.144 130.679 47.5467 130.892 47.088C131.116 46.6293 131.436 46.2933 131.852 46.08C132.268 45.8667 132.769 45.76 133.356 45.76C133.697 45.76 134.007 45.792 134.284 45.856C134.572 45.9093 134.817 45.9733 135.02 46.048L134.652 47.152C134.481 47.0987 134.284 47.0453 134.06 46.992C133.836 46.9387 133.607 46.912 133.372 46.912C132.903 46.912 132.551 47.072 132.316 47.392C132.092 47.7013 131.98 48.192 131.98 48.864V49.424H134.14V50.512ZM5.8 83.16C5.04267 83.16 4.36533 83.0053 3.768 82.696C3.18133 82.3867 2.71733 81.9067 2.376 81.256C2.04533 80.6053 1.88 79.7733 1.88 78.76C1.88 77.704 2.056 76.8453 2.408 76.184C2.76 75.5227 3.23467 75.0373 3.832 74.728C4.44 74.4187 5.128 74.264 5.896 74.264C6.33333 74.264 6.75467 74.312 7.16 74.408C7.56533 74.4933 7.896 74.6 8.152 74.728L7.72 75.896C7.464 75.8 7.16533 75.7093 6.824 75.624C6.48267 75.5387 6.16267 75.496 5.864 75.496C5.288 75.496 4.81333 75.6187 4.44 75.864C4.06667 76.1093 3.78933 76.472 3.608 76.952C3.42667 77.432 3.336 78.0293 3.336 78.744C3.336 79.4267 3.42667 80.008 3.608 80.488C3.78933 80.968 4.06133 81.3307 4.424 81.576C4.78667 81.8213 5.24 81.944 5.784 81.944C6.25333 81.944 6.664 81.896 7.016 81.8C7.37867 81.704 7.70933 81.5867 8.008 81.448V82.696C7.72 82.8453 7.4 82.9573 7.048 83.032C6.70667 83.1173 6.29067 83.16 5.8 83.16ZM17.2155 74.424V83H16.0635L15.8555 81.864H15.7915C15.6102 82.1627 15.3755 82.408 15.0875 82.6C14.7995 82.792 14.4848 82.9307 14.1435 83.016C13.8022 83.112 13.4448 83.16 13.0715 83.16C12.3888 83.16 11.8128 83.0533 11.3435 82.84C10.8848 82.616 10.5382 82.2747 10.3035 81.816C10.0688 81.3573 9.9515 80.7653 9.9515 80.04V74.424H11.3755V79.944C11.3755 80.6267 11.5302 81.1387 11.8395 81.48C12.1488 81.8213 12.6288 81.992 13.2795 81.992C13.9195 81.992 14.4208 81.8747 14.7835 81.64C15.1568 81.3947 15.4182 81.0427 15.5675 80.584C15.7275 80.1147 15.8075 79.5493 15.8075 78.888V74.424H17.2155ZM25.5221 80.632C25.5221 81.1867 25.3835 81.6507 25.1061 82.024C24.8288 82.3973 24.4341 82.68 23.9221 82.872C23.4101 83.064 22.8021 83.16 22.0981 83.16C21.5008 83.16 20.9835 83.112 20.5461 83.016C20.1195 82.92 19.7408 82.7867 19.4101 82.616V81.336C19.7515 81.5067 20.1621 81.6667 20.6421 81.816C21.1328 81.9547 21.6288 82.024 22.1301 82.024C22.8448 82.024 23.3621 81.912 23.6821 81.688C24.0021 81.4533 24.1621 81.144 24.1621 80.76C24.1621 80.5467 24.1035 80.3547 23.9861 80.184C23.8688 80.0133 23.6555 79.8427 23.3461 79.672C23.0475 79.5013 22.6155 79.3093 22.0501 79.096C21.4955 78.8827 21.0208 78.6693 20.6261 78.456C20.2315 78.2427 19.9275 77.9867 19.7141 77.688C19.5008 77.3893 19.3941 77.0053 19.3941 76.536C19.3941 75.8107 19.6875 75.2507 20.2741 74.856C20.8715 74.4613 21.6501 74.264 22.6101 74.264C23.1328 74.264 23.6181 74.3173 24.0661 74.424C24.5248 74.52 24.9515 74.6587 25.3461 74.84L24.8661 75.96C24.6315 75.8533 24.3808 75.7627 24.1141 75.688C23.8581 75.6027 23.5968 75.5387 23.3301 75.496C23.0635 75.4427 22.7915 75.416 22.5141 75.416C21.9381 75.416 21.4955 75.512 21.1861 75.704C20.8875 75.8853 20.7381 76.136 20.7381 76.456C20.7381 76.6907 20.8075 76.8933 20.9461 77.064C21.0848 77.224 21.3141 77.384 21.6341 77.544C21.9648 77.6933 22.4021 77.8747 22.9461 78.088C23.4901 78.2907 23.9541 78.4987 24.3381 78.712C24.7221 78.9253 25.0155 79.1867 25.2181 79.496C25.4208 79.7947 25.5221 80.1733 25.5221 80.632ZM30.4584 82.008C30.6717 82.008 30.8904 81.992 31.1144 81.96C31.3384 81.9173 31.5197 81.8747 31.6584 81.832V82.904C31.509 82.9787 31.2957 83.0373 31.0184 83.08C30.741 83.1333 30.4744 83.16 30.2184 83.16C29.7704 83.16 29.3544 83.0853 28.9704 82.936C28.597 82.776 28.293 82.504 28.0584 82.12C27.8237 81.736 27.7064 81.1973 27.7064 80.504V75.512H26.4904V74.84L27.7224 74.28L28.2824 72.456H29.1144V74.424H31.5944V75.512H29.1144V80.472C29.1144 80.9947 29.237 81.384 29.4824 81.64C29.7384 81.8853 30.0637 82.008 30.4584 82.008ZM40.8316 78.696C40.8316 79.4107 40.7356 80.0453 40.5436 80.6C40.3623 81.144 40.0956 81.608 39.7436 81.992C39.4023 82.376 38.981 82.6693 38.4796 82.872C37.989 83.064 37.4396 83.16 36.8316 83.16C36.2663 83.16 35.7436 83.064 35.2636 82.872C34.7836 82.6693 34.3676 82.376 34.0156 81.992C33.6636 81.608 33.3863 81.144 33.1836 80.6C32.9916 80.0453 32.8956 79.4107 32.8956 78.696C32.8956 77.7467 33.0556 76.9467 33.3756 76.296C33.6956 75.6347 34.1543 75.1333 34.7516 74.792C35.349 74.44 36.0583 74.264 36.8796 74.264C37.6583 74.264 38.341 74.44 38.9276 74.792C39.525 75.1333 39.989 75.6347 40.3196 76.296C40.661 76.9467 40.8316 77.7467 40.8316 78.696ZM34.3516 78.696C34.3516 79.368 34.437 79.9547 34.6076 80.456C34.789 80.9467 35.0663 81.3253 35.4396 81.592C35.813 81.8587 36.2876 81.992 36.8636 81.992C37.4396 81.992 37.9143 81.8587 38.2876 81.592C38.661 81.3253 38.933 80.9467 39.1036 80.456C39.285 79.9547 39.3756 79.368 39.3756 78.696C39.3756 78.0133 39.285 77.432 39.1036 76.952C38.9223 76.472 38.645 76.104 38.2716 75.848C37.909 75.5813 37.4343 75.448 36.8476 75.448C35.973 75.448 35.3383 75.736 34.9436 76.312C34.549 76.888 34.3516 77.6827 34.3516 78.696ZM52.4711 74.264C53.4418 74.264 54.1671 74.5147 54.6471 75.016C55.1271 75.5067 55.3671 76.3067 55.3671 77.416V83H53.9751V77.48C53.9751 76.808 53.8311 76.3013 53.5431 75.96C53.2658 75.6187 52.8285 75.448 52.2311 75.448C51.3991 75.448 50.8018 75.688 50.4391 76.168C50.0871 76.648 49.9111 77.3467 49.9111 78.264V83H48.5191V77.48C48.5191 77.032 48.4551 76.6587 48.3271 76.36C48.1991 76.0507 48.0071 75.8213 47.7511 75.672C47.4951 75.5227 47.1645 75.448 46.7591 75.448C46.1831 75.448 45.7298 75.5707 45.3991 75.816C45.0685 76.0507 44.8285 76.3973 44.6791 76.856C44.5405 77.3147 44.4711 77.88 44.4711 78.552V83H43.0631V74.424H44.1991L44.4071 75.592H44.4871C44.6685 75.2933 44.8871 75.048 45.1431 74.856C45.4098 74.6533 45.7031 74.504 46.0231 74.408C46.3431 74.312 46.6738 74.264 47.0151 74.264C47.6765 74.264 48.2258 74.3813 48.6631 74.616C49.1111 74.8507 49.4365 75.2133 49.6391 75.704H49.7191C50.0071 75.2133 50.3965 74.8507 50.8871 74.616C51.3885 74.3813 51.9165 74.264 52.4711 74.264ZM61.3283 74.264C62.0643 74.264 62.6936 74.424 63.2163 74.744C63.7496 75.064 64.1549 75.5173 64.4323 76.104C64.7203 76.68 64.8643 77.3573 64.8643 78.136V78.984H58.9923C59.0136 79.9547 59.2589 80.696 59.7283 81.208C60.2083 81.7093 60.8749 81.96 61.7283 81.96C62.2723 81.96 62.7523 81.912 63.1683 81.816C63.5949 81.7093 64.0323 81.56 64.4803 81.368V82.6C64.0429 82.792 63.6109 82.9307 63.1843 83.016C62.7576 83.112 62.2509 83.16 61.6643 83.16C60.8536 83.16 60.1336 82.9947 59.5043 82.664C58.8856 82.3333 58.4003 81.8427 58.0483 81.192C57.7069 80.5307 57.5363 79.7253 57.5363 78.776C57.5363 77.8373 57.6909 77.032 58.0003 76.36C58.3203 75.688 58.7629 75.1707 59.3283 74.808C59.9043 74.4453 60.5709 74.264 61.3283 74.264ZM61.3123 75.416C60.6403 75.416 60.1069 75.6347 59.7123 76.072C59.3283 76.4987 59.0989 77.096 59.0243 77.864H63.3923C63.3923 77.3733 63.3176 76.9467 63.1683 76.584C63.0189 76.2213 62.7896 75.9387 62.4803 75.736C62.1816 75.5227 61.7923 75.416 61.3123 75.416ZM71.0475 74.264C71.2075 74.264 71.3782 74.2747 71.5595 74.296C71.7515 74.3067 71.9168 74.328 72.0555 74.36L71.8795 75.656C71.7408 75.624 71.5862 75.5973 71.4155 75.576C71.2555 75.5547 71.1008 75.544 70.9515 75.544C70.6208 75.544 70.3062 75.6133 70.0075 75.752C69.7088 75.8907 69.4422 76.088 69.2075 76.344C68.9728 76.5893 68.7862 76.888 68.6475 77.24C68.5195 77.592 68.4555 77.9867 68.4555 78.424V83H67.0475V74.424H68.1995L68.3595 75.992H68.4235C68.6048 75.672 68.8235 75.384 69.0795 75.128C69.3355 74.8613 69.6288 74.6533 69.9595 74.504C70.2902 74.344 70.6528 74.264 71.0475 74.264ZM79.2409 80.632C79.2409 81.1867 79.1022 81.6507 78.8249 82.024C78.5475 82.3973 78.1529 82.68 77.6409 82.872C77.1289 83.064 76.5209 83.16 75.8169 83.16C75.2195 83.16 74.7022 83.112 74.2649 83.016C73.8382 82.92 73.4595 82.7867 73.1289 82.616V81.336C73.4702 81.5067 73.8809 81.6667 74.3609 81.816C74.8515 81.9547 75.3475 82.024 75.8489 82.024C76.5635 82.024 77.0809 81.912 77.4009 81.688C77.7209 81.4533 77.8809 81.144 77.8809 80.76C77.8809 80.5467 77.8222 80.3547 77.7049 80.184C77.5875 80.0133 77.3742 79.8427 77.0649 79.672C76.7662 79.5013 76.3342 79.3093 75.7689 79.096C75.2142 78.8827 74.7395 78.6693 74.3449 78.456C73.9502 78.2427 73.6462 77.9867 73.4329 77.688C73.2195 77.3893 73.1129 77.0053 73.1129 76.536C73.1129 75.8107 73.4062 75.2507 73.9929 74.856C74.5902 74.4613 75.3689 74.264 76.3289 74.264C76.8515 74.264 77.3369 74.3173 77.7849 74.424C78.2435 74.52 78.6702 74.6587 79.0649 74.84L78.5849 75.96C78.3502 75.8533 78.0995 75.7627 77.8329 75.688C77.5769 75.6027 77.3155 75.5387 77.0489 75.496C76.7822 75.4427 76.5102 75.416 76.2329 75.416C75.6569 75.416 75.2142 75.512 74.9049 75.704C74.6062 75.8853 74.4569 76.136 74.4569 76.456C74.4569 76.6907 74.5262 76.8933 74.6649 77.064C74.8035 77.224 75.0329 77.384 75.3529 77.544C75.6835 77.6933 76.1209 77.8747 76.6649 78.088C77.2089 78.2907 77.6729 78.4987 78.0569 78.712C78.4409 78.9253 78.7342 79.1867 78.9369 79.496C79.1395 79.7947 79.2409 80.1733 79.2409 80.632ZM89.5494 74.264C90.6054 74.264 91.4534 74.632 92.0934 75.368C92.744 76.104 93.0694 77.2133 93.0694 78.696C93.0694 79.6667 92.92 80.488 92.6214 81.16C92.3334 81.8213 91.9227 82.3227 91.3894 82.664C90.8667 82.9947 90.248 83.16 89.5334 83.16C89.096 83.16 88.7067 83.1013 88.3654 82.984C88.024 82.8667 87.7307 82.7173 87.4854 82.536C87.2507 82.344 87.048 82.136 86.8774 81.912H86.7814C86.8027 82.0933 86.824 82.3227 86.8454 82.6C86.8667 82.8773 86.8774 83.1173 86.8774 83.32V86.84H85.4694V74.424H86.6214L86.8134 75.592H86.8774C87.048 75.3467 87.2507 75.1227 87.4854 74.92C87.7307 74.7173 88.0187 74.5573 88.3494 74.44C88.6907 74.3227 89.0907 74.264 89.5494 74.264ZM89.2934 75.448C88.7174 75.448 88.2534 75.56 87.9014 75.784C87.5494 75.9973 87.2934 76.3227 87.1334 76.76C86.9734 77.1973 86.888 77.752 86.8774 78.424V78.696C86.8774 79.4 86.952 79.9973 87.1014 80.488C87.2507 80.9787 87.5014 81.352 87.8534 81.608C88.216 81.864 88.7067 81.992 89.3254 81.992C89.848 81.992 90.2747 81.848 90.6054 81.56C90.9467 81.272 91.1974 80.8827 91.3574 80.392C91.528 79.8907 91.6134 79.32 91.6134 78.68C91.6134 77.6987 91.4214 76.9147 91.0374 76.328C90.664 75.7413 90.0827 75.448 89.2934 75.448ZM99.3131 74.264C99.4731 74.264 99.6438 74.2747 99.8251 74.296C100.017 74.3067 100.182 74.328 100.321 74.36L100.145 75.656C100.006 75.624 99.8518 75.5973 99.6811 75.576C99.5211 75.5547 99.3665 75.544 99.2171 75.544C98.8865 75.544 98.5718 75.6133 98.2731 75.752C97.9745 75.8907 97.7078 76.088 97.4731 76.344C97.2385 76.5893 97.0518 76.888 96.9131 77.24C96.7851 77.592 96.7211 77.9867 96.7211 78.424V83H95.3131V74.424H96.4651L96.6251 75.992H96.6891C96.8705 75.672 97.0891 75.384 97.3451 75.128C97.6011 74.8613 97.8945 74.6533 98.2251 74.504C98.5558 74.344 98.9185 74.264 99.3131 74.264ZM104.922 74.264C105.658 74.264 106.287 74.424 106.81 74.744C107.343 75.064 107.749 75.5173 108.026 76.104C108.314 76.68 108.458 77.3573 108.458 78.136V78.984H102.586C102.607 79.9547 102.853 80.696 103.322 81.208C103.802 81.7093 104.469 81.96 105.322 81.96C105.866 81.96 106.346 81.912 106.762 81.816C107.189 81.7093 107.626 81.56 108.074 81.368V82.6C107.637 82.792 107.205 82.9307 106.778 83.016C106.351 83.112 105.845 83.16 105.258 83.16C104.447 83.16 103.727 82.9947 103.098 82.664C102.479 82.3333 101.994 81.8427 101.642 81.192C101.301 80.5307 101.13 79.7253 101.13 78.776C101.13 77.8373 101.285 77.032 101.594 76.36C101.914 75.688 102.357 75.1707 102.922 74.808C103.498 74.4453 104.165 74.264 104.922 74.264ZM104.906 75.416C104.234 75.416 103.701 75.6347 103.306 76.072C102.922 76.4987 102.693 77.096 102.618 77.864H106.986C106.986 77.3733 106.911 76.9467 106.762 76.584C106.613 76.2213 106.383 75.9387 106.074 75.736C105.775 75.5227 105.386 75.416 104.906 75.416ZM114.593 75.512H112.433V83H111.025V75.512H109.521V74.856L111.025 74.376V73.88C111.025 73.144 111.132 72.5467 111.345 72.088C111.569 71.6293 111.889 71.2933 112.305 71.08C112.721 70.8667 113.223 70.76 113.809 70.76C114.151 70.76 114.46 70.792 114.737 70.856C115.025 70.9093 115.271 70.9733 115.473 71.048L115.105 72.152C114.935 72.0987 114.737 72.0453 114.513 71.992C114.289 71.9387 114.06 71.912 113.825 71.912C113.356 71.912 113.004 72.072 112.769 72.392C112.545 72.7013 112.433 73.192 112.433 73.864V74.424H114.593V75.512ZM119.453 74.264C120.189 74.264 120.819 74.424 121.341 74.744C121.875 75.064 122.28 75.5173 122.557 76.104C122.845 76.68 122.989 77.3573 122.989 78.136V78.984H117.117C117.139 79.9547 117.384 80.696 117.853 81.208C118.333 81.7093 119 81.96 119.853 81.96C120.397 81.96 120.877 81.912 121.293 81.816C121.72 81.7093 122.157 81.56 122.605 81.368V82.6C122.168 82.792 121.736 82.9307 121.309 83.016C120.883 83.112 120.376 83.16 119.789 83.16C118.979 83.16 118.259 82.9947 117.629 82.664C117.011 82.3333 116.525 81.8427 116.173 81.192C115.832 80.5307 115.661 79.7253 115.661 78.776C115.661 77.8373 115.816 77.032 116.125 76.36C116.445 75.688 116.888 75.1707 117.453 74.808C118.029 74.4453 118.696 74.264 119.453 74.264ZM119.437 75.416C118.765 75.416 118.232 75.6347 117.837 76.072C117.453 76.4987 117.224 77.096 117.149 77.864H121.517C121.517 77.3733 121.443 76.9467 121.293 76.584C121.144 76.2213 120.915 75.9387 120.605 75.736C120.307 75.5227 119.917 75.416 119.437 75.416ZM129.173 74.264C129.333 74.264 129.503 74.2747 129.685 74.296C129.877 74.3067 130.042 74.328 130.181 74.36L130.005 75.656C129.866 75.624 129.711 75.5973 129.541 75.576C129.381 75.5547 129.226 75.544 129.077 75.544C128.746 75.544 128.431 75.6133 128.133 75.752C127.834 75.8907 127.567 76.088 127.333 76.344C127.098 76.5893 126.911 76.888 126.773 77.24C126.645 77.592 126.581 77.9867 126.581 78.424V83H125.173V74.424H126.325L126.485 75.992H126.549C126.73 75.672 126.949 75.384 127.205 75.128C127.461 74.8613 127.754 74.6533 128.085 74.504C128.415 74.344 128.778 74.264 129.173 74.264ZM96.1285 128.696C96.1285 129.411 96.0325 130.045 95.8405 130.6C95.6592 131.144 95.3925 131.608 95.0405 131.992C94.6992 132.376 94.2778 132.669 93.7765 132.872C93.2858 133.064 92.7365 133.16 92.1285 133.16C91.5632 133.16 91.0405 133.064 90.5605 132.872C90.0805 132.669 89.6645 132.376 89.3125 131.992C88.9605 131.608 88.6832 131.144 88.4805 130.6C88.2885 130.045 88.1925 129.411 88.1925 128.696C88.1925 127.747 88.3525 126.947 88.6725 126.296C88.9925 125.635 89.4512 125.133 90.0485 124.792C90.6458 124.44 91.3552 124.264 92.1765 124.264C92.9552 124.264 93.6378 124.44 94.2245 124.792C94.8218 125.133 95.2858 125.635 95.6165 126.296C95.9578 126.947 96.1285 127.747 96.1285 128.696ZM89.6485 128.696C89.6485 129.368 89.7338 129.955 89.9045 130.456C90.0858 130.947 90.3632 131.325 90.7365 131.592C91.1098 131.859 91.5845 131.992 92.1605 131.992C92.7365 131.992 93.2112 131.859 93.5845 131.592C93.9578 131.325 94.2298 130.947 94.4005 130.456C94.5818 129.955 94.6725 129.368 94.6725 128.696C94.6725 128.013 94.5818 127.432 94.4005 126.952C94.2192 126.472 93.9418 126.104 93.5685 125.848C93.2058 125.581 92.7312 125.448 92.1445 125.448C91.2698 125.448 90.6352 125.736 90.2405 126.312C89.8458 126.888 89.6485 127.683 89.6485 128.696ZM99.9355 133L96.6875 124.424H98.1915L100.016 129.48C100.101 129.715 100.192 129.976 100.288 130.264C100.384 130.552 100.469 130.829 100.544 131.096C100.618 131.352 100.672 131.571 100.704 131.752H100.768C100.81 131.571 100.869 131.347 100.944 131.08C101.029 130.813 101.12 130.536 101.216 130.248C101.322 129.96 101.413 129.704 101.488 129.48L103.312 124.424H104.816L101.552 133H99.9355ZM109.485 124.264C110.221 124.264 110.85 124.424 111.373 124.744C111.906 125.064 112.311 125.517 112.589 126.104C112.877 126.68 113.021 127.357 113.021 128.136V128.984H107.149C107.17 129.955 107.415 130.696 107.885 131.208C108.365 131.709 109.031 131.96 109.885 131.96C110.429 131.96 110.909 131.912 111.325 131.816C111.751 131.709 112.189 131.56 112.637 131.368V132.6C112.199 132.792 111.767 132.931 111.341 133.016C110.914 133.112 110.407 133.16 109.821 133.16C109.01 133.16 108.29 132.995 107.661 132.664C107.042 132.333 106.557 131.843 106.205 131.192C105.863 130.531 105.693 129.725 105.693 128.776C105.693 127.837 105.847 127.032 106.157 126.36C106.477 125.688 106.919 125.171 107.485 124.808C108.061 124.445 108.727 124.264 109.485 124.264ZM109.469 125.416C108.797 125.416 108.263 125.635 107.869 126.072C107.485 126.499 107.255 127.096 107.181 127.864H111.549C111.549 127.373 111.474 126.947 111.325 126.584C111.175 126.221 110.946 125.939 110.637 125.736C110.338 125.523 109.949 125.416 109.469 125.416ZM119.204 124.264C119.364 124.264 119.534 124.275 119.716 124.296C119.908 124.307 120.073 124.328 120.212 124.36L120.036 125.656C119.897 125.624 119.742 125.597 119.572 125.576C119.412 125.555 119.257 125.544 119.108 125.544C118.777 125.544 118.462 125.613 118.164 125.752C117.865 125.891 117.598 126.088 117.364 126.344C117.129 126.589 116.942 126.888 116.804 127.24C116.676 127.592 116.612 127.987 116.612 128.424V133H115.204V124.424H116.356L116.516 125.992H116.58C116.761 125.672 116.98 125.384 117.236 125.128C117.492 124.861 117.785 124.653 118.116 124.504C118.446 124.344 118.809 124.264 119.204 124.264ZM9.816 153.696C9.816 154.411 9.72 155.045 9.528 155.6C9.34667 156.144 9.08 156.608 8.728 156.992C8.38667 157.376 7.96533 157.669 7.464 157.872C6.97333 158.064 6.424 158.16 5.816 158.16C5.25067 158.16 4.728 158.064 4.248 157.872C3.768 157.669 3.352 157.376 3 156.992C2.648 156.608 2.37067 156.144 2.168 155.6C1.976 155.045 1.88 154.411 1.88 153.696C1.88 152.747 2.04 151.947 2.36 151.296C2.68 150.635 3.13867 150.133 3.736 149.792C4.33333 149.44 5.04267 149.264 5.864 149.264C6.64267 149.264 7.32533 149.44 7.912 149.792C8.50933 150.133 8.97333 150.635 9.304 151.296C9.64533 151.947 9.816 152.747 9.816 153.696ZM3.336 153.696C3.336 154.368 3.42133 154.955 3.592 155.456C3.77333 155.947 4.05067 156.325 4.424 156.592C4.79733 156.859 5.272 156.992 5.848 156.992C6.424 156.992 6.89867 156.859 7.272 156.592C7.64533 156.325 7.91733 155.947 8.088 155.456C8.26933 154.955 8.36 154.368 8.36 153.696C8.36 153.013 8.26933 152.432 8.088 151.952C7.90667 151.472 7.62933 151.104 7.256 150.848C6.89333 150.581 6.41867 150.448 5.832 150.448C4.95733 150.448 4.32267 150.736 3.928 151.312C3.53333 151.888 3.336 152.683 3.336 153.696ZM14.9115 157.008C15.1248 157.008 15.3435 156.992 15.5675 156.96C15.7915 156.917 15.9728 156.875 16.1115 156.832V157.904C15.9622 157.979 15.7488 158.037 15.4715 158.08C15.1942 158.133 14.9275 158.16 14.6715 158.16C14.2235 158.16 13.8075 158.085 13.4235 157.936C13.0502 157.776 12.7462 157.504 12.5115 157.12C12.2768 156.736 12.1595 156.197 12.1595 155.504V150.512H10.9435V149.84L12.1755 149.28L12.7355 147.456H13.5675V149.424H16.0475V150.512H13.5675V155.472C13.5675 155.995 13.6902 156.384 13.9355 156.64C14.1915 156.885 14.5168 157.008 14.9115 157.008ZM19.2368 149.408C19.2368 149.611 19.2261 149.819 19.2048 150.032C19.1941 150.245 19.1781 150.437 19.1568 150.608H19.2528C19.4341 150.309 19.6634 150.064 19.9408 149.872C20.2181 149.68 20.5274 149.536 20.8688 149.44C21.2101 149.333 21.5621 149.28 21.9248 149.28C22.6181 149.28 23.1941 149.392 23.6528 149.616C24.1221 149.829 24.4741 150.165 24.7088 150.624C24.9434 151.083 25.0608 151.68 25.0608 152.416V158H23.6688V152.512C23.6688 151.819 23.5141 151.301 23.2048 150.96C22.8954 150.619 22.4101 150.448 21.7488 150.448C21.1088 150.448 20.6074 150.571 20.2448 150.816C19.8821 151.051 19.6208 151.403 19.4608 151.872C19.3114 152.331 19.2368 152.896 19.2368 153.568V158H17.8288V145.84H19.2368V149.408ZM31.0314 149.264C31.7674 149.264 32.3967 149.424 32.9194 149.744C33.4527 150.064 33.858 150.517 34.1354 151.104C34.4234 151.68 34.5674 152.357 34.5674 153.136V153.984H28.6954C28.7167 154.955 28.962 155.696 29.4314 156.208C29.9114 156.709 30.578 156.96 31.4314 156.96C31.9754 156.96 32.4554 156.912 32.8714 156.816C33.298 156.709 33.7354 156.56 34.1834 156.368V157.6C33.746 157.792 33.314 157.931 32.8874 158.016C32.4607 158.112 31.954 158.16 31.3674 158.16C30.5567 158.16 29.8367 157.995 29.2074 157.664C28.5887 157.333 28.1034 156.843 27.7514 156.192C27.41 155.531 27.2394 154.725 27.2394 153.776C27.2394 152.837 27.394 152.032 27.7034 151.36C28.0234 150.688 28.466 150.171 29.0314 149.808C29.6074 149.445 30.274 149.264 31.0314 149.264ZM31.0154 150.416C30.3434 150.416 29.81 150.635 29.4154 151.072C29.0314 151.499 28.802 152.096 28.7274 152.864H33.0954C33.0954 152.373 33.0207 151.947 32.8714 151.584C32.722 151.221 32.4927 150.939 32.1834 150.736C31.8847 150.523 31.4954 150.416 31.0154 150.416ZM40.7506 149.264C40.9106 149.264 41.0813 149.275 41.2626 149.296C41.4546 149.307 41.62 149.328 41.7586 149.36L41.5826 150.656C41.444 150.624 41.2893 150.597 41.1186 150.576C40.9586 150.555 40.804 150.544 40.6546 150.544C40.324 150.544 40.0093 150.613 39.7106 150.752C39.412 150.891 39.1453 151.088 38.9106 151.344C38.676 151.589 38.4893 151.888 38.3506 152.24C38.2226 152.592 38.1586 152.987 38.1586 153.424V158H36.7506V149.424H37.9026L38.0626 150.992H38.1266C38.308 150.672 38.5266 150.384 38.7826 150.128C39.0386 149.861 39.332 149.653 39.6626 149.504C39.9933 149.344 40.356 149.264 40.7506 149.264ZM48.944 155.632C48.944 156.187 48.8053 156.651 48.528 157.024C48.2507 157.397 47.856 157.68 47.344 157.872C46.832 158.064 46.224 158.16 45.52 158.16C44.9227 158.16 44.4053 158.112 43.968 158.016C43.5413 157.92 43.1627 157.787 42.832 157.616V156.336C43.1733 156.507 43.584 156.667 44.064 156.816C44.5547 156.955 45.0507 157.024 45.552 157.024C46.2667 157.024 46.784 156.912 47.104 156.688C47.424 156.453 47.584 156.144 47.584 155.76C47.584 155.547 47.5253 155.355 47.408 155.184C47.2907 155.013 47.0773 154.843 46.768 154.672C46.4693 154.501 46.0373 154.309 45.472 154.096C44.9173 153.883 44.4427 153.669 44.048 153.456C43.6533 153.243 43.3493 152.987 43.136 152.688C42.9227 152.389 42.816 152.005 42.816 151.536C42.816 150.811 43.1093 150.251 43.696 149.856C44.2933 149.461 45.072 149.264 46.032 149.264C46.5547 149.264 47.04 149.317 47.488 149.424C47.9467 149.52 48.3733 149.659 48.768 149.84L48.288 150.96C48.0533 150.853 47.8027 150.763 47.536 150.688C47.28 150.603 47.0187 150.539 46.752 150.496C46.4853 150.443 46.2133 150.416 45.936 150.416C45.36 150.416 44.9173 150.512 44.608 150.704C44.3093 150.885 44.16 151.136 44.16 151.456C44.16 151.691 44.2293 151.893 44.368 152.064C44.5067 152.224 44.736 152.384 45.056 152.544C45.3867 152.693 45.824 152.875 46.368 153.088C46.912 153.291 47.376 153.499 47.76 153.712C48.144 153.925 48.4373 154.187 48.64 154.496C48.8427 154.795 48.944 155.173 48.944 155.632ZM50.8083 157.136C50.8083 156.741 50.9043 156.464 51.0963 156.304C51.2883 156.144 51.5176 156.064 51.7843 156.064C52.0616 156.064 52.2963 156.144 52.4883 156.304C52.6909 156.464 52.7923 156.741 52.7923 157.136C52.7923 157.52 52.6909 157.797 52.4883 157.968C52.2963 158.139 52.0616 158.224 51.7843 158.224C51.5176 158.224 51.2883 158.139 51.0963 157.968C50.9043 157.797 50.8083 157.52 50.8083 157.136Z" fill="#808080"/>
<path d="M7.448 97.68C6.84 97.68 6.29067 97.7867 5.8 98C5.30933 98.2027 4.89333 98.5067 4.552 98.912C4.21067 99.3067 3.94933 99.792 3.768 100.368C3.58667 100.933 3.496 101.573 3.496 102.288C3.496 103.227 3.64 104.043 3.928 104.736C4.22667 105.429 4.664 105.963 5.24 106.336C5.82667 106.709 6.55733 106.896 7.432 106.896C7.93333 106.896 8.408 106.853 8.856 106.768C9.304 106.683 9.74133 106.576 10.168 106.448V107.696C9.74133 107.856 9.29867 107.973 8.84 108.048C8.392 108.123 7.85333 108.16 7.224 108.16C6.06133 108.16 5.09067 107.92 4.312 107.44C3.53333 106.96 2.94667 106.277 2.552 105.392C2.168 104.507 1.976 103.467 1.976 102.272C1.976 101.408 2.09333 100.619 2.328 99.904C2.57333 99.1893 2.92533 98.5707 3.384 98.048C3.85333 97.5253 4.42933 97.1253 5.112 96.848C5.79467 96.56 6.57867 96.416 7.464 96.416C8.05067 96.416 8.616 96.4747 9.16 96.592C9.704 96.7093 10.1893 96.8747 10.616 97.088L10.04 98.304C9.688 98.144 9.29333 98 8.856 97.872C8.42933 97.744 7.96 97.68 7.448 97.68ZM15.7174 99.28C16.7627 99.28 17.536 99.5093 18.0374 99.968C18.5387 100.427 18.7894 101.157 18.7894 102.16V108H17.7654L17.4934 106.784H17.4294C17.184 107.093 16.928 107.355 16.6614 107.568C16.4054 107.771 16.1067 107.92 15.7654 108.016C15.4347 108.112 15.0294 108.16 14.5494 108.16C14.0374 108.16 13.5734 108.069 13.1574 107.888C12.752 107.707 12.432 107.429 12.1974 107.056C11.9627 106.672 11.8454 106.192 11.8454 105.616C11.8454 104.763 12.1814 104.107 12.8534 103.648C13.5254 103.179 14.56 102.923 15.9574 102.88L17.4134 102.832V102.32C17.4134 101.605 17.2587 101.109 16.9494 100.832C16.64 100.555 16.2027 100.416 15.6374 100.416C15.1894 100.416 14.7627 100.485 14.3574 100.624C13.952 100.752 13.5734 100.901 13.2214 101.072L12.7894 100.016C13.1627 99.8133 13.6054 99.6427 14.1174 99.504C14.6294 99.3547 15.1627 99.28 15.7174 99.28ZM16.1334 103.856C15.0667 103.899 14.3254 104.069 13.9094 104.368C13.504 104.667 13.3014 105.088 13.3014 105.632C13.3014 106.112 13.4454 106.464 13.7334 106.688C14.032 106.912 14.4107 107.024 14.8694 107.024C15.5947 107.024 16.1974 106.827 16.6774 106.432C17.1574 106.027 17.3974 105.408 17.3974 104.576V103.808L16.1334 103.856ZM27.0221 105.632C27.0221 106.187 26.8835 106.651 26.6061 107.024C26.3288 107.397 25.9341 107.68 25.4221 107.872C24.9101 108.064 24.3021 108.16 23.5981 108.16C23.0008 108.16 22.4835 108.112 22.0461 108.016C21.6195 107.92 21.2408 107.787 20.9101 107.616V106.336C21.2515 106.507 21.6621 106.667 22.1421 106.816C22.6328 106.955 23.1288 107.024 23.6301 107.024C24.3448 107.024 24.8621 106.912 25.1821 106.688C25.5021 106.453 25.6621 106.144 25.6621 105.76C25.6621 105.547 25.6035 105.355 25.4861 105.184C25.3688 105.013 25.1555 104.843 24.8461 104.672C24.5475 104.501 24.1155 104.309 23.5501 104.096C22.9955 103.883 22.5208 103.669 22.1261 103.456C21.7315 103.243 21.4275 102.987 21.2141 102.688C21.0008 102.389 20.8941 102.005 20.8941 101.536C20.8941 100.811 21.1875 100.251 21.7741 99.856C22.3715 99.4613 23.1501 99.264 24.1101 99.264C24.6328 99.264 25.1181 99.3173 25.5661 99.424C26.0248 99.52 26.4515 99.6587 26.8461 99.84L26.3661 100.96C26.1315 100.853 25.8808 100.763 25.6141 100.688C25.3581 100.603 25.0968 100.539 24.8301 100.496C24.5635 100.443 24.2915 100.416 24.0141 100.416C23.4381 100.416 22.9955 100.512 22.6861 100.704C22.3875 100.885 22.2381 101.136 22.2381 101.456C22.2381 101.691 22.3075 101.893 22.4461 102.064C22.5848 102.224 22.8141 102.384 23.1341 102.544C23.4648 102.693 23.9021 102.875 24.4461 103.088C24.9901 103.291 25.4541 103.499 25.8381 103.712C26.2221 103.925 26.5155 104.187 26.7181 104.496C26.9208 104.795 27.0221 105.173 27.0221 105.632ZM31.9584 107.008C32.1717 107.008 32.3904 106.992 32.6144 106.96C32.8384 106.917 33.0197 106.875 33.1584 106.832V107.904C33.009 107.979 32.7957 108.037 32.5184 108.08C32.241 108.133 31.9744 108.16 31.7184 108.16C31.2704 108.16 30.8544 108.085 30.4704 107.936C30.097 107.776 29.793 107.504 29.5584 107.12C29.3237 106.736 29.2064 106.197 29.2064 105.504V100.512H27.9904V99.84L29.2224 99.28L29.7824 97.456H30.6144V99.424H33.0944V100.512H30.6144V105.472C30.6144 105.995 30.737 106.384 30.9824 106.64C31.2384 106.885 31.5637 107.008 31.9584 107.008ZM38.8756 99.264C39.0356 99.264 39.2063 99.2747 39.3876 99.296C39.5796 99.3067 39.745 99.328 39.8836 99.36L39.7076 100.656C39.569 100.624 39.4143 100.597 39.2436 100.576C39.0836 100.555 38.929 100.544 38.7796 100.544C38.449 100.544 38.1343 100.613 37.8356 100.752C37.537 100.891 37.2703 101.088 37.0356 101.344C36.801 101.589 36.6143 101.888 36.4756 102.24C36.3476 102.592 36.2836 102.987 36.2836 103.424V108H34.8756V99.424H36.0276L36.1876 100.992H36.2516C36.433 100.672 36.6516 100.384 36.9076 100.128C37.1636 99.8613 37.457 99.6533 37.7876 99.504C38.1183 99.344 38.481 99.264 38.8756 99.264ZM48.6285 103.696C48.6285 104.411 48.5325 105.045 48.3405 105.6C48.1592 106.144 47.8925 106.608 47.5405 106.992C47.1992 107.376 46.7778 107.669 46.2765 107.872C45.7858 108.064 45.2365 108.16 44.6285 108.16C44.0632 108.16 43.5405 108.064 43.0605 107.872C42.5805 107.669 42.1645 107.376 41.8125 106.992C41.4605 106.608 41.1832 106.144 40.9805 105.6C40.7885 105.045 40.6925 104.411 40.6925 103.696C40.6925 102.747 40.8525 101.947 41.1725 101.296C41.4925 100.635 41.9512 100.133 42.5485 99.792C43.1458 99.44 43.8552 99.264 44.6765 99.264C45.4552 99.264 46.1378 99.44 46.7245 99.792C47.3218 100.133 47.7858 100.635 48.1165 101.296C48.4578 101.947 48.6285 102.747 48.6285 103.696ZM42.1485 103.696C42.1485 104.368 42.2338 104.955 42.4045 105.456C42.5858 105.947 42.8632 106.325 43.2365 106.592C43.6098 106.859 44.0845 106.992 44.6605 106.992C45.2365 106.992 45.7112 106.859 46.0845 106.592C46.4578 106.325 46.7298 105.947 46.9005 105.456C47.0818 104.955 47.1725 104.368 47.1725 103.696C47.1725 103.013 47.0818 102.432 46.9005 101.952C46.7192 101.472 46.4418 101.104 46.0685 100.848C45.7058 100.581 45.2312 100.448 44.6445 100.448C43.7698 100.448 43.1352 100.736 42.7405 101.312C42.3458 101.888 42.1485 102.683 42.1485 103.696ZM52.268 108H50.86V95.84H52.268V108ZM62.5813 108.16C61.8239 108.16 61.1466 108.005 60.5493 107.696C59.9626 107.387 59.4986 106.907 59.1573 106.256C58.8266 105.605 58.6613 104.773 58.6613 103.76C58.6613 102.704 58.8373 101.845 59.1893 101.184C59.5413 100.523 60.0159 100.037 60.6133 99.728C61.2213 99.4187 61.9093 99.264 62.6773 99.264C63.1146 99.264 63.5359 99.312 63.9413 99.408C64.3466 99.4933 64.6773 99.6 64.9333 99.728L64.5013 100.896C64.2453 100.8 63.9466 100.709 63.6053 100.624C63.2639 100.539 62.9439 100.496 62.6453 100.496C62.0693 100.496 61.5946 100.619 61.2213 100.864C60.8479 101.109 60.5706 101.472 60.3893 101.952C60.2079 102.432 60.1173 103.029 60.1173 103.744C60.1173 104.427 60.2079 105.008 60.3893 105.488C60.5706 105.968 60.8426 106.331 61.2053 106.576C61.5679 106.821 62.0213 106.944 62.5653 106.944C63.0346 106.944 63.4453 106.896 63.7973 106.8C64.1599 106.704 64.4906 106.587 64.7893 106.448V107.696C64.5013 107.845 64.1813 107.957 63.8293 108.032C63.4879 108.117 63.0719 108.16 62.5813 108.16ZM70.1408 99.264C70.8768 99.264 71.5061 99.424 72.0288 99.744C72.5621 100.064 72.9674 100.517 73.2448 101.104C73.5328 101.68 73.6768 102.357 73.6768 103.136V103.984H67.8048C67.8261 104.955 68.0714 105.696 68.5408 106.208C69.0208 106.709 69.6874 106.96 70.5408 106.96C71.0848 106.96 71.5648 106.912 71.9808 106.816C72.4074 106.709 72.8448 106.56 73.2928 106.368V107.6C72.8554 107.792 72.4234 107.931 71.9968 108.016C71.5701 108.112 71.0634 108.16 70.4768 108.16C69.6661 108.16 68.9461 107.995 68.3168 107.664C67.6981 107.333 67.2128 106.843 66.8608 106.192C66.5194 105.531 66.3488 104.725 66.3488 103.776C66.3488 102.837 66.5034 102.032 66.8128 101.36C67.1328 100.688 67.5754 100.171 68.1408 99.808C68.7168 99.4453 69.3834 99.264 70.1408 99.264ZM70.1248 100.416C69.4528 100.416 68.9194 100.635 68.5248 101.072C68.1408 101.499 67.9114 102.096 67.8368 102.864H72.2048C72.2048 102.373 72.1301 101.947 71.9808 101.584C71.8314 101.221 71.6021 100.939 71.2928 100.736C70.9941 100.523 70.6048 100.416 70.1248 100.416ZM79.86 99.264C80.02 99.264 80.1907 99.2747 80.372 99.296C80.564 99.3067 80.7293 99.328 80.868 99.36L80.692 100.656C80.5533 100.624 80.3987 100.597 80.228 100.576C80.068 100.555 79.9133 100.544 79.764 100.544C79.4333 100.544 79.1187 100.613 78.82 100.752C78.5213 100.891 78.2547 101.088 78.02 101.344C77.7853 101.589 77.5987 101.888 77.46 102.24C77.332 102.592 77.268 102.987 77.268 103.424V108H75.86V99.424H77.012L77.172 100.992H77.236C77.4173 100.672 77.636 100.384 77.892 100.128C78.148 99.8613 78.4413 99.6533 78.772 99.504C79.1027 99.344 79.4653 99.264 79.86 99.264ZM85.3334 107.008C85.5467 107.008 85.7654 106.992 85.9894 106.96C86.2134 106.917 86.3947 106.875 86.5334 106.832V107.904C86.384 107.979 86.1707 108.037 85.8934 108.08C85.616 108.133 85.3494 108.16 85.0934 108.16C84.6454 108.16 84.2294 108.085 83.8454 107.936C83.472 107.776 83.168 107.504 82.9334 107.12C82.6987 106.736 82.5814 106.197 82.5814 105.504V100.512H81.3654V99.84L82.5974 99.28L83.1574 97.456H83.9894V99.424H86.4694V100.512H83.9894V105.472C83.9894 105.995 84.112 106.384 84.3574 106.64C84.6134 106.885 84.9387 107.008 85.3334 107.008ZM89.6586 99.424V108H88.2506V99.424H89.6586ZM88.9706 96.208C89.184 96.208 89.3706 96.2827 89.5306 96.432C89.7013 96.5707 89.7866 96.7947 89.7866 97.104C89.7866 97.4027 89.7013 97.6267 89.5306 97.776C89.3706 97.9253 89.184 98 88.9706 98C88.736 98 88.5386 97.9253 88.3786 97.776C88.2186 97.6267 88.1386 97.4027 88.1386 97.104C88.1386 96.7947 88.2186 96.5707 88.3786 96.432C88.5386 96.2827 88.736 96.208 88.9706 96.208ZM96.3276 100.512H94.1676V108H92.7596V100.512H91.2556V99.856L92.7596 99.376V98.88C92.7596 98.144 92.8663 97.5467 93.0796 97.088C93.3036 96.6293 93.6236 96.2933 94.0396 96.08C94.4556 95.8667 94.957 95.76 95.5436 95.76C95.885 95.76 96.1943 95.792 96.4716 95.856C96.7596 95.9093 97.005 95.9733 97.2076 96.048L96.8396 97.152C96.669 97.0987 96.4716 97.0453 96.2476 96.992C96.0236 96.9387 95.7943 96.912 95.5596 96.912C95.0903 96.912 94.7383 97.072 94.5036 97.392C94.2796 97.7013 94.1676 98.192 94.1676 98.864V99.424H96.3276V100.512ZM99.2876 99.424V108H97.8796V99.424H99.2876ZM98.5996 96.208C98.813 96.208 98.9996 96.2827 99.1596 96.432C99.3303 96.5707 99.4156 96.7947 99.4156 97.104C99.4156 97.4027 99.3303 97.6267 99.1596 97.776C98.9996 97.9253 98.813 98 98.5996 98C98.365 98 98.1676 97.9253 98.0076 97.776C97.8476 97.6267 97.7676 97.4027 97.7676 97.104C97.7676 96.7947 97.8476 96.5707 98.0076 96.432C98.1676 96.2827 98.365 96.208 98.5996 96.208ZM105.313 99.264C106.049 99.264 106.678 99.424 107.201 99.744C107.734 100.064 108.139 100.517 108.417 101.104C108.705 101.68 108.849 102.357 108.849 103.136V103.984H102.977C102.998 104.955 103.243 105.696 103.713 106.208C104.193 106.709 104.859 106.96 105.713 106.96C106.257 106.96 106.737 106.912 107.153 106.816C107.579 106.709 108.017 106.56 108.465 106.368V107.6C108.027 107.792 107.595 107.931 107.169 108.016C106.742 108.112 106.235 108.16 105.649 108.16C104.838 108.16 104.118 107.995 103.489 107.664C102.87 107.333 102.385 106.843 102.033 106.192C101.691 105.531 101.521 104.725 101.521 103.776C101.521 102.837 101.675 102.032 101.985 101.36C102.305 100.688 102.747 100.171 103.313 99.808C103.889 99.4453 104.555 99.264 105.313 99.264ZM105.297 100.416C104.625 100.416 104.091 100.635 103.697 101.072C103.313 101.499 103.083 102.096 103.009 102.864H107.377C107.377 102.373 107.302 101.947 107.153 101.584C107.003 101.221 106.774 100.939 106.465 100.736C106.166 100.523 105.777 100.416 105.297 100.416ZM114.072 108.16C113.005 108.16 112.152 107.792 111.512 107.056C110.872 106.309 110.552 105.2 110.552 103.728C110.552 102.256 110.872 101.147 111.512 100.4C112.163 99.6427 113.021 99.264 114.088 99.264C114.536 99.264 114.925 99.3227 115.256 99.44C115.587 99.5467 115.875 99.696 116.12 99.888C116.365 100.08 116.573 100.293 116.744 100.528H116.84C116.829 100.389 116.808 100.187 116.776 99.92C116.755 99.6427 116.744 99.424 116.744 99.264V95.84H118.152V108H117.016L116.808 106.848H116.744C116.573 107.093 116.365 107.317 116.12 107.52C115.875 107.712 115.581 107.867 115.24 107.984C114.909 108.101 114.52 108.16 114.072 108.16ZM114.296 106.992C115.203 106.992 115.837 106.747 116.2 106.256C116.573 105.755 116.76 105.003 116.76 104V103.744C116.76 102.677 116.584 101.861 116.232 101.296C115.88 100.72 115.229 100.432 114.28 100.432C113.523 100.432 112.952 100.736 112.568 101.344C112.195 101.941 112.008 102.747 112.008 103.76C112.008 104.784 112.195 105.579 112.568 106.144C112.952 106.709 113.528 106.992 114.296 106.992ZM7.896 128.152C7.832 127.928 7.768 127.709 7.704 127.496C7.64 127.272 7.58133 127.064 7.528 126.872C7.48533 126.669 7.44267 126.483 7.4 126.312C7.35733 126.141 7.32533 125.997 7.304 125.88H7.24C7.21867 125.997 7.18667 126.141 7.144 126.312C7.112 126.483 7.06933 126.669 7.016 126.872C6.97333 127.075 6.92 127.288 6.856 127.512C6.80267 127.725 6.73867 127.944 6.664 128.168L5.128 132.984H3.528L1.176 124.408H2.632L3.816 128.984C3.90133 129.293 3.98133 129.608 4.056 129.928C4.13067 130.237 4.19467 130.536 4.248 130.824C4.312 131.101 4.35467 131.341 4.376 131.544H4.44C4.472 131.416 4.50933 131.256 4.552 131.064C4.59467 130.872 4.63733 130.669 4.68 130.456C4.73333 130.243 4.78667 130.029 4.84 129.816C4.904 129.603 4.96267 129.411 5.016 129.24L6.536 124.408H8.072L9.544 129.24C9.61867 129.485 9.69333 129.747 9.768 130.024C9.85333 130.301 9.928 130.573 9.992 130.84C10.056 131.096 10.0987 131.325 10.12 131.528H10.184C10.2053 131.347 10.2427 131.123 10.296 130.856C10.36 130.579 10.4293 130.28 10.504 129.96C10.5893 129.629 10.6747 129.304 10.76 128.984L11.96 124.408H13.4L11.016 132.984H9.368L7.896 128.152ZM22.3941 128.696C22.3941 129.411 22.2981 130.045 22.1061 130.6C21.9248 131.144 21.6581 131.608 21.3061 131.992C20.9648 132.376 20.5435 132.669 20.0421 132.872C19.5515 133.064 19.0021 133.16 18.3941 133.16C17.8288 133.16 17.3061 133.064 16.8261 132.872C16.3461 132.669 15.9301 132.376 15.5781 131.992C15.2261 131.608 14.9488 131.144 14.7461 130.6C14.5541 130.045 14.4581 129.411 14.4581 128.696C14.4581 127.747 14.6181 126.947 14.9381 126.296C15.2581 125.635 15.7168 125.133 16.3141 124.792C16.9115 124.44 17.6208 124.264 18.4421 124.264C19.2208 124.264 19.9035 124.44 20.4901 124.792C21.0875 125.133 21.5515 125.635 21.8821 126.296C22.2235 126.947 22.3941 127.747 22.3941 128.696ZM15.9141 128.696C15.9141 129.368 15.9995 129.955 16.1701 130.456C16.3515 130.947 16.6288 131.325 17.0021 131.592C17.3755 131.859 17.8501 131.992 18.4261 131.992C19.0021 131.992 19.4768 131.859 19.8501 131.592C20.2235 131.325 20.4955 130.947 20.6661 130.456C20.8475 129.955 20.9381 129.368 20.9381 128.696C20.9381 128.013 20.8475 127.432 20.6661 126.952C20.4848 126.472 20.2075 126.104 19.8341 125.848C19.4715 125.581 18.9968 125.448 18.4101 125.448C17.5355 125.448 16.9008 125.736 16.5061 126.312C16.1115 126.888 15.9141 127.683 15.9141 128.696ZM28.6256 124.264C28.7856 124.264 28.9563 124.275 29.1376 124.296C29.3296 124.307 29.495 124.328 29.6336 124.36L29.4576 125.656C29.319 125.624 29.1643 125.597 28.9936 125.576C28.8336 125.555 28.679 125.544 28.5296 125.544C28.199 125.544 27.8843 125.613 27.5856 125.752C27.287 125.891 27.0203 126.088 26.7856 126.344C26.551 126.589 26.3643 126.888 26.2256 127.24C26.0976 127.592 26.0336 127.987 26.0336 128.424V133H24.6256V124.424H25.7776L25.9376 125.992H26.0016C26.183 125.672 26.4016 125.384 26.6576 125.128C26.9136 124.861 27.207 124.653 27.5376 124.504C27.8683 124.344 28.231 124.264 28.6256 124.264ZM32.627 127.192C32.627 127.363 32.6163 127.587 32.595 127.864C32.5843 128.141 32.5737 128.381 32.563 128.584H32.627C32.691 128.499 32.787 128.376 32.915 128.216C33.043 128.056 33.171 127.896 33.299 127.736C33.4377 127.565 33.555 127.427 33.651 127.32L36.387 124.424H38.035L34.563 128.088L38.275 133H36.579L33.603 129L32.627 129.848V133H31.235V120.84H32.627V127.192ZM45.3659 130.632C45.3659 131.187 45.2272 131.651 44.9499 132.024C44.6725 132.397 44.2779 132.68 43.7659 132.872C43.2539 133.064 42.6459 133.16 41.9419 133.16C41.3445 133.16 40.8272 133.112 40.3899 133.016C39.9632 132.92 39.5845 132.787 39.2539 132.616V131.336C39.5952 131.507 40.0059 131.667 40.4859 131.816C40.9765 131.955 41.4725 132.024 41.9739 132.024C42.6885 132.024 43.2059 131.912 43.5259 131.688C43.8459 131.453 44.0059 131.144 44.0059 130.76C44.0059 130.547 43.9472 130.355 43.8299 130.184C43.7125 130.013 43.4992 129.843 43.1899 129.672C42.8912 129.501 42.4592 129.309 41.8939 129.096C41.3392 128.883 40.8645 128.669 40.4699 128.456C40.0752 128.243 39.7712 127.987 39.5579 127.688C39.3445 127.389 39.2379 127.005 39.2379 126.536C39.2379 125.811 39.5312 125.251 40.1179 124.856C40.7152 124.461 41.4939 124.264 42.4539 124.264C42.9765 124.264 43.4619 124.317 43.9099 124.424C44.3685 124.52 44.7952 124.659 45.1899 124.84L44.7099 125.96C44.4752 125.853 44.2245 125.763 43.9579 125.688C43.7019 125.603 43.4405 125.539 43.1739 125.496C42.9072 125.443 42.6352 125.416 42.3579 125.416C41.7819 125.416 41.3392 125.512 41.0299 125.704C40.7312 125.885 40.5819 126.136 40.5819 126.456C40.5819 126.691 40.6512 126.893 40.7899 127.064C40.9285 127.224 41.1579 127.384 41.4779 127.544C41.8085 127.693 42.2459 127.875 42.7899 128.088C43.3339 128.291 43.7979 128.499 44.1819 128.712C44.5659 128.925 44.8592 129.187 45.0619 129.496C45.2645 129.795 45.3659 130.173 45.3659 130.632ZM48.8461 124.408C48.8461 124.611 48.8355 124.819 48.8141 125.032C48.8035 125.245 48.7875 125.437 48.7661 125.608H48.8621C49.0435 125.309 49.2728 125.064 49.5501 124.872C49.8275 124.68 50.1368 124.536 50.4781 124.44C50.8195 124.333 51.1715 124.28 51.5341 124.28C52.2275 124.28 52.8035 124.392 53.2621 124.616C53.7315 124.829 54.0835 125.165 54.3181 125.624C54.5528 126.083 54.6701 126.68 54.6701 127.416V133H53.2781V127.512C53.2781 126.819 53.1235 126.301 52.8141 125.96C52.5048 125.619 52.0195 125.448 51.3581 125.448C50.7181 125.448 50.2168 125.571 49.8541 125.816C49.4915 126.051 49.2301 126.403 49.0701 126.872C48.9208 127.331 48.8461 127.896 48.8461 128.568V133H47.4381V120.84H48.8461V124.408ZM64.7847 128.696C64.7847 129.411 64.6888 130.045 64.4968 130.6C64.3154 131.144 64.0488 131.608 63.6968 131.992C63.3554 132.376 62.9341 132.669 62.4328 132.872C61.9421 133.064 61.3928 133.16 60.7848 133.16C60.2194 133.16 59.6968 133.064 59.2168 132.872C58.7368 132.669 58.3208 132.376 57.9688 131.992C57.6168 131.608 57.3394 131.144 57.1368 130.6C56.9448 130.045 56.8488 129.411 56.8488 128.696C56.8488 127.747 57.0088 126.947 57.3288 126.296C57.6488 125.635 58.1074 125.133 58.7048 124.792C59.3021 124.44 60.0114 124.264 60.8328 124.264C61.6114 124.264 62.2941 124.44 62.8808 124.792C63.4781 125.133 63.9421 125.635 64.2728 126.296C64.6141 126.947 64.7847 127.747 64.7847 128.696ZM58.3048 128.696C58.3048 129.368 58.3901 129.955 58.5608 130.456C58.7421 130.947 59.0194 131.325 59.3928 131.592C59.7661 131.859 60.2408 131.992 60.8168 131.992C61.3928 131.992 61.8674 131.859 62.2408 131.592C62.6141 131.325 62.8861 130.947 63.0568 130.456C63.2381 129.955 63.3288 129.368 63.3288 128.696C63.3288 128.013 63.2381 127.432 63.0568 126.952C62.8754 126.472 62.5981 126.104 62.2248 125.848C61.8621 125.581 61.3874 125.448 60.8008 125.448C59.9261 125.448 59.2914 125.736 58.8968 126.312C58.5021 126.888 58.3048 127.683 58.3048 128.696ZM71.0963 124.264C72.1523 124.264 73.0003 124.632 73.6403 125.368C74.2909 126.104 74.6163 127.213 74.6163 128.696C74.6163 129.667 74.4669 130.488 74.1683 131.16C73.8802 131.821 73.4696 132.323 72.9363 132.664C72.4136 132.995 71.7949 133.16 71.0803 133.16C70.6429 133.16 70.2536 133.101 69.9123 132.984C69.5709 132.867 69.2776 132.717 69.0323 132.536C68.7976 132.344 68.5949 132.136 68.4243 131.912H68.3283C68.3496 132.093 68.3709 132.323 68.3923 132.6C68.4136 132.877 68.4243 133.117 68.4243 133.32V136.84H67.0163V124.424H68.1683L68.3603 125.592H68.4243C68.5949 125.347 68.7976 125.123 69.0323 124.92C69.2776 124.717 69.5656 124.557 69.8963 124.44C70.2376 124.323 70.6376 124.264 71.0963 124.264ZM70.8403 125.448C70.2643 125.448 69.8003 125.56 69.4483 125.784C69.0963 125.997 68.8403 126.323 68.6803 126.76C68.5203 127.197 68.4349 127.752 68.4243 128.424V128.696C68.4243 129.4 68.4989 129.997 68.6483 130.488C68.7976 130.979 69.0483 131.352 69.4003 131.608C69.7629 131.864 70.2536 131.992 70.8723 131.992C71.3949 131.992 71.8216 131.848 72.1523 131.56C72.4936 131.272 72.7443 130.883 72.9043 130.392C73.0749 129.891 73.1603 129.32 73.1603 128.68C73.1603 127.699 72.9683 126.915 72.5843 126.328C72.2109 125.741 71.6296 125.448 70.8403 125.448ZM82.444 130.632C82.444 131.187 82.3053 131.651 82.028 132.024C81.7507 132.397 81.356 132.68 80.844 132.872C80.332 133.064 79.724 133.16 79.02 133.16C78.4227 133.16 77.9053 133.112 77.468 133.016C77.0413 132.92 76.6627 132.787 76.332 132.616V131.336C76.6733 131.507 77.084 131.667 77.564 131.816C78.0547 131.955 78.5507 132.024 79.052 132.024C79.7667 132.024 80.284 131.912 80.604 131.688C80.924 131.453 81.084 131.144 81.084 130.76C81.084 130.547 81.0253 130.355 80.908 130.184C80.7907 130.013 80.5773 129.843 80.268 129.672C79.9693 129.501 79.5373 129.309 78.972 129.096C78.4173 128.883 77.9427 128.669 77.548 128.456C77.1533 128.243 76.8493 127.987 76.636 127.688C76.4227 127.389 76.316 127.005 76.316 126.536C76.316 125.811 76.6093 125.251 77.196 124.856C77.7933 124.461 78.572 124.264 79.532 124.264C80.0547 124.264 80.54 124.317 80.988 124.424C81.4467 124.52 81.8733 124.659 82.268 124.84L81.788 125.96C81.5533 125.853 81.3027 125.763 81.036 125.688C80.78 125.603 80.5187 125.539 80.252 125.496C79.9853 125.443 79.7133 125.416 79.436 125.416C78.86 125.416 78.4173 125.512 78.108 125.704C77.8093 125.885 77.66 126.136 77.66 126.456C77.66 126.691 77.7293 126.893 77.868 127.064C78.0067 127.224 78.236 127.384 78.556 127.544C78.8867 127.693 79.324 127.875 79.868 128.088C80.412 128.291 80.876 128.499 81.26 128.712C81.644 128.925 81.9373 129.187 82.14 129.496C82.3427 129.795 82.444 130.173 82.444 130.632Z" fill="#009900"/>
</g>
<defs>
<clipPath id="clip0_892_183">
<rect width="335" height="191" fill="white" transform="translate(-0.5)"/>
</clipPath>
</defs>
</svg>
