<svg width="560" height="297" viewBox="0 0 560 297" fill="none" xmlns="http://www.w3.org/2000/svg">
<path d="M11.87 83.5L5.28998 65.972H5.17798C5.21532 66.3453 5.24332 66.8213 5.26198 67.4C5.29932 67.9787 5.32732 68.6133 5.34598 69.304C5.36465 69.976 5.37398 70.6667 5.37398 71.376V83.5H3.04998V63.508H6.77398L12.934 79.888H13.046L19.318 63.508H23.014V83.5H20.522V71.208C20.522 70.5547 20.5313 69.9107 20.55 69.276C20.5687 68.6227 20.5967 68.016 20.634 67.456C20.6713 66.8773 20.6993 66.392 20.718 66H20.606L13.942 83.5H11.87ZM41.1643 75.968C41.1643 77.2187 40.9963 78.3293 40.6603 79.3C40.343 80.252 39.8763 81.064 39.2603 81.736C38.663 82.408 37.9257 82.9213 37.0483 83.276C36.1897 83.612 35.2283 83.78 34.1643 83.78C33.175 83.78 32.2603 83.612 31.4203 83.276C30.5803 82.9213 29.8523 82.408 29.2363 81.736C28.6203 81.064 28.135 80.252 27.7803 79.3C27.4443 78.3293 27.2763 77.2187 27.2763 75.968C27.2763 74.3067 27.5563 72.9067 28.1163 71.768C28.6763 70.6107 29.479 69.7333 30.5243 69.136C31.5697 68.52 32.811 68.212 34.2483 68.212C35.611 68.212 36.8057 68.52 37.8323 69.136C38.8777 69.7333 39.6897 70.6107 40.2683 71.768C40.8657 72.9067 41.1643 74.3067 41.1643 75.968ZM29.8243 75.968C29.8243 77.144 29.9737 78.1707 30.2723 79.048C30.5897 79.9067 31.075 80.5693 31.7283 81.036C32.3817 81.5027 33.2123 81.736 34.2203 81.736C35.2283 81.736 36.059 81.5027 36.7123 81.036C37.3657 80.5693 37.8417 79.9067 38.1403 79.048C38.4577 78.1707 38.6163 77.144 38.6163 75.968C38.6163 74.7733 38.4577 73.756 38.1403 72.916C37.823 72.076 37.3377 71.432 36.6843 70.984C36.0497 70.5173 35.219 70.284 34.1923 70.284C32.6617 70.284 31.551 70.788 30.8603 71.796C30.1697 72.804 29.8243 74.1947 29.8243 75.968ZM52.0695 68.212C52.3495 68.212 52.6481 68.2307 52.9655 68.268C53.3015 68.2867 53.5908 68.324 53.8335 68.38L53.5255 70.648C53.2828 70.592 53.0121 70.5453 52.7135 70.508C52.4335 70.4707 52.1628 70.452 51.9015 70.452C51.3228 70.452 50.7721 70.5733 50.2495 70.816C49.7268 71.0587 49.2601 71.404 48.8495 71.852C48.4388 72.2813 48.1121 72.804 47.8695 73.42C47.6455 74.036 47.5335 74.7267 47.5335 75.492V83.5H45.0695V68.492H47.0855L47.3655 71.236H47.4775C47.7948 70.676 48.1775 70.172 48.6255 69.724C49.0735 69.2573 49.5868 68.8933 50.1655 68.632C50.7441 68.352 51.3788 68.212 52.0695 68.212ZM61.885 68.212C63.173 68.212 64.2743 68.492 65.189 69.052C66.1223 69.612 66.8317 70.4053 67.317 71.432C67.821 72.44 68.073 73.6253 68.073 74.988V76.472H57.797C57.8343 78.1707 58.2637 79.468 59.085 80.364C59.925 81.2413 61.0917 81.68 62.585 81.68C63.537 81.68 64.377 81.596 65.105 81.428C65.8517 81.2413 66.617 80.98 67.401 80.644V82.8C66.6357 83.136 65.8797 83.3787 65.133 83.528C64.3863 83.696 63.4997 83.78 62.473 83.78C61.0543 83.78 59.7943 83.4907 58.693 82.912C57.6103 82.3333 56.761 81.4747 56.145 80.336C55.5477 79.1787 55.249 77.7693 55.249 76.108C55.249 74.4653 55.5197 73.056 56.061 71.88C56.621 70.704 57.3957 69.7987 58.385 69.164C59.393 68.5293 60.5597 68.212 61.885 68.212ZM61.857 70.228C60.681 70.228 59.7477 70.6107 59.057 71.376C58.385 72.1227 57.9837 73.168 57.853 74.512H65.497C65.497 73.6533 65.3663 72.9067 65.105 72.272C64.8437 71.6373 64.4423 71.1427 63.901 70.788C63.3783 70.4147 62.697 70.228 61.857 70.228ZM84.1791 81.764C84.5524 81.764 84.9351 81.736 85.3271 81.68C85.7191 81.6053 86.0364 81.5307 86.2791 81.456V83.332C86.0178 83.4627 85.6444 83.5653 85.1591 83.64C84.6738 83.7333 84.2071 83.78 83.7591 83.78C82.9751 83.78 82.2471 83.6493 81.5751 83.388C80.9218 83.108 80.3898 82.632 79.9791 81.96C79.5684 81.288 79.3631 80.3453 79.3631 79.132V70.396H77.2351V69.22L79.3911 68.24L80.3711 65.048H81.8271V68.492H86.1671V70.396H81.8271V79.076C81.8271 79.9907 82.0418 80.672 82.4711 81.12C82.9191 81.5493 83.4884 81.764 84.1791 81.764ZM91.7483 68.464C91.7483 68.8187 91.7296 69.1827 91.6923 69.556C91.6736 69.9293 91.6456 70.2653 91.6083 70.564H91.7763C92.0936 70.0413 92.495 69.612 92.9803 69.276C93.4656 68.94 94.007 68.688 94.6043 68.52C95.2016 68.3333 95.8176 68.24 96.4523 68.24C97.6656 68.24 98.6736 68.436 99.4763 68.828C100.298 69.2013 100.914 69.7893 101.324 70.592C101.735 71.3947 101.94 72.44 101.94 73.728V83.5H99.5043V73.896C99.5043 72.6827 99.2336 71.7773 98.6923 71.18C98.151 70.5827 97.3016 70.284 96.1443 70.284C95.0243 70.284 94.147 70.4987 93.5123 70.928C92.8776 71.3387 92.4203 71.9547 92.1403 72.776C91.879 73.5787 91.7483 74.568 91.7483 75.744V83.5H89.2843V62.22H91.7483V68.464ZM112.277 68.24C114.106 68.24 115.46 68.6413 116.337 69.444C117.214 70.2467 117.653 71.5253 117.653 73.28V83.5H115.861L115.385 81.372H115.273C114.844 81.9133 114.396 82.3707 113.929 82.744C113.481 83.0987 112.958 83.36 112.361 83.528C111.782 83.696 111.073 83.78 110.233 83.78C109.337 83.78 108.525 83.6213 107.797 83.304C107.088 82.9867 106.528 82.5013 106.117 81.848C105.706 81.176 105.501 80.336 105.501 79.328C105.501 77.8347 106.089 76.6867 107.265 75.884C108.441 75.0627 110.252 74.6147 112.697 74.54L115.245 74.456V73.56C115.245 72.3093 114.974 71.4413 114.433 70.956C113.892 70.4707 113.126 70.228 112.137 70.228C111.353 70.228 110.606 70.3493 109.897 70.592C109.188 70.816 108.525 71.0773 107.909 71.376L107.153 69.528C107.806 69.1733 108.581 68.8747 109.477 68.632C110.373 68.3707 111.306 68.24 112.277 68.24ZM113.005 76.248C111.138 76.3227 109.841 76.6213 109.113 77.144C108.404 77.6667 108.049 78.404 108.049 79.356C108.049 80.196 108.301 80.812 108.805 81.204C109.328 81.596 109.99 81.792 110.793 81.792C112.062 81.792 113.117 81.4467 113.957 80.756C114.797 80.0467 115.217 78.964 115.217 77.508V76.164L113.005 76.248ZM129.512 68.212C131.304 68.212 132.658 68.6507 133.572 69.528C134.487 70.3867 134.944 71.7867 134.944 73.728V83.5H132.508V73.896C132.508 72.6827 132.238 71.7773 131.696 71.18C131.155 70.5827 130.306 70.284 129.148 70.284C127.487 70.284 126.339 70.7507 125.704 71.684C125.07 72.6173 124.752 73.9613 124.752 75.716V83.5H122.288V68.492H124.276L124.64 70.536H124.78C125.116 70.0133 125.527 69.584 126.012 69.248C126.516 68.8933 127.067 68.632 127.664 68.464C128.262 68.296 128.878 68.212 129.512 68.212ZM146.03 74.96C146.03 73.8027 146.105 72.664 146.254 71.544C146.422 70.424 146.702 69.3693 147.094 68.38C147.486 67.372 148.028 66.4853 148.718 65.72C149.409 64.936 150.277 64.3293 151.322 63.9C152.386 63.452 153.674 63.228 155.186 63.228C155.578 63.228 156.008 63.2467 156.474 63.284C156.96 63.3213 157.352 63.3867 157.65 63.48V65.58C157.314 65.468 156.932 65.384 156.502 65.328C156.092 65.272 155.672 65.244 155.242 65.244C153.954 65.244 152.881 65.4587 152.022 65.888C151.164 66.3173 150.482 66.9053 149.978 67.652C149.493 68.3987 149.138 69.2573 148.914 70.228C148.69 71.1987 148.55 72.2347 148.494 73.336H148.662C148.942 72.888 149.297 72.4867 149.726 72.132C150.156 71.7773 150.669 71.4973 151.266 71.292C151.882 71.0867 152.592 70.984 153.394 70.984C154.552 70.984 155.56 71.2267 156.418 71.712C157.296 72.1787 157.977 72.8693 158.462 73.784C158.948 74.68 159.19 75.772 159.19 77.06C159.19 78.4413 158.929 79.636 158.406 80.644C157.884 81.652 157.146 82.4267 156.194 82.968C155.261 83.5093 154.141 83.78 152.834 83.78C151.882 83.78 150.996 83.6027 150.174 83.248C149.353 82.8933 148.625 82.352 147.99 81.624C147.374 80.896 146.889 79.9813 146.534 78.88C146.198 77.76 146.03 76.4533 146.03 74.96ZM152.806 81.708C153.982 81.708 154.934 81.3347 155.662 80.588C156.39 79.8227 156.754 78.6467 156.754 77.06C156.754 75.7907 156.428 74.7827 155.774 74.036C155.14 73.2893 154.178 72.916 152.89 72.916C152.013 72.916 151.248 73.1027 150.594 73.476C149.941 73.8307 149.428 74.288 149.054 74.848C148.7 75.408 148.522 75.9867 148.522 76.584C148.522 77.2 148.606 77.8067 148.774 78.404C148.961 79.0013 149.232 79.552 149.586 80.056C149.96 80.56 150.408 80.9613 150.93 81.26C151.472 81.5587 152.097 81.708 152.806 81.708ZM175.158 73.476C175.158 75.1 175.036 76.5467 174.794 77.816C174.551 79.0853 174.159 80.168 173.618 81.064C173.095 81.9413 172.404 82.6133 171.546 83.08C170.706 83.5467 169.688 83.78 168.494 83.78C167 83.78 165.759 83.3693 164.77 82.548C163.799 81.7267 163.071 80.5507 162.586 79.02C162.119 77.4707 161.886 75.6227 161.886 73.476C161.886 71.3107 162.1 69.4627 162.53 67.932C162.978 66.4013 163.687 65.2347 164.658 64.432C165.628 63.6107 166.907 63.2 168.494 63.2C169.987 63.2 171.228 63.6107 172.218 64.432C173.207 65.2347 173.944 66.4013 174.43 67.932C174.915 69.4627 175.158 71.3107 175.158 73.476ZM164.35 73.476C164.35 75.3053 164.48 76.8267 164.742 78.04C165.022 79.2533 165.46 80.168 166.058 80.784C166.674 81.3813 167.486 81.68 168.494 81.68C169.502 81.68 170.304 81.3813 170.902 80.784C171.518 80.1867 171.966 79.2813 172.246 78.068C172.526 76.836 172.666 75.3053 172.666 73.476C172.666 71.6467 172.526 70.1347 172.246 68.94C171.966 67.7267 171.518 66.8213 170.902 66.224C170.304 65.608 169.502 65.3 168.494 65.3C167.486 65.3 166.674 65.608 166.058 66.224C165.46 66.8213 165.022 67.7267 164.742 68.94C164.48 70.1347 164.35 71.6467 164.35 73.476ZM181.997 63.228C183.378 63.228 184.424 63.7787 185.133 64.88C185.842 65.9627 186.197 67.4933 186.197 69.472C186.197 71.4507 185.852 73 185.161 74.12C184.489 75.2213 183.434 75.772 181.997 75.772C181.12 75.772 180.373 75.52 179.757 75.016C179.141 74.512 178.674 73.7933 178.357 72.86C178.058 71.908 177.909 70.7787 177.909 69.472C177.909 67.4933 178.236 65.9627 178.889 64.88C179.542 63.7787 180.578 63.228 181.997 63.228ZM181.997 64.964C181.288 64.964 180.765 65.3467 180.429 66.112C180.112 66.8587 179.953 67.9787 179.953 69.472C179.953 70.9653 180.112 72.0947 180.429 72.86C180.765 73.6253 181.288 74.008 181.997 74.008C182.725 74.008 183.266 73.6347 183.621 72.888C183.976 72.1227 184.153 70.984 184.153 69.472C184.153 67.9787 183.976 66.8587 183.621 66.112C183.266 65.3467 182.725 64.964 181.997 64.964ZM194.793 63.508L183.705 83.5H181.549L192.637 63.508H194.793ZM194.233 71.236C195.148 71.236 195.913 71.488 196.529 71.992C197.145 72.4773 197.612 73.1867 197.929 74.12C198.265 75.0347 198.433 76.1547 198.433 77.48C198.433 79.4587 198.088 81.008 197.397 82.128C196.725 83.2293 195.67 83.78 194.233 83.78C193.356 83.78 192.609 83.528 191.993 83.024C191.377 82.52 190.91 81.8013 190.593 80.868C190.294 79.916 190.145 78.7867 190.145 77.48C190.145 75.5013 190.472 73.9707 191.125 72.888C191.778 71.7867 192.814 71.236 194.233 71.236ZM194.233 73C193.524 73 193.001 73.3733 192.665 74.12C192.348 74.8667 192.189 75.9867 192.189 77.48C192.189 78.992 192.348 80.1307 192.665 80.896C193.001 81.6427 193.524 82.016 194.233 82.016C194.961 82.016 195.502 81.6427 195.857 80.896C196.212 80.1493 196.389 79.0107 196.389 77.48C196.389 75.9867 196.212 74.8667 195.857 74.12C195.502 73.3733 194.961 73 194.233 73ZM222.508 75.968C222.508 77.2187 222.34 78.3293 222.004 79.3C221.687 80.252 221.22 81.064 220.604 81.736C220.007 82.408 219.269 82.9213 218.392 83.276C217.533 83.612 216.572 83.78 215.508 83.78C214.519 83.78 213.604 83.612 212.764 83.276C211.924 82.9213 211.196 82.408 210.58 81.736C209.964 81.064 209.479 80.252 209.124 79.3C208.788 78.3293 208.62 77.2187 208.62 75.968C208.62 74.3067 208.9 72.9067 209.46 71.768C210.02 70.6107 210.823 69.7333 211.868 69.136C212.913 68.52 214.155 68.212 215.592 68.212C216.955 68.212 218.149 68.52 219.176 69.136C220.221 69.7333 221.033 70.6107 221.612 71.768C222.209 72.9067 222.508 74.3067 222.508 75.968ZM211.168 75.968C211.168 77.144 211.317 78.1707 211.616 79.048C211.933 79.9067 212.419 80.5693 213.072 81.036C213.725 81.5027 214.556 81.736 215.564 81.736C216.572 81.736 217.403 81.5027 218.056 81.036C218.709 80.5693 219.185 79.9067 219.484 79.048C219.801 78.1707 219.96 77.144 219.96 75.968C219.96 74.7733 219.801 73.756 219.484 72.916C219.167 72.076 218.681 71.432 218.028 70.984C217.393 70.5173 216.563 70.284 215.536 70.284C214.005 70.284 212.895 70.788 212.204 71.796C211.513 72.804 211.168 74.1947 211.168 75.968ZM233.329 70.396H229.549V83.5H227.085V70.396H224.453V69.248L227.085 68.408V67.54C227.085 66.252 227.272 65.2067 227.645 64.404C228.037 63.6013 228.597 63.0133 229.325 62.64C230.053 62.2667 230.931 62.08 231.957 62.08C232.555 62.08 233.096 62.136 233.581 62.248C234.085 62.3413 234.515 62.4533 234.869 62.584L234.225 64.516C233.927 64.4227 233.581 64.3293 233.189 64.236C232.797 64.1427 232.396 64.096 231.985 64.096C231.164 64.096 230.548 64.376 230.137 64.936C229.745 65.4773 229.549 66.336 229.549 67.512V68.492H233.329V70.396ZM8.73398 121.78C7.40865 121.78 6.22332 121.509 5.17798 120.968C4.15132 120.427 3.33932 119.587 2.74198 118.448C2.16332 117.309 1.87398 115.853 1.87398 114.08C1.87398 112.232 2.18198 110.729 2.79798 109.572C3.41398 108.415 4.24465 107.565 5.28998 107.024C6.35398 106.483 7.55798 106.212 8.90199 106.212C9.66732 106.212 10.4047 106.296 11.114 106.464C11.8233 106.613 12.402 106.8 12.85 107.024L12.094 109.068C11.646 108.9 11.1233 108.741 10.526 108.592C9.92865 108.443 9.36865 108.368 8.84598 108.368C7.83798 108.368 7.00732 108.583 6.35398 109.012C5.70065 109.441 5.21532 110.076 4.89798 110.916C4.58065 111.756 4.42198 112.801 4.42198 114.052C4.42198 115.247 4.58065 116.264 4.89798 117.104C5.21532 117.944 5.69132 118.579 6.32598 119.008C6.96065 119.437 7.75398 119.652 8.70599 119.652C9.52732 119.652 10.246 119.568 10.862 119.4C11.4967 119.232 12.0753 119.027 12.598 118.784V120.968C12.094 121.229 11.534 121.425 10.918 121.556C10.3207 121.705 9.59265 121.78 8.73398 121.78ZM28.7111 106.492V121.5H26.6951L26.3311 119.512H26.2191C25.9018 120.035 25.4911 120.464 24.9871 120.8C24.4831 121.136 23.9324 121.379 23.3351 121.528C22.7378 121.696 22.1124 121.78 21.4591 121.78C20.2644 121.78 19.2564 121.593 18.4351 121.22C17.6324 120.828 17.0258 120.231 16.6151 119.428C16.2044 118.625 15.9991 117.589 15.9991 116.32V106.492H18.4911V116.152C18.4911 117.347 18.7618 118.243 19.3031 118.84C19.8444 119.437 20.6844 119.736 21.8231 119.736C22.9431 119.736 23.8204 119.531 24.4551 119.12C25.1084 118.691 25.5658 118.075 25.8271 117.272C26.1071 116.451 26.2471 115.461 26.2471 114.304V106.492H28.7111ZM43.2477 117.356C43.2477 118.327 43.005 119.139 42.5197 119.792C42.0344 120.445 41.3437 120.94 40.4477 121.276C39.5517 121.612 38.4877 121.78 37.2557 121.78C36.2104 121.78 35.305 121.696 34.5397 121.528C33.793 121.36 33.1304 121.127 32.5517 120.828V118.588C33.149 118.887 33.8677 119.167 34.7077 119.428C35.5664 119.671 36.4344 119.792 37.3117 119.792C38.5624 119.792 39.4677 119.596 40.0277 119.204C40.5877 118.793 40.8677 118.252 40.8677 117.58C40.8677 117.207 40.765 116.871 40.5597 116.572C40.3544 116.273 39.981 115.975 39.4397 115.676C38.917 115.377 38.161 115.041 37.1717 114.668C36.201 114.295 35.3704 113.921 34.6797 113.548C33.989 113.175 33.457 112.727 33.0837 112.204C32.7104 111.681 32.5237 111.009 32.5237 110.188C32.5237 108.919 33.037 107.939 34.0637 107.248C35.109 106.557 36.4717 106.212 38.1517 106.212C39.0664 106.212 39.9157 106.305 40.6997 106.492C41.5024 106.66 42.249 106.903 42.9397 107.22L42.0997 109.18C41.689 108.993 41.2504 108.835 40.7837 108.704C40.3357 108.555 39.8784 108.443 39.4117 108.368C38.945 108.275 38.469 108.228 37.9837 108.228C36.9757 108.228 36.201 108.396 35.6597 108.732C35.137 109.049 34.8757 109.488 34.8757 110.048C34.8757 110.459 34.997 110.813 35.2397 111.112C35.4824 111.392 35.8837 111.672 36.4437 111.952C37.0224 112.213 37.7877 112.531 38.7397 112.904C39.6917 113.259 40.5037 113.623 41.1757 113.996C41.8477 114.369 42.361 114.827 42.7157 115.368C43.0704 115.891 43.2477 116.553 43.2477 117.356ZM51.8861 119.764C52.2595 119.764 52.6421 119.736 53.0341 119.68C53.4261 119.605 53.7435 119.531 53.9861 119.456V121.332C53.7248 121.463 53.3515 121.565 52.8661 121.64C52.3808 121.733 51.9141 121.78 51.4661 121.78C50.6821 121.78 49.9541 121.649 49.2821 121.388C48.6288 121.108 48.0968 120.632 47.6861 119.96C47.2755 119.288 47.0701 118.345 47.0701 117.132V108.396H44.9421V107.22L47.0981 106.24L48.0781 103.048H49.5341V106.492H53.8741V108.396H49.5341V117.076C49.5341 117.991 49.7488 118.672 50.1781 119.12C50.6261 119.549 51.1955 119.764 51.8861 119.764ZM70.0393 113.968C70.0393 115.219 69.8713 116.329 69.5353 117.3C69.218 118.252 68.7513 119.064 68.1353 119.736C67.538 120.408 66.8007 120.921 65.9233 121.276C65.0647 121.612 64.1033 121.78 63.0393 121.78C62.05 121.78 61.1353 121.612 60.2953 121.276C59.4553 120.921 58.7273 120.408 58.1113 119.736C57.4953 119.064 57.01 118.252 56.6553 117.3C56.3193 116.329 56.1513 115.219 56.1513 113.968C56.1513 112.307 56.4313 110.907 56.9913 109.768C57.5513 108.611 58.354 107.733 59.3993 107.136C60.4447 106.52 61.686 106.212 63.1233 106.212C64.486 106.212 65.6807 106.52 66.7073 107.136C67.7527 107.733 68.5647 108.611 69.1433 109.768C69.7407 110.907 70.0393 112.307 70.0393 113.968ZM58.6993 113.968C58.6993 115.144 58.8487 116.171 59.1473 117.048C59.4647 117.907 59.95 118.569 60.6033 119.036C61.2567 119.503 62.0873 119.736 63.0953 119.736C64.1033 119.736 64.934 119.503 65.5873 119.036C66.2407 118.569 66.7167 117.907 67.0153 117.048C67.3327 116.171 67.4913 115.144 67.4913 113.968C67.4913 112.773 67.3327 111.756 67.0153 110.916C66.698 110.076 66.2127 109.432 65.5593 108.984C64.9247 108.517 64.094 108.284 63.0673 108.284C61.5367 108.284 60.426 108.788 59.7353 109.796C59.0447 110.804 58.6993 112.195 58.6993 113.968ZM90.4085 106.212C92.1071 106.212 93.3765 106.651 94.2165 107.528C95.0565 108.387 95.4765 109.787 95.4765 111.728V121.5H93.0405V111.84C93.0405 110.664 92.7885 109.777 92.2845 109.18C91.7991 108.583 91.0338 108.284 89.9885 108.284C88.5325 108.284 87.4871 108.704 86.8525 109.544C86.2365 110.384 85.9285 111.607 85.9285 113.212V121.5H83.4925V111.84C83.4925 111.056 83.3805 110.403 83.1565 109.88C82.9325 109.339 82.5965 108.937 82.1485 108.676C81.7005 108.415 81.1218 108.284 80.4125 108.284C79.4045 108.284 78.6111 108.499 78.0325 108.928C77.4538 109.339 77.0338 109.945 76.7725 110.748C76.5298 111.551 76.4085 112.54 76.4085 113.716V121.5H73.9445V106.492H75.9325L76.2965 108.536H76.4365C76.7538 108.013 77.1365 107.584 77.5845 107.248C78.0511 106.893 78.5645 106.632 79.1245 106.464C79.6845 106.296 80.2631 106.212 80.8605 106.212C82.0178 106.212 82.9791 106.417 83.7445 106.828C84.5285 107.239 85.0978 107.873 85.4525 108.732H85.5925C86.0965 107.873 86.7778 107.239 87.6365 106.828C88.5138 106.417 89.4378 106.212 90.4085 106.212ZM105.908 106.212C107.196 106.212 108.298 106.492 109.212 107.052C110.146 107.612 110.855 108.405 111.34 109.432C111.844 110.44 112.096 111.625 112.096 112.988V114.472H101.82C101.858 116.171 102.287 117.468 103.108 118.364C103.948 119.241 105.115 119.68 106.608 119.68C107.56 119.68 108.4 119.596 109.128 119.428C109.875 119.241 110.64 118.98 111.424 118.644V120.8C110.659 121.136 109.903 121.379 109.156 121.528C108.41 121.696 107.523 121.78 106.496 121.78C105.078 121.78 103.818 121.491 102.716 120.912C101.634 120.333 100.784 119.475 100.168 118.336C99.5711 117.179 99.2724 115.769 99.2724 114.108C99.2724 112.465 99.5431 111.056 100.084 109.88C100.644 108.704 101.419 107.799 102.408 107.164C103.416 106.529 104.583 106.212 105.908 106.212ZM105.88 108.228C104.704 108.228 103.771 108.611 103.08 109.376C102.408 110.123 102.007 111.168 101.876 112.512H109.52C109.52 111.653 109.39 110.907 109.128 110.272C108.867 109.637 108.466 109.143 107.924 108.788C107.402 108.415 106.72 108.228 105.88 108.228ZM122.917 106.212C123.197 106.212 123.496 106.231 123.813 106.268C124.149 106.287 124.438 106.324 124.681 106.38L124.373 108.648C124.13 108.592 123.86 108.545 123.561 108.508C123.281 108.471 123.01 108.452 122.749 108.452C122.17 108.452 121.62 108.573 121.097 108.816C120.574 109.059 120.108 109.404 119.697 109.852C119.286 110.281 118.96 110.804 118.717 111.42C118.493 112.036 118.381 112.727 118.381 113.492V121.5H115.917V106.492H117.933L118.213 109.236H118.325C118.642 108.676 119.025 108.172 119.473 107.724C119.921 107.257 120.434 106.893 121.013 106.632C121.592 106.352 122.226 106.212 122.917 106.212ZM137.256 117.356C137.256 118.327 137.013 119.139 136.528 119.792C136.042 120.445 135.352 120.94 134.456 121.276C133.56 121.612 132.496 121.78 131.264 121.78C130.218 121.78 129.313 121.696 128.548 121.528C127.801 121.36 127.138 121.127 126.56 120.828V118.588C127.157 118.887 127.876 119.167 128.716 119.428C129.574 119.671 130.442 119.792 131.32 119.792C132.57 119.792 133.476 119.596 134.036 119.204C134.596 118.793 134.876 118.252 134.876 117.58C134.876 117.207 134.773 116.871 134.568 116.572C134.362 116.273 133.989 115.975 133.448 115.676C132.925 115.377 132.169 115.041 131.18 114.668C130.209 114.295 129.378 113.921 128.688 113.548C127.997 113.175 127.465 112.727 127.092 112.204C126.718 111.681 126.532 111.009 126.532 110.188C126.532 108.919 127.045 107.939 128.072 107.248C129.117 106.557 130.48 106.212 132.16 106.212C133.074 106.212 133.924 106.305 134.708 106.492C135.51 106.66 136.257 106.903 136.948 107.22L136.108 109.18C135.697 108.993 135.258 108.835 134.792 108.704C134.344 108.555 133.886 108.443 133.42 108.368C132.953 108.275 132.477 108.228 131.992 108.228C130.984 108.228 130.209 108.396 129.668 108.732C129.145 109.049 128.884 109.488 128.884 110.048C128.884 110.459 129.005 110.813 129.248 111.112C129.49 111.392 129.892 111.672 130.452 111.952C131.03 112.213 131.796 112.531 132.748 112.904C133.7 113.259 134.512 113.623 135.184 113.996C135.856 114.369 136.369 114.827 136.724 115.368C137.078 115.891 137.256 116.553 137.256 117.356ZM155.295 106.212C157.143 106.212 158.627 106.856 159.747 108.144C160.886 109.432 161.455 111.373 161.455 113.968C161.455 115.667 161.194 117.104 160.671 118.28C160.167 119.437 159.449 120.315 158.515 120.912C157.601 121.491 156.518 121.78 155.267 121.78C154.502 121.78 153.821 121.677 153.223 121.472C152.626 121.267 152.113 121.005 151.683 120.688C151.273 120.352 150.918 119.988 150.619 119.596H150.451C150.489 119.913 150.526 120.315 150.563 120.8C150.601 121.285 150.619 121.705 150.619 122.06V128.22H148.155V106.492H150.171L150.507 108.536H150.619C150.918 108.107 151.273 107.715 151.683 107.36C152.113 107.005 152.617 106.725 153.195 106.52C153.793 106.315 154.493 106.212 155.295 106.212ZM154.847 108.284C153.839 108.284 153.027 108.48 152.411 108.872C151.795 109.245 151.347 109.815 151.067 110.58C150.787 111.345 150.638 112.316 150.619 113.492V113.968C150.619 115.2 150.75 116.245 151.011 117.104C151.273 117.963 151.711 118.616 152.327 119.064C152.962 119.512 153.821 119.736 154.903 119.736C155.818 119.736 156.565 119.484 157.143 118.98C157.741 118.476 158.179 117.795 158.459 116.936C158.758 116.059 158.907 115.06 158.907 113.94C158.907 112.223 158.571 110.851 157.899 109.824C157.246 108.797 156.229 108.284 154.847 108.284ZM172.382 106.212C172.662 106.212 172.961 106.231 173.278 106.268C173.614 106.287 173.903 106.324 174.146 106.38L173.838 108.648C173.595 108.592 173.325 108.545 173.026 108.508C172.746 108.471 172.475 108.452 172.214 108.452C171.635 108.452 171.085 108.573 170.562 108.816C170.039 109.059 169.573 109.404 169.162 109.852C168.751 110.281 168.425 110.804 168.182 111.42C167.958 112.036 167.846 112.727 167.846 113.492V121.5H165.382V106.492H167.398L167.678 109.236H167.79C168.107 108.676 168.49 108.172 168.938 107.724C169.386 107.257 169.899 106.893 170.478 106.632C171.057 106.352 171.691 106.212 172.382 106.212ZM182.197 106.212C183.485 106.212 184.587 106.492 185.501 107.052C186.435 107.612 187.144 108.405 187.629 109.432C188.133 110.44 188.385 111.625 188.385 112.988V114.472H178.109C178.147 116.171 178.576 117.468 179.397 118.364C180.237 119.241 181.404 119.68 182.897 119.68C183.849 119.68 184.689 119.596 185.417 119.428C186.164 119.241 186.929 118.98 187.713 118.644V120.8C186.948 121.136 186.192 121.379 185.445 121.528C184.699 121.696 183.812 121.78 182.785 121.78C181.367 121.78 180.107 121.491 179.005 120.912C177.923 120.333 177.073 119.475 176.457 118.336C175.86 117.179 175.561 115.769 175.561 114.108C175.561 112.465 175.832 111.056 176.373 109.88C176.933 108.704 177.708 107.799 178.697 107.164C179.705 106.529 180.872 106.212 182.197 106.212ZM182.169 108.228C180.993 108.228 180.06 108.611 179.369 109.376C178.697 110.123 178.296 111.168 178.165 112.512H185.809C185.809 111.653 185.679 110.907 185.417 110.272C185.156 109.637 184.755 109.143 184.213 108.788C183.691 108.415 183.009 108.228 182.169 108.228ZM199.122 108.396H195.342V121.5H192.878V108.396H190.246V107.248L192.878 106.408V105.54C192.878 104.252 193.065 103.207 193.438 102.404C193.83 101.601 194.39 101.013 195.118 100.64C195.846 100.267 196.724 100.08 197.75 100.08C198.348 100.08 198.889 100.136 199.374 100.248C199.878 100.341 200.308 100.453 200.662 100.584L200.018 102.516C199.72 102.423 199.374 102.329 198.982 102.236C198.59 102.143 198.189 102.096 197.778 102.096C196.957 102.096 196.341 102.376 195.93 102.936C195.538 103.477 195.342 104.336 195.342 105.512V106.492H199.122V108.396ZM207.627 106.212C208.915 106.212 210.017 106.492 210.931 107.052C211.865 107.612 212.574 108.405 213.059 109.432C213.563 110.44 213.815 111.625 213.815 112.988V114.472H203.539C203.577 116.171 204.006 117.468 204.827 118.364C205.667 119.241 206.834 119.68 208.327 119.68C209.279 119.68 210.119 119.596 210.847 119.428C211.594 119.241 212.359 118.98 213.143 118.644V120.8C212.378 121.136 211.622 121.379 210.875 121.528C210.129 121.696 209.242 121.78 208.215 121.78C206.797 121.78 205.537 121.491 204.435 120.912C203.353 120.333 202.503 119.475 201.887 118.336C201.29 117.179 200.991 115.769 200.991 114.108C200.991 112.465 201.262 111.056 201.803 109.88C202.363 108.704 203.138 107.799 204.127 107.164C205.135 106.529 206.302 106.212 207.627 106.212ZM207.599 108.228C206.423 108.228 205.49 108.611 204.799 109.376C204.127 110.123 203.726 111.168 203.595 112.512H211.239C211.239 111.653 211.109 110.907 210.847 110.272C210.586 109.637 210.185 109.143 209.643 108.788C209.121 108.415 208.439 108.228 207.599 108.228ZM224.636 106.212C224.916 106.212 225.215 106.231 225.532 106.268C225.868 106.287 226.157 106.324 226.4 106.38L226.092 108.648C225.849 108.592 225.579 108.545 225.28 108.508C225 108.471 224.729 108.452 224.468 108.452C223.889 108.452 223.339 108.573 222.816 108.816C222.293 109.059 221.827 109.404 221.416 109.852C221.005 110.281 220.679 110.804 220.436 111.42C220.212 112.036 220.1 112.727 220.1 113.492V121.5H217.636V106.492H219.652L219.932 109.236H220.044C220.361 108.676 220.744 108.172 221.192 107.724C221.64 107.257 222.153 106.893 222.732 106.632C223.311 106.352 223.945 106.212 224.636 106.212ZM166.809 189.968C166.809 191.219 166.641 192.329 166.305 193.3C165.988 194.252 165.521 195.064 164.905 195.736C164.308 196.408 163.57 196.921 162.693 197.276C161.834 197.612 160.873 197.78 159.809 197.78C158.82 197.78 157.905 197.612 157.065 197.276C156.225 196.921 155.497 196.408 154.881 195.736C154.265 195.064 153.78 194.252 153.425 193.3C153.089 192.329 152.921 191.219 152.921 189.968C152.921 188.307 153.201 186.907 153.761 185.768C154.321 184.611 155.124 183.733 156.169 183.136C157.214 182.52 158.456 182.212 159.893 182.212C161.256 182.212 162.45 182.52 163.477 183.136C164.522 183.733 165.334 184.611 165.913 185.768C166.51 186.907 166.809 188.307 166.809 189.968ZM155.469 189.968C155.469 191.144 155.618 192.171 155.917 193.048C156.234 193.907 156.72 194.569 157.373 195.036C158.026 195.503 158.857 195.736 159.865 195.736C160.873 195.736 161.704 195.503 162.357 195.036C163.01 194.569 163.486 193.907 163.785 193.048C164.102 192.171 164.261 191.144 164.261 189.968C164.261 188.773 164.102 187.756 163.785 186.916C163.468 186.076 162.982 185.432 162.329 184.984C161.694 184.517 160.864 184.284 159.837 184.284C158.306 184.284 157.196 184.788 156.505 185.796C155.814 186.804 155.469 188.195 155.469 189.968ZM173.471 197.5L167.787 182.492H170.419L173.611 191.34C173.76 191.751 173.919 192.208 174.087 192.712C174.255 193.216 174.404 193.701 174.535 194.168C174.666 194.616 174.759 194.999 174.815 195.316H174.927C175.002 194.999 175.104 194.607 175.235 194.14C175.384 193.673 175.543 193.188 175.711 192.684C175.898 192.18 176.056 191.732 176.187 191.34L179.379 182.492H182.011L176.299 197.5H173.471ZM190.182 182.212C191.47 182.212 192.571 182.492 193.486 183.052C194.419 183.612 195.129 184.405 195.614 185.432C196.118 186.44 196.37 187.625 196.37 188.988V190.472H186.094C186.131 192.171 186.561 193.468 187.382 194.364C188.222 195.241 189.389 195.68 190.882 195.68C191.834 195.68 192.674 195.596 193.402 195.428C194.149 195.241 194.914 194.98 195.698 194.644V196.8C194.933 197.136 194.177 197.379 193.43 197.528C192.683 197.696 191.797 197.78 190.77 197.78C189.351 197.78 188.091 197.491 186.99 196.912C185.907 196.333 185.058 195.475 184.442 194.336C183.845 193.179 183.546 191.769 183.546 190.108C183.546 188.465 183.817 187.056 184.358 185.88C184.918 184.704 185.693 183.799 186.682 183.164C187.69 182.529 188.857 182.212 190.182 182.212ZM190.154 184.228C188.978 184.228 188.045 184.611 187.354 185.376C186.682 186.123 186.281 187.168 186.15 188.512H193.794C193.794 187.653 193.663 186.907 193.402 186.272C193.141 185.637 192.739 185.143 192.198 184.788C191.675 184.415 190.994 184.228 190.154 184.228ZM207.191 182.212C207.471 182.212 207.769 182.231 208.087 182.268C208.423 182.287 208.712 182.324 208.955 182.38L208.647 184.648C208.404 184.592 208.133 184.545 207.835 184.508C207.555 184.471 207.284 184.452 207.023 184.452C206.444 184.452 205.893 184.573 205.371 184.816C204.848 185.059 204.381 185.404 203.971 185.852C203.56 186.281 203.233 186.804 202.991 187.42C202.767 188.036 202.655 188.727 202.655 189.492V197.5H200.191V182.492H202.207L202.487 185.236H202.599C202.916 184.676 203.299 184.172 203.747 183.724C204.195 183.257 204.708 182.893 205.287 182.632C205.865 182.352 206.5 182.212 207.191 182.212ZM15.762 227.968C15.762 229.219 15.594 230.329 15.258 231.3C14.9407 232.252 14.474 233.064 13.858 233.736C13.2607 234.408 12.5233 234.921 11.646 235.276C10.7873 235.612 9.82598 235.78 8.76199 235.78C7.77265 235.78 6.85798 235.612 6.01798 235.276C5.17798 234.921 4.44998 234.408 3.83398 233.736C3.21798 233.064 2.73265 232.252 2.37798 231.3C2.04198 230.329 1.87398 229.219 1.87398 227.968C1.87398 226.307 2.15398 224.907 2.71398 223.768C3.27398 222.611 4.07665 221.733 5.12198 221.136C6.16732 220.52 7.40865 220.212 8.84598 220.212C10.2087 220.212 11.4033 220.52 12.43 221.136C13.4753 221.733 14.2873 222.611 14.866 223.768C15.4633 224.907 15.762 226.307 15.762 227.968ZM4.42198 227.968C4.42198 229.144 4.57132 230.171 4.86998 231.048C5.18732 231.907 5.67265 232.569 6.32598 233.036C6.97932 233.503 7.80998 233.736 8.81798 233.736C9.82598 233.736 10.6567 233.503 11.31 233.036C11.9633 232.569 12.4393 231.907 12.738 231.048C13.0553 230.171 13.214 229.144 13.214 227.968C13.214 226.773 13.0553 225.756 12.738 224.916C12.4207 224.076 11.9353 223.432 11.282 222.984C10.6473 222.517 9.81665 222.284 8.78998 222.284C7.25932 222.284 6.14865 222.788 5.45798 223.796C4.76732 224.804 4.42198 226.195 4.42198 227.968ZM24.6791 233.764C25.0524 233.764 25.4351 233.736 25.8271 233.68C26.2191 233.605 26.5364 233.531 26.7791 233.456V235.332C26.5178 235.463 26.1444 235.565 25.6591 235.64C25.1738 235.733 24.7071 235.78 24.2591 235.78C23.4751 235.78 22.7471 235.649 22.0751 235.388C21.4218 235.108 20.8898 234.632 20.4791 233.96C20.0684 233.288 19.8631 232.345 19.8631 231.132V222.396H17.7351V221.22L19.8911 220.24L20.8711 217.048H22.3271V220.492H26.6671V222.396H22.3271V231.076C22.3271 231.991 22.5418 232.672 22.9711 233.12C23.4191 233.549 23.9884 233.764 24.6791 233.764ZM32.2483 220.464C32.2483 220.819 32.2296 221.183 32.1923 221.556C32.1736 221.929 32.1456 222.265 32.1083 222.564H32.2763C32.5936 222.041 32.995 221.612 33.4803 221.276C33.9656 220.94 34.507 220.688 35.1043 220.52C35.7016 220.333 36.3176 220.24 36.9523 220.24C38.1656 220.24 39.1736 220.436 39.9763 220.828C40.7976 221.201 41.4136 221.789 41.8243 222.592C42.235 223.395 42.4403 224.44 42.4403 225.728V235.5H40.0043V225.896C40.0043 224.683 39.7336 223.777 39.1923 223.18C38.651 222.583 37.8016 222.284 36.6443 222.284C35.5243 222.284 34.647 222.499 34.0123 222.928C33.3776 223.339 32.9203 223.955 32.6403 224.776C32.379 225.579 32.2483 226.568 32.2483 227.744V235.5H29.7843V214.22H32.2483V220.464ZM52.8889 220.212C54.1769 220.212 55.2782 220.492 56.1929 221.052C57.1262 221.612 57.8356 222.405 58.3209 223.432C58.8249 224.44 59.0769 225.625 59.0769 226.988V228.472H48.8009C48.8382 230.171 49.2676 231.468 50.0889 232.364C50.9289 233.241 52.0956 233.68 53.5889 233.68C54.5409 233.68 55.3809 233.596 56.1089 233.428C56.8556 233.241 57.6209 232.98 58.4049 232.644V234.8C57.6396 235.136 56.8836 235.379 56.1369 235.528C55.3902 235.696 54.5036 235.78 53.4769 235.78C52.0582 235.78 50.7982 235.491 49.6969 234.912C48.6142 234.333 47.7649 233.475 47.1489 232.336C46.5516 231.179 46.2529 229.769 46.2529 228.108C46.2529 226.465 46.5236 225.056 47.0649 223.88C47.6249 222.704 48.3996 221.799 49.3889 221.164C50.3969 220.529 51.5636 220.212 52.8889 220.212ZM52.8609 222.228C51.6849 222.228 50.7516 222.611 50.0609 223.376C49.3889 224.123 48.9876 225.168 48.8569 226.512H56.5009C56.5009 225.653 56.3702 224.907 56.1089 224.272C55.8476 223.637 55.4462 223.143 54.9049 222.788C54.3822 222.415 53.7009 222.228 52.8609 222.228ZM69.8976 220.212C70.1776 220.212 70.4762 220.231 70.7936 220.268C71.1296 220.287 71.4189 220.324 71.6616 220.38L71.3536 222.648C71.1109 222.592 70.8402 222.545 70.5416 222.508C70.2616 222.471 69.9909 222.452 69.7296 222.452C69.1509 222.452 68.6002 222.573 68.0776 222.816C67.5549 223.059 67.0882 223.404 66.6776 223.852C66.2669 224.281 65.9402 224.804 65.6976 225.42C65.4736 226.036 65.3616 226.727 65.3616 227.492V235.5H62.8976V220.492H64.9136L65.1936 223.236H65.3056C65.6229 222.676 66.0056 222.172 66.4536 221.724C66.9016 221.257 67.4149 220.893 67.9936 220.632C68.5722 220.352 69.2069 220.212 69.8976 220.212ZM84.236 231.356C84.236 232.327 83.9933 233.139 83.508 233.792C83.0227 234.445 82.332 234.94 81.436 235.276C80.54 235.612 79.476 235.78 78.244 235.78C77.1987 235.78 76.2933 235.696 75.528 235.528C74.7813 235.36 74.1187 235.127 73.54 234.828V232.588C74.1373 232.887 74.856 233.167 75.696 233.428C76.5547 233.671 77.4227 233.792 78.3 233.792C79.5507 233.792 80.456 233.596 81.016 233.204C81.576 232.793 81.856 232.252 81.856 231.58C81.856 231.207 81.7533 230.871 81.548 230.572C81.3427 230.273 80.9693 229.975 80.428 229.676C79.9053 229.377 79.1493 229.041 78.16 228.668C77.1893 228.295 76.3587 227.921 75.668 227.548C74.9773 227.175 74.4453 226.727 74.072 226.204C73.6987 225.681 73.512 225.009 73.512 224.188C73.512 222.919 74.0253 221.939 75.052 221.248C76.0973 220.557 77.46 220.212 79.14 220.212C80.0547 220.212 80.904 220.305 81.688 220.492C82.4907 220.66 83.2373 220.903 83.928 221.22L83.088 223.18C82.6773 222.993 82.2387 222.835 81.772 222.704C81.324 222.555 80.8667 222.443 80.4 222.368C79.9333 222.275 79.4573 222.228 78.972 222.228C77.964 222.228 77.1893 222.396 76.648 222.732C76.1253 223.049 75.864 223.488 75.864 224.048C75.864 224.459 75.9853 224.813 76.228 225.112C76.4707 225.392 76.872 225.672 77.432 225.952C78.0107 226.213 78.776 226.531 79.728 226.904C80.68 227.259 81.492 227.623 82.164 227.996C82.836 228.369 83.3493 228.827 83.704 229.368C84.0587 229.891 84.236 230.553 84.236 231.356ZM87.4984 233.988C87.4984 233.297 87.6664 232.812 88.0024 232.532C88.3384 232.252 88.7398 232.112 89.2064 232.112C89.6918 232.112 90.1024 232.252 90.4384 232.532C90.7931 232.812 90.9704 233.297 90.9704 233.988C90.9704 234.66 90.7931 235.145 90.4384 235.444C90.1024 235.743 89.6918 235.892 89.2064 235.892C88.7398 235.892 88.3384 235.743 88.0024 235.444C87.6664 235.145 87.4984 234.66 87.4984 233.988Z" fill="#808080"/>
<path d="M11.618 141.44C10.554 141.44 9.59265 141.627 8.73398 142C7.87532 142.355 7.14732 142.887 6.54998 143.596C5.95265 144.287 5.49532 145.136 5.17798 146.144C4.86065 147.133 4.70198 148.253 4.70198 149.504C4.70198 151.147 4.95398 152.575 5.45798 153.788C5.98065 155.001 6.74598 155.935 7.75398 156.588C8.78065 157.241 10.0593 157.568 11.59 157.568C12.4673 157.568 13.298 157.493 14.082 157.344C14.866 157.195 15.6313 157.008 16.378 156.784V158.968C15.6313 159.248 14.8567 159.453 14.054 159.584C13.27 159.715 12.3273 159.78 11.226 159.78C9.19132 159.78 7.49265 159.36 6.12998 158.52C4.76732 157.68 3.74065 156.485 3.04998 154.936C2.37798 153.387 2.04198 151.567 2.04198 149.476C2.04198 147.964 2.24732 146.583 2.65798 145.332C3.08732 144.081 3.70332 142.999 4.50598 142.084C5.32732 141.169 6.33532 140.469 7.52998 139.984C8.72465 139.48 10.0967 139.228 11.646 139.228C12.6727 139.228 13.662 139.331 14.614 139.536C15.566 139.741 16.4153 140.031 17.162 140.404L16.154 142.532C15.538 142.252 14.8473 142 14.082 141.776C13.3353 141.552 12.514 141.44 11.618 141.44ZM26.0894 144.24C27.9187 144.24 29.2721 144.641 30.1494 145.444C31.0267 146.247 31.4654 147.525 31.4654 149.28V159.5H29.6734L29.1974 157.372H29.0854C28.6561 157.913 28.2081 158.371 27.7414 158.744C27.2934 159.099 26.7707 159.36 26.1734 159.528C25.5947 159.696 24.8854 159.78 24.0454 159.78C23.1494 159.78 22.3374 159.621 21.6094 159.304C20.9001 158.987 20.3401 158.501 19.9294 157.848C19.5187 157.176 19.3134 156.336 19.3134 155.328C19.3134 153.835 19.9014 152.687 21.0774 151.884C22.2534 151.063 24.0641 150.615 26.5094 150.54L29.0574 150.456V149.56C29.0574 148.309 28.7867 147.441 28.2454 146.956C27.7041 146.471 26.9387 146.228 25.9494 146.228C25.1654 146.228 24.4187 146.349 23.7094 146.592C23.0001 146.816 22.3374 147.077 21.7214 147.376L20.9654 145.528C21.6187 145.173 22.3934 144.875 23.2894 144.632C24.1854 144.371 25.1187 144.24 26.0894 144.24ZM26.8174 152.248C24.9507 152.323 23.6534 152.621 22.9254 153.144C22.2161 153.667 21.8614 154.404 21.8614 155.356C21.8614 156.196 22.1134 156.812 22.6174 157.204C23.1401 157.596 23.8027 157.792 24.6054 157.792C25.8747 157.792 26.9294 157.447 27.7694 156.756C28.6094 156.047 29.0294 154.964 29.0294 153.508V152.164L26.8174 152.248ZM45.8727 155.356C45.8727 156.327 45.63 157.139 45.1447 157.792C44.6594 158.445 43.9687 158.94 43.0727 159.276C42.1767 159.612 41.1127 159.78 39.8807 159.78C38.8354 159.78 37.93 159.696 37.1647 159.528C36.418 159.36 35.7554 159.127 35.1767 158.828V156.588C35.774 156.887 36.4927 157.167 37.3327 157.428C38.1914 157.671 39.0594 157.792 39.9367 157.792C41.1874 157.792 42.0927 157.596 42.6527 157.204C43.2127 156.793 43.4927 156.252 43.4927 155.58C43.4927 155.207 43.39 154.871 43.1847 154.572C42.9794 154.273 42.606 153.975 42.0647 153.676C41.542 153.377 40.786 153.041 39.7967 152.668C38.826 152.295 37.9954 151.921 37.3047 151.548C36.614 151.175 36.082 150.727 35.7087 150.204C35.3354 149.681 35.1487 149.009 35.1487 148.188C35.1487 146.919 35.662 145.939 36.6887 145.248C37.734 144.557 39.0967 144.212 40.7767 144.212C41.6914 144.212 42.5407 144.305 43.3247 144.492C44.1274 144.66 44.874 144.903 45.5647 145.22L44.7247 147.18C44.314 146.993 43.8754 146.835 43.4087 146.704C42.9607 146.555 42.5034 146.443 42.0367 146.368C41.57 146.275 41.094 146.228 40.6087 146.228C39.6007 146.228 38.826 146.396 38.2847 146.732C37.762 147.049 37.5007 147.488 37.5007 148.048C37.5007 148.459 37.622 148.813 37.8647 149.112C38.1074 149.392 38.5087 149.672 39.0687 149.952C39.6474 150.213 40.4127 150.531 41.3647 150.904C42.3167 151.259 43.1287 151.623 43.8007 151.996C44.4727 152.369 44.986 152.827 45.3407 153.368C45.6954 153.891 45.8727 154.553 45.8727 155.356ZM54.5111 157.764C54.8845 157.764 55.2671 157.736 55.6591 157.68C56.0511 157.605 56.3685 157.531 56.6111 157.456V159.332C56.3498 159.463 55.9765 159.565 55.4911 159.64C55.0058 159.733 54.5391 159.78 54.0911 159.78C53.3071 159.78 52.5791 159.649 51.9071 159.388C51.2538 159.108 50.7218 158.632 50.3111 157.96C49.9005 157.288 49.6951 156.345 49.6951 155.132V146.396H47.5671V145.22L49.7231 144.24L50.7031 141.048H52.1591V144.492H56.4991V146.396H52.1591V155.076C52.1591 155.991 52.3738 156.672 52.8031 157.12C53.2511 157.549 53.8205 157.764 54.5111 157.764ZM66.6163 144.212C66.8963 144.212 67.195 144.231 67.5123 144.268C67.8483 144.287 68.1377 144.324 68.3803 144.38L68.0723 146.648C67.8297 146.592 67.559 146.545 67.2603 146.508C66.9803 146.471 66.7097 146.452 66.4483 146.452C65.8697 146.452 65.319 146.573 64.7963 146.816C64.2737 147.059 63.807 147.404 63.3963 147.852C62.9857 148.281 62.659 148.804 62.4163 149.42C62.1923 150.036 62.0803 150.727 62.0803 151.492V159.5H59.6163V144.492H61.6323L61.9123 147.236H62.0243C62.3417 146.676 62.7243 146.172 63.1723 145.724C63.6203 145.257 64.1337 144.893 64.7123 144.632C65.291 144.352 65.9257 144.212 66.6163 144.212ZM83.6839 151.968C83.6839 153.219 83.5159 154.329 83.1799 155.3C82.8625 156.252 82.3959 157.064 81.7799 157.736C81.1825 158.408 80.4452 158.921 79.5679 159.276C78.7092 159.612 77.7479 159.78 76.6839 159.78C75.6945 159.78 74.7799 159.612 73.9399 159.276C73.0999 158.921 72.3719 158.408 71.7559 157.736C71.1399 157.064 70.6545 156.252 70.2999 155.3C69.9639 154.329 69.7959 153.219 69.7959 151.968C69.7959 150.307 70.0759 148.907 70.6359 147.768C71.1959 146.611 71.9985 145.733 73.0439 145.136C74.0892 144.52 75.3305 144.212 76.7679 144.212C78.1305 144.212 79.3252 144.52 80.3519 145.136C81.3972 145.733 82.2092 146.611 82.7879 147.768C83.3852 148.907 83.6839 150.307 83.6839 151.968ZM72.3439 151.968C72.3439 153.144 72.4932 154.171 72.7919 155.048C73.1092 155.907 73.5945 156.569 74.2479 157.036C74.9012 157.503 75.7319 157.736 76.7399 157.736C77.7479 157.736 78.5785 157.503 79.2319 157.036C79.8852 156.569 80.3612 155.907 80.6599 155.048C80.9772 154.171 81.1359 153.144 81.1359 151.968C81.1359 150.773 80.9772 149.756 80.6599 148.916C80.3425 148.076 79.8572 147.432 79.2039 146.984C78.5692 146.517 77.7385 146.284 76.7119 146.284C75.1812 146.284 74.0705 146.788 73.3799 147.796C72.6892 148.804 72.3439 150.195 72.3439 151.968ZM90.053 159.5H87.589V138.22H90.053V159.5ZM108.101 159.78C106.776 159.78 105.591 159.509 104.545 158.968C103.519 158.427 102.707 157.587 102.109 156.448C101.531 155.309 101.241 153.853 101.241 152.08C101.241 150.232 101.549 148.729 102.165 147.572C102.781 146.415 103.612 145.565 104.657 145.024C105.721 144.483 106.925 144.212 108.269 144.212C109.035 144.212 109.772 144.296 110.481 144.464C111.191 144.613 111.769 144.8 112.217 145.024L111.461 147.068C111.013 146.9 110.491 146.741 109.893 146.592C109.296 146.443 108.736 146.368 108.213 146.368C107.205 146.368 106.375 146.583 105.721 147.012C105.068 147.441 104.583 148.076 104.265 148.916C103.948 149.756 103.789 150.801 103.789 152.052C103.789 153.247 103.948 154.264 104.265 155.104C104.583 155.944 105.059 156.579 105.693 157.008C106.328 157.437 107.121 157.652 108.073 157.652C108.895 157.652 109.613 157.568 110.229 157.4C110.864 157.232 111.443 157.027 111.965 156.784V158.968C111.461 159.229 110.901 159.425 110.285 159.556C109.688 159.705 108.96 159.78 108.101 159.78ZM121.33 144.212C122.618 144.212 123.72 144.492 124.634 145.052C125.568 145.612 126.277 146.405 126.762 147.432C127.266 148.44 127.518 149.625 127.518 150.988V152.472H117.242C117.28 154.171 117.709 155.468 118.53 156.364C119.37 157.241 120.537 157.68 122.03 157.68C122.982 157.68 123.822 157.596 124.55 157.428C125.297 157.241 126.062 156.98 126.846 156.644V158.8C126.081 159.136 125.325 159.379 124.578 159.528C123.832 159.696 122.945 159.78 121.918 159.78C120.5 159.78 119.24 159.491 118.138 158.912C117.056 158.333 116.206 157.475 115.59 156.336C114.993 155.179 114.694 153.769 114.694 152.108C114.694 150.465 114.965 149.056 115.506 147.88C116.066 146.704 116.841 145.799 117.83 145.164C118.838 144.529 120.005 144.212 121.33 144.212ZM121.302 146.228C120.126 146.228 119.193 146.611 118.502 147.376C117.83 148.123 117.429 149.168 117.298 150.512H124.942C124.942 149.653 124.812 148.907 124.55 148.272C124.289 147.637 123.888 147.143 123.346 146.788C122.824 146.415 122.142 146.228 121.302 146.228ZM138.339 144.212C138.619 144.212 138.918 144.231 139.235 144.268C139.571 144.287 139.86 144.324 140.103 144.38L139.795 146.648C139.552 146.592 139.282 146.545 138.983 146.508C138.703 146.471 138.432 146.452 138.171 146.452C137.592 146.452 137.042 146.573 136.519 146.816C135.996 147.059 135.53 147.404 135.119 147.852C134.708 148.281 134.382 148.804 134.139 149.42C133.915 150.036 133.803 150.727 133.803 151.492V159.5H131.339V144.492H133.355L133.635 147.236H133.747C134.064 146.676 134.447 146.172 134.895 145.724C135.343 145.257 135.856 144.893 136.435 144.632C137.014 144.352 137.648 144.212 138.339 144.212ZM147.917 157.764C148.291 157.764 148.673 157.736 149.065 157.68C149.457 157.605 149.775 157.531 150.017 157.456V159.332C149.756 159.463 149.383 159.565 148.897 159.64C148.412 159.733 147.945 159.78 147.497 159.78C146.713 159.78 145.985 159.649 145.313 159.388C144.66 159.108 144.128 158.632 143.717 157.96C143.307 157.288 143.101 156.345 143.101 155.132V146.396H140.973V145.22L143.129 144.24L144.109 141.048H145.565V144.492H149.905V146.396H145.565V155.076C145.565 155.991 145.78 156.672 146.209 157.12C146.657 157.549 147.227 157.764 147.917 157.764ZM155.487 144.492V159.5H153.023V144.492H155.487ZM154.283 138.864C154.656 138.864 154.983 138.995 155.263 139.256C155.561 139.499 155.711 139.891 155.711 140.432C155.711 140.955 155.561 141.347 155.263 141.608C154.983 141.869 154.656 142 154.283 142C153.872 142 153.527 141.869 153.247 141.608C152.967 141.347 152.827 140.955 152.827 140.432C152.827 139.891 152.967 139.499 153.247 139.256C153.527 138.995 153.872 138.864 154.283 138.864ZM167.157 146.396H163.377V159.5H160.913V146.396H158.281V145.248L160.913 144.408V143.54C160.913 142.252 161.1 141.207 161.473 140.404C161.865 139.601 162.425 139.013 163.153 138.64C163.881 138.267 164.759 138.08 165.785 138.08C166.383 138.08 166.924 138.136 167.409 138.248C167.913 138.341 168.343 138.453 168.697 138.584L168.053 140.516C167.755 140.423 167.409 140.329 167.017 140.236C166.625 140.143 166.224 140.096 165.813 140.096C164.992 140.096 164.376 140.376 163.965 140.936C163.573 141.477 163.377 142.336 163.377 143.512V144.492H167.157V146.396ZM172.337 144.492V159.5H169.873V144.492H172.337ZM171.133 138.864C171.507 138.864 171.833 138.995 172.113 139.256C172.412 139.499 172.561 139.891 172.561 140.432C172.561 140.955 172.412 141.347 172.113 141.608C171.833 141.869 171.507 142 171.133 142C170.723 142 170.377 141.869 170.097 141.608C169.817 141.347 169.677 140.955 169.677 140.432C169.677 139.891 169.817 139.499 170.097 139.256C170.377 138.995 170.723 138.864 171.133 138.864ZM182.881 144.212C184.169 144.212 185.27 144.492 186.185 145.052C187.118 145.612 187.828 146.405 188.313 147.432C188.817 148.44 189.069 149.625 189.069 150.988V152.472H178.793C178.83 154.171 179.26 155.468 180.081 156.364C180.921 157.241 182.088 157.68 183.581 157.68C184.533 157.68 185.373 157.596 186.101 157.428C186.848 157.241 187.613 156.98 188.397 156.644V158.8C187.632 159.136 186.876 159.379 186.129 159.528C185.382 159.696 184.496 159.78 183.469 159.78C182.05 159.78 180.79 159.491 179.689 158.912C178.606 158.333 177.757 157.475 177.141 156.336C176.544 155.179 176.245 153.769 176.245 152.108C176.245 150.465 176.516 149.056 177.057 147.88C177.617 146.704 178.392 145.799 179.381 145.164C180.389 144.529 181.556 144.212 182.881 144.212ZM182.853 146.228C181.677 146.228 180.744 146.611 180.053 147.376C179.381 148.123 178.98 149.168 178.849 150.512H186.493C186.493 149.653 186.362 148.907 186.101 148.272C185.84 147.637 185.438 147.143 184.897 146.788C184.374 146.415 183.693 146.228 182.853 146.228ZM198.21 159.78C196.343 159.78 194.85 159.136 193.73 157.848C192.61 156.541 192.05 154.6 192.05 152.024C192.05 149.448 192.61 147.507 193.73 146.2C194.868 144.875 196.371 144.212 198.238 144.212C199.022 144.212 199.703 144.315 200.282 144.52C200.86 144.707 201.364 144.968 201.794 145.304C202.223 145.64 202.587 146.013 202.886 146.424H203.054C203.035 146.181 202.998 145.827 202.942 145.36C202.904 144.875 202.886 144.492 202.886 144.212V138.22H205.35V159.5H203.362L202.998 157.484H202.886C202.587 157.913 202.223 158.305 201.794 158.66C201.364 158.996 200.851 159.267 200.254 159.472C199.675 159.677 198.994 159.78 198.21 159.78ZM198.602 157.736C200.188 157.736 201.299 157.307 201.934 156.448C202.587 155.571 202.914 154.255 202.914 152.5V152.052C202.914 150.185 202.606 148.757 201.99 147.768C201.374 146.76 200.235 146.256 198.574 146.256C197.248 146.256 196.25 146.788 195.578 147.852C194.924 148.897 194.598 150.307 194.598 152.08C194.598 153.872 194.924 155.263 195.578 156.252C196.25 157.241 197.258 157.736 198.602 157.736ZM12.402 189.016C12.29 188.624 12.178 188.241 12.066 187.868C11.954 187.476 11.8513 187.112 11.758 186.776C11.6833 186.421 11.6087 186.095 11.534 185.796C11.4593 185.497 11.4033 185.245 11.366 185.04H11.254C11.2167 185.245 11.1607 185.497 11.086 185.796C11.03 186.095 10.9553 186.421 10.862 186.776C10.7873 187.131 10.694 187.504 10.582 187.896C10.4887 188.269 10.3767 188.652 10.246 189.044L7.55798 197.472H4.75798L0.641984 182.464H3.18998L5.26198 190.472C5.41132 191.013 5.55132 191.564 5.68198 192.124C5.81265 192.665 5.92465 193.188 6.01798 193.692C6.12998 194.177 6.20465 194.597 6.24198 194.952H6.35398C6.40998 194.728 6.47532 194.448 6.54998 194.112C6.62465 193.776 6.69932 193.421 6.77398 193.048C6.86732 192.675 6.96065 192.301 7.05398 191.928C7.16598 191.555 7.26865 191.219 7.36198 190.92L10.022 182.464H12.71L15.286 190.92C15.4167 191.349 15.5473 191.807 15.678 192.292C15.8273 192.777 15.958 193.253 16.07 193.72C16.182 194.168 16.2567 194.569 16.294 194.924H16.406C16.4433 194.607 16.5087 194.215 16.602 193.748C16.714 193.263 16.8353 192.74 16.966 192.18C17.1153 191.601 17.2647 191.032 17.414 190.472L19.514 182.464H22.034L17.862 197.472H14.978L12.402 189.016ZM37.7737 189.968C37.7737 191.219 37.6057 192.329 37.2697 193.3C36.9524 194.252 36.4857 195.064 35.8697 195.736C35.2724 196.408 34.535 196.921 33.6577 197.276C32.799 197.612 31.8377 197.78 30.7737 197.78C29.7844 197.78 28.8697 197.612 28.0297 197.276C27.1897 196.921 26.4617 196.408 25.8457 195.736C25.2297 195.064 24.7444 194.252 24.3897 193.3C24.0537 192.329 23.8857 191.219 23.8857 189.968C23.8857 188.307 24.1657 186.907 24.7257 185.768C25.2857 184.611 26.0884 183.733 27.1337 183.136C28.179 182.52 29.4204 182.212 30.8577 182.212C32.2204 182.212 33.415 182.52 34.4417 183.136C35.487 183.733 36.299 184.611 36.8777 185.768C37.475 186.907 37.7737 188.307 37.7737 189.968ZM26.4337 189.968C26.4337 191.144 26.583 192.171 26.8817 193.048C27.199 193.907 27.6844 194.569 28.3377 195.036C28.991 195.503 29.8217 195.736 30.8297 195.736C31.8377 195.736 32.6684 195.503 33.3217 195.036C33.975 194.569 34.451 193.907 34.7497 193.048C35.067 192.171 35.2257 191.144 35.2257 189.968C35.2257 188.773 35.067 187.756 34.7497 186.916C34.4324 186.076 33.947 185.432 33.2937 184.984C32.659 184.517 31.8284 184.284 30.8017 184.284C29.271 184.284 28.1604 184.788 27.4697 185.796C26.779 186.804 26.4337 188.195 26.4337 189.968ZM48.6788 182.212C48.9588 182.212 49.2575 182.231 49.5748 182.268C49.9108 182.287 50.2002 182.324 50.4428 182.38L50.1348 184.648C49.8922 184.592 49.6215 184.545 49.3228 184.508C49.0428 184.471 48.7722 184.452 48.5108 184.452C47.9322 184.452 47.3815 184.573 46.8588 184.816C46.3362 185.059 45.8695 185.404 45.4588 185.852C45.0482 186.281 44.7215 186.804 44.4788 187.42C44.2548 188.036 44.1428 188.727 44.1428 189.492V197.5H41.6788V182.492H43.6948L43.9748 185.236H44.0868C44.4042 184.676 44.7868 184.172 45.2348 183.724C45.6828 183.257 46.1962 182.893 46.7748 182.632C47.3535 182.352 47.9882 182.212 48.6788 182.212ZM55.6812 187.336C55.6812 187.635 55.6626 188.027 55.6252 188.512C55.6066 188.997 55.5879 189.417 55.5692 189.772H55.6812C55.7932 189.623 55.9612 189.408 56.1852 189.128C56.4092 188.848 56.6332 188.568 56.8572 188.288C57.0999 187.989 57.3052 187.747 57.4732 187.56L62.2612 182.492H65.1452L59.0692 188.904L65.5652 197.5H62.5972L57.3892 190.5L55.6812 191.984V197.5H53.2452V176.22H55.6812V187.336ZM77.9743 193.356C77.9743 194.327 77.7316 195.139 77.2463 195.792C76.7609 196.445 76.0703 196.94 75.1743 197.276C74.2783 197.612 73.2143 197.78 71.9823 197.78C70.9369 197.78 70.0316 197.696 69.2663 197.528C68.5196 197.36 67.8569 197.127 67.2783 196.828V194.588C67.8756 194.887 68.5943 195.167 69.4343 195.428C70.2929 195.671 71.1609 195.792 72.0383 195.792C73.2889 195.792 74.1943 195.596 74.7543 195.204C75.3143 194.793 75.5943 194.252 75.5943 193.58C75.5943 193.207 75.4916 192.871 75.2863 192.572C75.0809 192.273 74.7076 191.975 74.1663 191.676C73.6436 191.377 72.8876 191.041 71.8983 190.668C70.9276 190.295 70.0969 189.921 69.4063 189.548C68.7156 189.175 68.1836 188.727 67.8103 188.204C67.4369 187.681 67.2503 187.009 67.2503 186.188C67.2503 184.919 67.7636 183.939 68.7903 183.248C69.8356 182.557 71.1983 182.212 72.8783 182.212C73.7929 182.212 74.6423 182.305 75.4263 182.492C76.2289 182.66 76.9756 182.903 77.6663 183.22L76.8263 185.18C76.4156 184.993 75.9769 184.835 75.5103 184.704C75.0623 184.555 74.6049 184.443 74.1383 184.368C73.6716 184.275 73.1956 184.228 72.7103 184.228C71.7023 184.228 70.9276 184.396 70.3863 184.732C69.8636 185.049 69.6023 185.488 69.6023 186.048C69.6023 186.459 69.7236 186.813 69.9663 187.112C70.2089 187.392 70.6103 187.672 71.1703 187.952C71.7489 188.213 72.5143 188.531 73.4663 188.904C74.4183 189.259 75.2303 189.623 75.9023 189.996C76.5743 190.369 77.0876 190.827 77.4423 191.368C77.7969 191.891 77.9743 192.553 77.9743 193.356ZM84.0647 182.464C84.0647 182.819 84.046 183.183 84.0087 183.556C83.99 183.929 83.962 184.265 83.9247 184.564H84.0927C84.41 184.041 84.8114 183.612 85.2967 183.276C85.782 182.94 86.3234 182.688 86.9207 182.52C87.518 182.333 88.134 182.24 88.7687 182.24C89.982 182.24 90.99 182.436 91.7927 182.828C92.614 183.201 93.23 183.789 93.6407 184.592C94.0514 185.395 94.2567 186.44 94.2567 187.728V197.5H91.8207V187.896C91.8207 186.683 91.55 185.777 91.0087 185.18C90.4674 184.583 89.618 184.284 88.4607 184.284C87.3407 184.284 86.4634 184.499 85.8287 184.928C85.194 185.339 84.7367 185.955 84.4567 186.776C84.1954 187.579 84.0647 188.568 84.0647 189.744V197.5H81.6007V176.22H84.0647V182.464ZM111.957 189.968C111.957 191.219 111.789 192.329 111.453 193.3C111.136 194.252 110.669 195.064 110.053 195.736C109.456 196.408 108.719 196.921 107.841 197.276C106.983 197.612 106.021 197.78 104.957 197.78C103.968 197.78 103.053 197.612 102.213 197.276C101.373 196.921 100.645 196.408 100.029 195.736C99.4133 195.064 98.928 194.252 98.5733 193.3C98.2373 192.329 98.0693 191.219 98.0693 189.968C98.0693 188.307 98.3493 186.907 98.9093 185.768C99.4693 184.611 100.272 183.733 101.317 183.136C102.363 182.52 103.604 182.212 105.041 182.212C106.404 182.212 107.599 182.52 108.625 183.136C109.671 183.733 110.483 184.611 111.061 185.768C111.659 186.907 111.957 188.307 111.957 189.968ZM100.617 189.968C100.617 191.144 100.767 192.171 101.065 193.048C101.383 193.907 101.868 194.569 102.521 195.036C103.175 195.503 104.005 195.736 105.013 195.736C106.021 195.736 106.852 195.503 107.505 195.036C108.159 194.569 108.635 193.907 108.933 193.048C109.251 192.171 109.409 191.144 109.409 189.968C109.409 188.773 109.251 187.756 108.933 186.916C108.616 186.076 108.131 185.432 107.477 184.984C106.843 184.517 106.012 184.284 104.985 184.284C103.455 184.284 102.344 184.788 101.653 185.796C100.963 186.804 100.617 188.195 100.617 189.968ZM123.002 182.212C124.85 182.212 126.334 182.856 127.454 184.144C128.593 185.432 129.162 187.373 129.162 189.968C129.162 191.667 128.901 193.104 128.378 194.28C127.874 195.437 127.156 196.315 126.222 196.912C125.308 197.491 124.225 197.78 122.974 197.78C122.209 197.78 121.528 197.677 120.93 197.472C120.333 197.267 119.82 197.005 119.39 196.688C118.98 196.352 118.625 195.988 118.326 195.596H118.158C118.196 195.913 118.233 196.315 118.27 196.8C118.308 197.285 118.326 197.705 118.326 198.06V204.22H115.862V182.492H117.878L118.214 184.536H118.326C118.625 184.107 118.98 183.715 119.39 183.36C119.82 183.005 120.324 182.725 120.902 182.52C121.5 182.315 122.2 182.212 123.002 182.212ZM122.554 184.284C121.546 184.284 120.734 184.48 120.118 184.872C119.502 185.245 119.054 185.815 118.774 186.58C118.494 187.345 118.345 188.316 118.326 189.492V189.968C118.326 191.2 118.457 192.245 118.718 193.104C118.98 193.963 119.418 194.616 120.034 195.064C120.669 195.512 121.528 195.736 122.61 195.736C123.525 195.736 124.272 195.484 124.85 194.98C125.448 194.476 125.886 193.795 126.166 192.936C126.465 192.059 126.614 191.06 126.614 189.94C126.614 188.223 126.278 186.851 125.606 185.824C124.953 184.797 123.936 184.284 122.554 184.284ZM142.861 193.356C142.861 194.327 142.618 195.139 142.133 195.792C141.648 196.445 140.957 196.94 140.061 197.276C139.165 197.612 138.101 197.78 136.869 197.78C135.824 197.78 134.918 197.696 134.153 197.528C133.406 197.36 132.744 197.127 132.165 196.828V194.588C132.762 194.887 133.481 195.167 134.321 195.428C135.18 195.671 136.048 195.792 136.925 195.792C138.176 195.792 139.081 195.596 139.641 195.204C140.201 194.793 140.481 194.252 140.481 193.58C140.481 193.207 140.378 192.871 140.173 192.572C139.968 192.273 139.594 191.975 139.053 191.676C138.53 191.377 137.774 191.041 136.785 190.668C135.814 190.295 134.984 189.921 134.293 189.548C133.602 189.175 133.07 188.727 132.697 188.204C132.324 187.681 132.137 187.009 132.137 186.188C132.137 184.919 132.65 183.939 133.677 183.248C134.722 182.557 136.085 182.212 137.765 182.212C138.68 182.212 139.529 182.305 140.313 182.492C141.116 182.66 141.862 182.903 142.553 183.22L141.713 185.18C141.302 184.993 140.864 184.835 140.397 184.704C139.949 184.555 139.492 184.443 139.025 184.368C138.558 184.275 138.082 184.228 137.597 184.228C136.589 184.228 135.814 184.396 135.273 184.732C134.75 185.049 134.489 185.488 134.489 186.048C134.489 186.459 134.61 186.813 134.853 187.112C135.096 187.392 135.497 187.672 136.057 187.952C136.636 188.213 137.401 188.531 138.353 188.904C139.305 189.259 140.117 189.623 140.789 189.996C141.461 190.369 141.974 190.827 142.329 191.368C142.684 191.891 142.861 192.553 142.861 193.356Z" fill="#009900"/>
<path d="M517.384 115.656C517.384 129.123 514.724 142.458 509.554 154.9C504.384 167.341 496.807 178.646 487.255 188.169C477.703 197.691 466.362 205.245 453.882 210.399C441.401 215.552 428.024 218.205 414.515 218.205L414.515 190.427C424.365 190.427 434.118 188.493 443.218 184.735C452.318 180.978 460.587 175.47 467.552 168.527C474.516 161.584 480.041 153.341 483.811 144.27C487.58 135.198 489.52 125.475 489.52 115.656H517.384Z" fill="#B3B3B3"/>
<path d="M414.515 218.205C394.095 218.205 374.137 212.146 357.182 200.8C340.227 189.454 327.043 173.335 319.31 154.494L345.098 143.974C350.737 157.711 360.35 169.464 372.712 177.737C385.074 186.009 399.626 190.427 414.515 190.427L414.515 218.205Z" fill="#666666"/>
<path d="M320.04 156.227C313.878 141.968 311.044 126.501 311.753 110.991C312.461 95.4815 316.693 80.3346 324.129 66.6929C331.566 53.0512 342.012 41.2708 354.68 32.2401C367.349 23.2093 381.909 17.1641 397.263 14.5602C412.616 11.9563 428.363 12.8617 443.314 17.2082C458.266 21.5547 472.032 29.2289 483.575 39.6518C495.118 50.0748 504.136 62.9745 509.949 77.378C515.763 91.7816 518.22 107.313 517.134 122.801L489.338 120.866C490.129 109.573 488.337 98.2486 484.099 87.7466C479.86 77.2446 473.285 67.8391 464.868 60.2394C456.452 52.6398 446.415 47.0444 435.513 43.8752C424.612 40.7061 413.131 40.0459 401.936 41.9444C390.741 43.843 380.125 48.2508 370.888 54.8353C361.651 61.4199 354.035 70.0093 348.613 79.9558C343.191 89.9023 340.105 100.946 339.589 112.255C339.072 123.563 341.138 134.841 345.631 145.238L320.04 156.227Z" fill="#1EB300"/>
<path d="M240.335 66.3528C245.525 52.6858 256.129 47.7099 269.449 43.0485C280.331 39.2401 292.723 38.3481 304.062 40.1881" stroke="#009900" stroke-width="2" stroke-linecap="round"/>
<path d="M298.983 29.8005C304.314 31.795 307.706 33.2743 311.608 37.3028C313.022 38.7623 317.901 43.1528 317.053 45.387C316.67 46.395 308.587 46.053 307.396 46.0228C303.694 45.9289 296.154 48.8921 294.784 52.4989" stroke="#009900" stroke-width="2" stroke-linecap="round"/>
<path d="M307.186 231.003C308.684 221.54 314.801 216.946 322.695 212.196C329.145 208.314 336.948 206.107 344.442 205.794" stroke="#666666" stroke-width="2" stroke-linecap="round"/>
<path d="M334.993 199.28C338.666 199.858 341.032 200.361 344.063 202.434C345.161 203.185 348.865 205.361 348.62 206.908C348.509 207.606 343.296 208.452 342.531 208.59C340.152 209.018 335.726 211.915 335.33 214.412" stroke="#666666" stroke-width="2" stroke-linecap="round"/>
<path d="M506.792 231.451C509.349 224.447 506.9 219.014 503.291 212.803C500.343 207.729 495.834 203.283 490.82 200.243" stroke="#B3B3B3" stroke-width="2" stroke-linecap="round"/>
<path d="M499.758 199.375C497.023 198.383 495.212 197.833 492.351 198.1C491.314 198.196 487.953 198.28 487.535 199.425C487.346 199.942 490.596 202.484 491.069 202.867C492.536 204.055 494.47 207.697 493.795 209.545" stroke="#B3B3B3" stroke-width="2" stroke-linecap="round"/>
<path d="M258.55 244.324C258.55 245.209 258.438 246.015 258.214 246.74C257.99 247.455 257.654 248.073 257.206 248.596C256.769 249.119 256.22 249.519 255.558 249.796C254.908 250.073 254.15 250.212 253.286 250.212C252.39 250.212 251.612 250.073 250.95 249.796C250.289 249.508 249.74 249.108 249.302 248.596C248.865 248.073 248.54 247.449 248.326 246.724C248.113 245.999 248.006 245.193 248.006 244.308C248.006 243.135 248.198 242.111 248.582 241.236C248.966 240.361 249.548 239.679 250.326 239.188C251.116 238.697 252.108 238.452 253.302 238.452C254.444 238.452 255.404 238.697 256.182 239.188C256.961 239.668 257.548 240.351 257.942 241.236C258.348 242.111 258.55 243.14 258.55 244.324ZM249.526 244.324C249.526 245.284 249.66 246.111 249.926 246.804C250.193 247.497 250.604 248.031 251.158 248.404C251.724 248.777 252.433 248.964 253.286 248.964C254.15 248.964 254.854 248.777 255.398 248.404C255.953 248.031 256.364 247.497 256.63 246.804C256.897 246.111 257.03 245.284 257.03 244.324C257.03 242.884 256.732 241.759 256.134 240.948C255.537 240.127 254.593 239.716 253.302 239.716C252.438 239.716 251.724 239.903 251.158 240.276C250.604 240.639 250.193 241.167 249.926 241.86C249.66 242.543 249.526 243.364 249.526 244.324ZM263.754 249.06C263.968 249.06 264.186 249.044 264.41 249.012C264.634 248.969 264.816 248.927 264.954 248.884V249.956C264.805 250.031 264.592 250.089 264.314 250.132C264.037 250.185 263.77 250.212 263.514 250.212C263.066 250.212 262.65 250.137 262.266 249.988C261.893 249.828 261.589 249.556 261.354 249.172C261.12 248.788 261.002 248.249 261.002 247.556V242.564H259.786V241.892L261.018 241.332L261.578 239.508H262.41V241.476H264.89V242.564H262.41V247.524C262.41 248.047 262.533 248.436 262.778 248.692C263.034 248.937 263.36 249.06 263.754 249.06ZM268.08 241.46C268.08 241.663 268.069 241.871 268.048 242.084C268.037 242.297 268.021 242.489 268 242.66H268.096C268.277 242.361 268.506 242.116 268.784 241.924C269.061 241.732 269.37 241.588 269.712 241.492C270.053 241.385 270.405 241.332 270.768 241.332C271.461 241.332 272.037 241.444 272.496 241.668C272.965 241.881 273.317 242.217 273.552 242.676C273.786 243.135 273.904 243.732 273.904 244.468V250.052H272.512V244.564C272.512 243.871 272.357 243.353 272.048 243.012C271.738 242.671 271.253 242.5 270.592 242.5C269.952 242.5 269.45 242.623 269.088 242.868C268.725 243.103 268.464 243.455 268.304 243.924C268.154 244.383 268.08 244.948 268.08 245.62V250.052H266.672V237.892H268.08V241.46ZM279.874 241.316C280.61 241.316 281.239 241.476 281.762 241.796C282.295 242.116 282.701 242.569 282.978 243.156C283.266 243.732 283.41 244.409 283.41 245.188V246.036H277.538C277.559 247.007 277.805 247.748 278.274 248.26C278.754 248.761 279.421 249.012 280.274 249.012C280.818 249.012 281.298 248.964 281.714 248.868C282.141 248.761 282.578 248.612 283.026 248.42V249.652C282.589 249.844 282.157 249.983 281.73 250.068C281.303 250.164 280.797 250.212 280.21 250.212C279.399 250.212 278.679 250.047 278.05 249.716C277.431 249.385 276.946 248.895 276.594 248.244C276.253 247.583 276.082 246.777 276.082 245.828C276.082 244.889 276.237 244.084 276.546 243.412C276.866 242.74 277.309 242.223 277.874 241.86C278.45 241.497 279.117 241.316 279.874 241.316ZM279.858 242.468C279.186 242.468 278.653 242.687 278.258 243.124C277.874 243.551 277.645 244.148 277.57 244.916H281.938C281.938 244.425 281.863 243.999 281.714 243.636C281.565 243.273 281.335 242.991 281.026 242.788C280.727 242.575 280.338 242.468 279.858 242.468ZM289.593 241.316C289.753 241.316 289.924 241.327 290.105 241.348C290.297 241.359 290.463 241.38 290.601 241.412L290.425 242.708C290.287 242.676 290.132 242.649 289.961 242.628C289.801 242.607 289.647 242.596 289.497 242.596C289.167 242.596 288.852 242.665 288.553 242.804C288.255 242.943 287.988 243.14 287.753 243.396C287.519 243.641 287.332 243.94 287.193 244.292C287.065 244.644 287.001 245.039 287.001 245.476V250.052H285.593V241.476H286.745L286.905 243.044H286.969C287.151 242.724 287.369 242.436 287.625 242.18C287.881 241.913 288.175 241.705 288.505 241.556C288.836 241.396 289.199 241.316 289.593 241.316ZM301.447 239.732C300.839 239.732 300.29 239.839 299.799 240.052C299.308 240.255 298.892 240.559 298.551 240.964C298.21 241.359 297.948 241.844 297.767 242.42C297.586 242.985 297.495 243.625 297.495 244.34C297.495 245.279 297.639 246.095 297.927 246.788C298.226 247.481 298.663 248.015 299.239 248.388C299.826 248.761 300.556 248.948 301.431 248.948C301.932 248.948 302.407 248.905 302.855 248.82C303.303 248.735 303.74 248.628 304.167 248.5V249.748C303.74 249.908 303.298 250.025 302.839 250.1C302.391 250.175 301.852 250.212 301.223 250.212C300.06 250.212 299.09 249.972 298.311 249.492C297.532 249.012 296.946 248.329 296.551 247.444C296.167 246.559 295.975 245.519 295.975 244.324C295.975 243.46 296.092 242.671 296.327 241.956C296.572 241.241 296.924 240.623 297.383 240.1C297.852 239.577 298.428 239.177 299.111 238.9C299.794 238.612 300.578 238.468 301.463 238.468C302.05 238.468 302.615 238.527 303.159 238.644C303.703 238.761 304.188 238.927 304.615 239.14L304.039 240.356C303.687 240.196 303.292 240.052 302.855 239.924C302.428 239.796 301.959 239.732 301.447 239.732ZM309.78 241.316C310.516 241.316 311.146 241.476 311.668 241.796C312.202 242.116 312.607 242.569 312.884 243.156C313.172 243.732 313.316 244.409 313.316 245.188V246.036H307.444C307.466 247.007 307.711 247.748 308.18 248.26C308.66 248.761 309.327 249.012 310.18 249.012C310.724 249.012 311.204 248.964 311.62 248.868C312.047 248.761 312.484 248.612 312.932 248.42V249.652C312.495 249.844 312.063 249.983 311.636 250.068C311.21 250.164 310.703 250.212 310.116 250.212C309.306 250.212 308.586 250.047 307.956 249.716C307.338 249.385 306.852 248.895 306.5 248.244C306.159 247.583 305.988 246.777 305.988 245.828C305.988 244.889 306.143 244.084 306.452 243.412C306.772 242.74 307.215 242.223 307.78 241.86C308.356 241.497 309.023 241.316 309.78 241.316ZM309.764 242.468C309.092 242.468 308.559 242.687 308.164 243.124C307.78 243.551 307.551 244.148 307.476 244.916H311.844C311.844 244.425 311.77 243.999 311.62 243.636C311.471 243.273 311.242 242.991 310.932 242.788C310.634 242.575 310.244 242.468 309.764 242.468ZM319.5 241.316C319.66 241.316 319.83 241.327 320.012 241.348C320.204 241.359 320.369 241.38 320.508 241.412L320.332 242.708C320.193 242.676 320.038 242.649 319.868 242.628C319.708 242.607 319.553 242.596 319.404 242.596C319.073 242.596 318.758 242.665 318.46 242.804C318.161 242.943 317.894 243.14 317.66 243.396C317.425 243.641 317.238 243.94 317.1 244.292C316.972 244.644 316.908 245.039 316.908 245.476V250.052H315.5V241.476H316.652L316.812 243.044H316.876C317.057 242.724 317.276 242.436 317.532 242.18C317.788 241.913 318.081 241.705 318.412 241.556C318.742 241.396 319.105 241.316 319.5 241.316ZM324.973 249.06C325.186 249.06 325.405 249.044 325.629 249.012C325.853 248.969 326.034 248.927 326.173 248.884V249.956C326.024 250.031 325.81 250.089 325.533 250.132C325.256 250.185 324.989 250.212 324.733 250.212C324.285 250.212 323.869 250.137 323.485 249.988C323.112 249.828 322.808 249.556 322.573 249.172C322.338 248.788 322.221 248.249 322.221 247.556V242.564H321.005V241.892L322.237 241.332L322.797 239.508H323.629V241.476H326.109V242.564H323.629V247.524C323.629 248.047 323.752 248.436 323.997 248.692C324.253 248.937 324.578 249.06 324.973 249.06ZM329.298 241.476V250.052H327.89V241.476H329.298ZM328.61 238.26C328.824 238.26 329.01 238.335 329.17 238.484C329.341 238.623 329.426 238.847 329.426 239.156C329.426 239.455 329.341 239.679 329.17 239.828C329.01 239.977 328.824 240.052 328.61 240.052C328.376 240.052 328.178 239.977 328.018 239.828C327.858 239.679 327.778 239.455 327.778 239.156C327.778 238.847 327.858 238.623 328.018 238.484C328.178 238.335 328.376 238.26 328.61 238.26ZM335.967 242.564H333.807V250.052H332.399V242.564H330.895V241.908L332.399 241.428V240.932C332.399 240.196 332.506 239.599 332.719 239.14C332.943 238.681 333.263 238.345 333.679 238.132C334.095 237.919 334.597 237.812 335.183 237.812C335.525 237.812 335.834 237.844 336.111 237.908C336.399 237.961 336.645 238.025 336.847 238.1L336.479 239.204C336.309 239.151 336.111 239.097 335.887 239.044C335.663 238.991 335.434 238.964 335.199 238.964C334.73 238.964 334.378 239.124 334.143 239.444C333.919 239.753 333.807 240.244 333.807 240.916V241.476H335.967V242.564ZM338.927 241.476V250.052H337.519V241.476H338.927ZM338.239 238.26C338.453 238.26 338.639 238.335 338.799 238.484C338.97 238.623 339.055 238.847 339.055 239.156C339.055 239.455 338.97 239.679 338.799 239.828C338.639 239.977 338.453 240.052 338.239 240.052C338.005 240.052 337.807 239.977 337.647 239.828C337.487 239.679 337.407 239.455 337.407 239.156C337.407 238.847 337.487 238.623 337.647 238.484C337.807 238.335 338.005 238.26 338.239 238.26ZM345.08 250.212C344.323 250.212 343.646 250.057 343.048 249.748C342.462 249.439 341.998 248.959 341.656 248.308C341.326 247.657 341.16 246.825 341.16 245.812C341.16 244.756 341.336 243.897 341.688 243.236C342.04 242.575 342.515 242.089 343.112 241.78C343.72 241.471 344.408 241.316 345.176 241.316C345.614 241.316 346.035 241.364 346.44 241.46C346.846 241.545 347.176 241.652 347.432 241.78L347 242.948C346.744 242.852 346.446 242.761 346.104 242.676C345.763 242.591 345.443 242.548 345.144 242.548C344.568 242.548 344.094 242.671 343.72 242.916C343.347 243.161 343.07 243.524 342.888 244.004C342.707 244.484 342.616 245.081 342.616 245.796C342.616 246.479 342.707 247.06 342.888 247.54C343.07 248.02 343.342 248.383 343.704 248.628C344.067 248.873 344.52 248.996 345.064 248.996C345.534 248.996 345.944 248.948 346.296 248.852C346.659 248.756 346.99 248.639 347.288 248.5V249.748C347 249.897 346.68 250.009 346.328 250.084C345.987 250.169 345.571 250.212 345.08 250.212ZM352.576 241.332C353.621 241.332 354.394 241.561 354.896 242.02C355.397 242.479 355.648 243.209 355.648 244.212V250.052H354.624L354.352 248.836H354.288C354.042 249.145 353.786 249.407 353.52 249.62C353.264 249.823 352.965 249.972 352.624 250.068C352.293 250.164 351.888 250.212 351.408 250.212C350.896 250.212 350.432 250.121 350.016 249.94C349.61 249.759 349.29 249.481 349.056 249.108C348.821 248.724 348.704 248.244 348.704 247.668C348.704 246.815 349.04 246.159 349.712 245.7C350.384 245.231 351.418 244.975 352.816 244.932L354.272 244.884V244.372C354.272 243.657 354.117 243.161 353.808 242.884C353.498 242.607 353.061 242.468 352.496 242.468C352.048 242.468 351.621 242.537 351.216 242.676C350.81 242.804 350.432 242.953 350.08 243.124L349.648 242.068C350.021 241.865 350.464 241.695 350.976 241.556C351.488 241.407 352.021 241.332 352.576 241.332ZM352.992 245.908C351.925 245.951 351.184 246.121 350.768 246.42C350.362 246.719 350.16 247.14 350.16 247.684C350.16 248.164 350.304 248.516 350.592 248.74C350.89 248.964 351.269 249.076 351.728 249.076C352.453 249.076 353.056 248.879 353.536 248.484C354.016 248.079 354.256 247.46 354.256 246.628V245.86L352.992 245.908ZM361.161 249.06C361.374 249.06 361.593 249.044 361.817 249.012C362.041 248.969 362.222 248.927 362.361 248.884V249.956C362.211 250.031 361.998 250.089 361.721 250.132C361.443 250.185 361.177 250.212 360.921 250.212C360.473 250.212 360.057 250.137 359.673 249.988C359.299 249.828 358.995 249.556 358.761 249.172C358.526 248.788 358.409 248.249 358.409 247.556V242.564H357.193V241.892L358.425 241.332L358.985 239.508H359.817V241.476H362.297V242.564H359.817V247.524C359.817 248.047 359.939 248.436 360.185 248.692C360.441 248.937 360.766 249.06 361.161 249.06ZM365.486 241.476V250.052H364.078V241.476H365.486ZM364.798 238.26C365.011 238.26 365.198 238.335 365.358 238.484C365.528 238.623 365.614 238.847 365.614 239.156C365.614 239.455 365.528 239.679 365.358 239.828C365.198 239.977 365.011 240.052 364.798 240.052C364.563 240.052 364.366 239.977 364.206 239.828C364.046 239.679 363.966 239.455 363.966 239.156C363.966 238.847 364.046 238.623 364.206 238.484C364.366 238.335 364.563 238.26 364.798 238.26ZM375.659 245.748C375.659 246.463 375.563 247.097 375.371 247.652C375.189 248.196 374.923 248.66 374.571 249.044C374.229 249.428 373.808 249.721 373.307 249.924C372.816 250.116 372.267 250.212 371.659 250.212C371.093 250.212 370.571 250.116 370.091 249.924C369.611 249.721 369.195 249.428 368.843 249.044C368.491 248.66 368.213 248.196 368.011 247.652C367.819 247.097 367.723 246.463 367.723 245.748C367.723 244.799 367.883 243.999 368.203 243.348C368.523 242.687 368.981 242.185 369.579 241.844C370.176 241.492 370.885 241.316 371.707 241.316C372.485 241.316 373.168 241.492 373.755 241.844C374.352 242.185 374.816 242.687 375.147 243.348C375.488 243.999 375.659 244.799 375.659 245.748ZM369.179 245.748C369.179 246.42 369.264 247.007 369.435 247.508C369.616 247.999 369.893 248.377 370.267 248.644C370.64 248.911 371.115 249.044 371.691 249.044C372.267 249.044 372.741 248.911 373.115 248.644C373.488 248.377 373.76 247.999 373.931 247.508C374.112 247.007 374.203 246.42 374.203 245.748C374.203 245.065 374.112 244.484 373.931 244.004C373.749 243.524 373.472 243.156 373.099 242.9C372.736 242.633 372.261 242.5 371.675 242.5C370.8 242.5 370.165 242.788 369.771 243.364C369.376 243.94 369.179 244.735 369.179 245.748ZM382.018 241.316C383.042 241.316 383.816 241.567 384.338 242.068C384.861 242.559 385.122 243.359 385.122 244.468V250.052H383.73V244.564C383.73 243.871 383.576 243.353 383.266 243.012C382.957 242.671 382.472 242.5 381.81 242.5C380.861 242.5 380.205 242.767 379.842 243.3C379.48 243.833 379.298 244.601 379.298 245.604V250.052H377.89V241.476H379.026L379.234 242.644H379.314C379.506 242.345 379.741 242.1 380.018 241.908C380.306 241.705 380.621 241.556 380.962 241.46C381.304 241.364 381.656 241.316 382.018 241.316ZM393.365 247.684C393.365 248.239 393.226 248.703 392.949 249.076C392.672 249.449 392.277 249.732 391.765 249.924C391.253 250.116 390.645 250.212 389.941 250.212C389.344 250.212 388.826 250.164 388.389 250.068C387.962 249.972 387.584 249.839 387.253 249.668V248.388C387.594 248.559 388.005 248.719 388.485 248.868C388.976 249.007 389.472 249.076 389.973 249.076C390.688 249.076 391.205 248.964 391.525 248.74C391.845 248.505 392.005 248.196 392.005 247.812C392.005 247.599 391.946 247.407 391.829 247.236C391.712 247.065 391.498 246.895 391.189 246.724C390.89 246.553 390.458 246.361 389.893 246.148C389.338 245.935 388.864 245.721 388.469 245.508C388.074 245.295 387.77 245.039 387.557 244.74C387.344 244.441 387.237 244.057 387.237 243.588C387.237 242.863 387.53 242.303 388.117 241.908C388.714 241.513 389.493 241.316 390.453 241.316C390.976 241.316 391.461 241.369 391.909 241.476C392.368 241.572 392.794 241.711 393.189 241.892L392.709 243.012C392.474 242.905 392.224 242.815 391.957 242.74C391.701 242.655 391.44 242.591 391.173 242.548C390.906 242.495 390.634 242.468 390.357 242.468C389.781 242.468 389.338 242.564 389.029 242.756C388.73 242.937 388.581 243.188 388.581 243.508C388.581 243.743 388.65 243.945 388.789 244.116C388.928 244.276 389.157 244.436 389.477 244.596C389.808 244.745 390.245 244.927 390.789 245.14C391.333 245.343 391.797 245.551 392.181 245.764C392.565 245.977 392.858 246.239 393.061 246.548C393.264 246.847 393.365 247.225 393.365 247.684Z" fill="#666666"/>
<path d="M465.465 243.769C465.465 244.558 465.305 245.273 464.985 245.913C464.665 246.542 464.174 247.043 463.513 247.417C462.862 247.779 462.03 247.961 461.017 247.961C459.598 247.961 458.515 247.577 457.769 246.809C457.033 246.03 456.665 245.006 456.665 243.737V236.377H458.105V243.785C458.105 244.713 458.35 245.433 458.841 245.945C459.342 246.457 460.094 246.713 461.097 246.713C461.79 246.713 462.35 246.59 462.777 246.345C463.214 246.089 463.534 245.742 463.737 245.305C463.939 244.857 464.041 244.345 464.041 243.769V236.377H465.465V243.769ZM472.416 239.065C473.44 239.065 474.213 239.315 474.736 239.817C475.258 240.307 475.52 241.107 475.52 242.217V247.801H474.128V242.313C474.128 241.619 473.973 241.102 473.664 240.761C473.354 240.419 472.869 240.249 472.208 240.249C471.258 240.249 470.602 240.515 470.24 241.049C469.877 241.582 469.696 242.35 469.696 243.353V247.801H468.288V239.225H469.424L469.632 240.393H469.712C469.904 240.094 470.138 239.849 470.416 239.657C470.704 239.454 471.018 239.305 471.36 239.209C471.701 239.113 472.053 239.065 472.416 239.065ZM481.618 247.961C480.861 247.961 480.184 247.806 479.586 247.497C479 247.187 478.536 246.707 478.194 246.057C477.864 245.406 477.698 244.574 477.698 243.561C477.698 242.505 477.874 241.646 478.226 240.985C478.578 240.323 479.053 239.838 479.65 239.529C480.258 239.219 480.946 239.065 481.714 239.065C482.152 239.065 482.573 239.113 482.978 239.209C483.384 239.294 483.714 239.401 483.97 239.529L483.538 240.697C483.282 240.601 482.984 240.51 482.642 240.425C482.301 240.339 481.981 240.297 481.682 240.297C481.106 240.297 480.632 240.419 480.258 240.665C479.885 240.91 479.608 241.273 479.426 241.753C479.245 242.233 479.154 242.83 479.154 243.545C479.154 244.227 479.245 244.809 479.426 245.289C479.608 245.769 479.88 246.131 480.242 246.377C480.605 246.622 481.058 246.745 481.602 246.745C482.072 246.745 482.482 246.697 482.834 246.601C483.197 246.505 483.528 246.387 483.826 246.249V247.497C483.538 247.646 483.218 247.758 482.866 247.833C482.525 247.918 482.109 247.961 481.618 247.961ZM489.178 239.065C489.914 239.065 490.543 239.225 491.066 239.545C491.599 239.865 492.005 240.318 492.282 240.905C492.57 241.481 492.714 242.158 492.714 242.937V243.785H486.842C486.863 244.755 487.109 245.497 487.578 246.009C488.058 246.51 488.725 246.761 489.578 246.761C490.122 246.761 490.602 246.713 491.018 246.617C491.445 246.51 491.882 246.361 492.33 246.169V247.401C491.893 247.593 491.461 247.731 491.034 247.817C490.607 247.913 490.101 247.961 489.514 247.961C488.703 247.961 487.983 247.795 487.354 247.465C486.735 247.134 486.25 246.643 485.898 245.993C485.557 245.331 485.386 244.526 485.386 243.577C485.386 242.638 485.541 241.833 485.85 241.161C486.17 240.489 486.613 239.971 487.178 239.609C487.754 239.246 488.421 239.065 489.178 239.065ZM489.162 240.217C488.49 240.217 487.957 240.435 487.562 240.873C487.178 241.299 486.949 241.897 486.874 242.665H491.242C491.242 242.174 491.167 241.747 491.018 241.385C490.869 241.022 490.639 240.739 490.33 240.537C490.031 240.323 489.642 240.217 489.162 240.217ZM498.897 239.065C499.057 239.065 499.228 239.075 499.409 239.097C499.601 239.107 499.766 239.129 499.905 239.161L499.729 240.457C499.59 240.425 499.436 240.398 499.265 240.377C499.105 240.355 498.95 240.345 498.801 240.345C498.47 240.345 498.156 240.414 497.857 240.553C497.558 240.691 497.292 240.889 497.057 241.145C496.822 241.39 496.636 241.689 496.497 242.041C496.369 242.393 496.305 242.787 496.305 243.225V247.801H494.897V239.225H496.049L496.209 240.793H496.273C496.454 240.473 496.673 240.185 496.929 239.929C497.185 239.662 497.478 239.454 497.809 239.305C498.14 239.145 498.502 239.065 498.897 239.065ZM504.37 246.809C504.584 246.809 504.802 246.793 505.026 246.761C505.25 246.718 505.432 246.675 505.57 246.633V247.705C505.421 247.779 505.208 247.838 504.93 247.881C504.653 247.934 504.386 247.961 504.13 247.961C503.682 247.961 503.266 247.886 502.882 247.737C502.509 247.577 502.205 247.305 501.97 246.921C501.736 246.537 501.618 245.998 501.618 245.305V240.313H500.402V239.641L501.634 239.081L502.194 237.257H503.026V239.225H505.506V240.313H503.026V245.273C503.026 245.795 503.149 246.185 503.394 246.441C503.65 246.686 503.976 246.809 504.37 246.809ZM508.696 239.225V247.801H507.288V239.225H508.696ZM508.008 236.009C508.221 236.009 508.408 236.083 508.568 236.233C508.738 236.371 508.824 236.595 508.824 236.905C508.824 237.203 508.738 237.427 508.568 237.577C508.408 237.726 508.221 237.801 508.008 237.801C507.773 237.801 507.576 237.726 507.416 237.577C507.256 237.427 507.176 237.203 507.176 236.905C507.176 236.595 507.256 236.371 507.416 236.233C507.576 236.083 507.773 236.009 508.008 236.009ZM515.365 240.313H513.205V247.801H511.797V240.313H510.293V239.657L511.797 239.177V238.681C511.797 237.945 511.903 237.347 512.117 236.889C512.341 236.43 512.661 236.094 513.077 235.881C513.493 235.667 513.994 235.561 514.581 235.561C514.922 235.561 515.231 235.593 515.509 235.657C515.797 235.71 516.042 235.774 516.245 235.849L515.877 236.953C515.706 236.899 515.509 236.846 515.285 236.793C515.061 236.739 514.831 236.713 514.597 236.713C514.127 236.713 513.775 236.873 513.541 237.193C513.317 237.502 513.205 237.993 513.205 238.665V239.225H515.365V240.313ZM518.325 239.225V247.801H516.917V239.225H518.325ZM517.637 236.009C517.85 236.009 518.037 236.083 518.197 236.233C518.367 236.371 518.453 236.595 518.453 236.905C518.453 237.203 518.367 237.427 518.197 237.577C518.037 237.726 517.85 237.801 517.637 237.801C517.402 237.801 517.205 237.726 517.045 237.577C516.885 237.427 516.805 237.203 516.805 236.905C516.805 236.595 516.885 236.371 517.045 236.233C517.205 236.083 517.402 236.009 517.637 236.009ZM524.35 239.065C525.086 239.065 525.715 239.225 526.238 239.545C526.771 239.865 527.176 240.318 527.454 240.905C527.742 241.481 527.886 242.158 527.886 242.937V243.785H522.014C522.035 244.755 522.28 245.497 522.75 246.009C523.23 246.51 523.896 246.761 524.75 246.761C525.294 246.761 525.774 246.713 526.19 246.617C526.616 246.51 527.054 246.361 527.502 246.169V247.401C527.064 247.593 526.632 247.731 526.206 247.817C525.779 247.913 525.272 247.961 524.686 247.961C523.875 247.961 523.155 247.795 522.526 247.465C521.907 247.134 521.422 246.643 521.07 245.993C520.728 245.331 520.558 244.526 520.558 243.577C520.558 242.638 520.712 241.833 521.022 241.161C521.342 240.489 521.784 239.971 522.35 239.609C522.926 239.246 523.592 239.065 524.35 239.065ZM524.334 240.217C523.662 240.217 523.128 240.435 522.734 240.873C522.35 241.299 522.12 241.897 522.046 242.665H526.414C526.414 242.174 526.339 241.747 526.19 241.385C526.04 241.022 525.811 240.739 525.502 240.537C525.203 240.323 524.814 240.217 524.334 240.217ZM533.109 247.961C532.042 247.961 531.189 247.593 530.549 246.857C529.909 246.11 529.589 245.001 529.589 243.529C529.589 242.057 529.909 240.947 530.549 240.201C531.2 239.443 532.058 239.065 533.125 239.065C533.573 239.065 533.962 239.123 534.293 239.241C534.624 239.347 534.912 239.497 535.157 239.689C535.402 239.881 535.61 240.094 535.781 240.329H535.877C535.866 240.19 535.845 239.987 535.813 239.721C535.792 239.443 535.781 239.225 535.781 239.065V235.641H537.189V247.801H536.053L535.845 246.649H535.781C535.61 246.894 535.402 247.118 535.157 247.321C534.912 247.513 534.618 247.667 534.277 247.785C533.946 247.902 533.557 247.961 533.109 247.961ZM533.333 246.793C534.24 246.793 534.874 246.547 535.237 246.057C535.61 245.555 535.797 244.803 535.797 243.801V243.545C535.797 242.478 535.621 241.662 535.269 241.097C534.917 240.521 534.266 240.233 533.317 240.233C532.56 240.233 531.989 240.537 531.605 241.145C531.232 241.742 531.045 242.547 531.045 243.561C531.045 244.585 531.232 245.379 531.605 245.945C531.989 246.51 532.565 246.793 533.333 246.793ZM462.121 267.953C462.057 267.729 461.993 267.51 461.929 267.297C461.865 267.073 461.806 266.865 461.753 266.673C461.71 266.47 461.667 266.283 461.625 266.113C461.582 265.942 461.55 265.798 461.529 265.681H461.465C461.443 265.798 461.411 265.942 461.369 266.113C461.337 266.283 461.294 266.47 461.241 266.673C461.198 266.875 461.145 267.089 461.081 267.313C461.027 267.526 460.963 267.745 460.889 267.969L459.353 272.785H457.753L455.401 264.209H456.857L458.041 268.785C458.126 269.094 458.206 269.409 458.281 269.729C458.355 270.038 458.419 270.337 458.473 270.625C458.537 270.902 458.579 271.142 458.601 271.345H458.665C458.697 271.217 458.734 271.057 458.777 270.865C458.819 270.673 458.862 270.47 458.905 270.257C458.958 270.043 459.011 269.83 459.065 269.617C459.129 269.403 459.187 269.211 459.241 269.041L460.761 264.209H462.297L463.769 269.041C463.843 269.286 463.918 269.547 463.993 269.825C464.078 270.102 464.153 270.374 464.217 270.641C464.281 270.897 464.323 271.126 464.345 271.329H464.409C464.43 271.147 464.467 270.923 464.521 270.657C464.585 270.379 464.654 270.081 464.729 269.761C464.814 269.43 464.899 269.105 464.985 268.785L466.185 264.209H467.625L465.241 272.785H463.593L462.121 267.953ZM476.619 268.497C476.619 269.211 476.523 269.846 476.331 270.401C476.149 270.945 475.883 271.409 475.531 271.793C475.189 272.177 474.768 272.47 474.267 272.673C473.776 272.865 473.227 272.961 472.619 272.961C472.053 272.961 471.531 272.865 471.051 272.673C470.571 272.47 470.155 272.177 469.803 271.793C469.451 271.409 469.173 270.945 468.971 270.401C468.779 269.846 468.683 269.211 468.683 268.497C468.683 267.547 468.843 266.747 469.163 266.097C469.483 265.435 469.941 264.934 470.539 264.593C471.136 264.241 471.845 264.065 472.667 264.065C473.445 264.065 474.128 264.241 474.715 264.593C475.312 264.934 475.776 265.435 476.107 266.097C476.448 266.747 476.619 267.547 476.619 268.497ZM470.139 268.497C470.139 269.169 470.224 269.755 470.395 270.257C470.576 270.747 470.853 271.126 471.227 271.393C471.6 271.659 472.075 271.793 472.651 271.793C473.227 271.793 473.701 271.659 474.075 271.393C474.448 271.126 474.72 270.747 474.891 270.257C475.072 269.755 475.163 269.169 475.163 268.497C475.163 267.814 475.072 267.233 474.891 266.753C474.709 266.273 474.432 265.905 474.059 265.649C473.696 265.382 473.221 265.249 472.635 265.249C471.76 265.249 471.125 265.537 470.731 266.113C470.336 266.689 470.139 267.483 470.139 268.497ZM482.85 264.065C483.01 264.065 483.181 264.075 483.362 264.097C483.554 264.107 483.72 264.129 483.858 264.161L483.682 265.457C483.544 265.425 483.389 265.398 483.218 265.377C483.058 265.355 482.904 265.345 482.754 265.345C482.424 265.345 482.109 265.414 481.81 265.553C481.512 265.691 481.245 265.889 481.01 266.145C480.776 266.39 480.589 266.689 480.45 267.041C480.322 267.393 480.258 267.787 480.258 268.225V272.801H478.85V264.225H480.002L480.162 265.793H480.226C480.408 265.473 480.626 265.185 480.882 264.929C481.138 264.662 481.432 264.454 481.762 264.305C482.093 264.145 482.456 264.065 482.85 264.065ZM486.852 266.993C486.852 267.163 486.841 267.387 486.82 267.665C486.809 267.942 486.798 268.182 486.788 268.385H486.852C486.916 268.299 487.012 268.177 487.14 268.017C487.268 267.857 487.396 267.697 487.524 267.537C487.662 267.366 487.78 267.227 487.876 267.121L490.612 264.225H492.26L488.788 267.889L492.5 272.801H490.804L487.828 268.801L486.852 269.649V272.801H485.46V260.641H486.852V266.993ZM499.59 270.433C499.59 270.987 499.452 271.451 499.174 271.825C498.897 272.198 498.502 272.481 497.99 272.673C497.478 272.865 496.87 272.961 496.166 272.961C495.569 272.961 495.052 272.913 494.614 272.817C494.188 272.721 493.809 272.587 493.478 272.417V271.137C493.82 271.307 494.23 271.467 494.71 271.617C495.201 271.755 495.697 271.825 496.198 271.825C496.913 271.825 497.43 271.713 497.75 271.489C498.07 271.254 498.23 270.945 498.23 270.561C498.23 270.347 498.172 270.155 498.054 269.985C497.937 269.814 497.724 269.643 497.414 269.473C497.116 269.302 496.684 269.11 496.118 268.897C495.564 268.683 495.089 268.47 494.694 268.257C494.3 268.043 493.996 267.787 493.782 267.489C493.569 267.19 493.462 266.806 493.462 266.337C493.462 265.611 493.756 265.051 494.342 264.657C494.94 264.262 495.718 264.065 496.678 264.065C497.201 264.065 497.686 264.118 498.134 264.225C498.593 264.321 499.02 264.459 499.414 264.641L498.934 265.761C498.7 265.654 498.449 265.563 498.182 265.489C497.926 265.403 497.665 265.339 497.398 265.297C497.132 265.243 496.86 265.217 496.582 265.217C496.006 265.217 495.564 265.313 495.254 265.505C494.956 265.686 494.806 265.937 494.806 266.257C494.806 266.491 494.876 266.694 495.014 266.865C495.153 267.025 495.382 267.185 495.702 267.345C496.033 267.494 496.47 267.675 497.014 267.889C497.558 268.091 498.022 268.299 498.406 268.513C498.79 268.726 499.084 268.987 499.286 269.297C499.489 269.595 499.59 269.974 499.59 270.433ZM503.071 264.209C503.071 264.411 503.06 264.619 503.039 264.833C503.028 265.046 503.012 265.238 502.991 265.409H503.087C503.268 265.11 503.497 264.865 503.775 264.673C504.052 264.481 504.361 264.337 504.703 264.241C505.044 264.134 505.396 264.081 505.759 264.081C506.452 264.081 507.028 264.193 507.487 264.417C507.956 264.63 508.308 264.966 508.543 265.425C508.777 265.883 508.895 266.481 508.895 267.217V272.801H507.503V267.313C507.503 266.619 507.348 266.102 507.039 265.761C506.729 265.419 506.244 265.249 505.583 265.249C504.943 265.249 504.441 265.371 504.079 265.617C503.716 265.851 503.455 266.203 503.295 266.673C503.145 267.131 503.071 267.697 503.071 268.369V272.801H501.663V260.641H503.071V264.209ZM519.009 268.497C519.009 269.211 518.913 269.846 518.721 270.401C518.54 270.945 518.273 271.409 517.921 271.793C517.58 272.177 517.159 272.47 516.657 272.673C516.167 272.865 515.617 272.961 515.009 272.961C514.444 272.961 513.921 272.865 513.441 272.673C512.961 272.47 512.545 272.177 512.193 271.793C511.841 271.409 511.564 270.945 511.361 270.401C511.169 269.846 511.073 269.211 511.073 268.497C511.073 267.547 511.233 266.747 511.553 266.097C511.873 265.435 512.332 264.934 512.929 264.593C513.527 264.241 514.236 264.065 515.057 264.065C515.836 264.065 516.519 264.241 517.105 264.593C517.703 264.934 518.167 265.435 518.497 266.097C518.839 266.747 519.009 267.547 519.009 268.497ZM512.529 268.497C512.529 269.169 512.615 269.755 512.785 270.257C512.967 270.747 513.244 271.126 513.617 271.393C513.991 271.659 514.465 271.793 515.041 271.793C515.617 271.793 516.092 271.659 516.465 271.393C516.839 271.126 517.111 270.747 517.281 270.257C517.463 269.755 517.553 269.169 517.553 268.497C517.553 267.814 517.463 267.233 517.281 266.753C517.1 266.273 516.823 265.905 516.449 265.649C516.087 265.382 515.612 265.249 515.025 265.249C514.151 265.249 513.516 265.537 513.121 266.113C512.727 266.689 512.529 267.483 512.529 268.497ZM525.321 264.065C526.377 264.065 527.225 264.433 527.865 265.169C528.516 265.905 528.841 267.014 528.841 268.497C528.841 269.467 528.692 270.289 528.393 270.961C528.105 271.622 527.694 272.123 527.161 272.465C526.638 272.795 526.02 272.961 525.305 272.961C524.868 272.961 524.478 272.902 524.137 272.785C523.796 272.667 523.502 272.518 523.257 272.337C523.022 272.145 522.82 271.937 522.649 271.713H522.553C522.574 271.894 522.596 272.123 522.617 272.401C522.638 272.678 522.649 272.918 522.649 273.121V276.641H521.241V264.225H522.393L522.585 265.393H522.649C522.82 265.147 523.022 264.923 523.257 264.721C523.502 264.518 523.79 264.358 524.121 264.241C524.462 264.123 524.862 264.065 525.321 264.065ZM525.065 265.249C524.489 265.249 524.025 265.361 523.673 265.585C523.321 265.798 523.065 266.123 522.905 266.561C522.745 266.998 522.66 267.553 522.649 268.225V268.497C522.649 269.201 522.724 269.798 522.873 270.289C523.022 270.779 523.273 271.153 523.625 271.409C523.988 271.665 524.478 271.793 525.097 271.793C525.62 271.793 526.046 271.649 526.377 271.361C526.718 271.073 526.969 270.683 527.129 270.193C527.3 269.691 527.385 269.121 527.385 268.481C527.385 267.499 527.193 266.715 526.809 266.129C526.436 265.542 525.854 265.249 525.065 265.249ZM536.669 270.433C536.669 270.987 536.53 271.451 536.253 271.825C535.975 272.198 535.581 272.481 535.069 272.673C534.557 272.865 533.949 272.961 533.245 272.961C532.647 272.961 532.13 272.913 531.693 272.817C531.266 272.721 530.887 272.587 530.557 272.417V271.137C530.898 271.307 531.309 271.467 531.789 271.617C532.279 271.755 532.775 271.825 533.277 271.825C533.991 271.825 534.509 271.713 534.829 271.489C535.149 271.254 535.309 270.945 535.309 270.561C535.309 270.347 535.25 270.155 535.133 269.985C535.015 269.814 534.802 269.643 534.493 269.473C534.194 269.302 533.762 269.11 533.197 268.897C532.642 268.683 532.167 268.47 531.773 268.257C531.378 268.043 531.074 267.787 530.861 267.489C530.647 267.19 530.541 266.806 530.541 266.337C530.541 265.611 530.834 265.051 531.421 264.657C532.018 264.262 532.797 264.065 533.757 264.065C534.279 264.065 534.765 264.118 535.213 264.225C535.671 264.321 536.098 264.459 536.493 264.641L536.013 265.761C535.778 265.654 535.527 265.563 535.261 265.489C535.005 265.403 534.743 265.339 534.477 265.297C534.21 265.243 533.938 265.217 533.661 265.217C533.085 265.217 532.642 265.313 532.333 265.505C532.034 265.686 531.885 265.937 531.885 266.257C531.885 266.491 531.954 266.694 532.093 266.865C532.231 267.025 532.461 267.185 532.781 267.345C533.111 267.494 533.549 267.675 534.093 267.889C534.637 268.091 535.101 268.299 535.485 268.513C535.869 268.726 536.162 268.987 536.365 269.297C536.567 269.595 536.669 269.974 536.669 270.433Z" fill="#666666"/>
</svg>
