<svg width="472" height="282" viewBox="0 0 472 282" fill="none" xmlns="http://www.w3.org/2000/svg">
<g clip-path="url(#clip0_327_7746)">
<path d="M361.108 278.612C355.078 273.517 351.415 265.468 352.376 257.632C353.336 249.796 359.286 242.592 367.003 240.928C374.72 239.264 383.517 243.87 385.861 251.409C387.151 236.875 388.638 221.732 396.365 209.355C403.362 198.147 415.481 190.128 428.614 188.694C441.748 187.259 455.577 192.677 463.768 203.044C471.959 213.41 473.964 228.481 468.227 240.382C464.001 249.15 456.215 255.674 448.058 260.983C421.697 277.991 390.08 284.908 359.026 280.46L361.108 278.612Z" fill="#E6E6E6"/>
<path d="M450.782 192.978C439.944 201.805 430.003 211.677 421.1 222.452C407.167 239.257 395.892 258.098 387.669 278.319C387.066 279.794 389.462 280.436 390.057 278.977C403.513 246.114 424.993 217.148 452.533 194.729C453.77 193.722 452.008 191.979 450.782 192.978Z" fill="white"/>
<path d="M152.123 277.227C160.405 270.229 165.436 259.173 164.116 248.411C162.797 237.648 154.626 227.754 144.026 225.469C133.426 223.183 121.344 229.51 118.124 239.864C116.352 219.901 114.311 199.102 103.697 182.102C94.0871 166.709 77.4421 155.695 59.4027 153.725C41.3634 151.754 22.3702 159.196 11.1197 173.435C-0.130759 187.673 -2.8854 208.372 4.99416 224.719C10.7987 236.761 21.4929 245.723 32.6976 253.014C68.4447 276.274 112.789 285.975 154.983 279.766" fill="#E6E6E6"/>
<path d="M28.958 159.609C43.8427 171.733 57.4978 185.292 69.7259 200.091C81.9559 214.875 92.7232 230.811 101.876 247.674C106.993 257.133 111.589 266.865 115.644 276.825C116.471 278.851 113.181 279.733 112.363 277.729C105.18 260.169 96.2933 243.355 85.8304 227.529C75.4183 211.76 63.5011 197.038 50.2462 183.57C42.7492 175.956 34.8392 168.76 26.5521 162.015C24.8534 160.632 27.2734 158.237 28.958 159.609Z" fill="white"/>
<path d="M338.591 281.18H140.987V78.4333C140.987 35.2973 176.081 0.203857 219.216 0.203857H260.362C303.497 0.203857 338.591 35.2973 338.591 78.4333V281.18Z" fill="#E6E6E6"/>
<path d="M297.446 281.18H140.988V78.4333C140.944 61.9046 146.178 45.7936 155.927 32.4461C156.287 31.9563 156.645 31.4728 157.015 30.9946C161.73 24.8099 167.342 19.3632 173.665 14.8341C174.022 14.5743 174.38 14.3189 174.744 14.0636C180.035 10.4025 185.757 7.40956 191.782 5.15302C192.14 5.01741 192.505 4.88153 192.869 4.7512C198.318 2.80661 203.966 1.47457 209.71 0.779685C210.066 0.731042 210.432 0.692978 210.798 0.654914C216.395 0.056435 222.04 0.056435 227.637 0.654914C228.002 0.692978 228.368 0.731037 228.728 0.780205C234.47 1.47514 240.117 2.80701 245.565 4.75123C245.929 4.88155 246.294 5.01742 246.652 5.1533C252.603 7.38138 258.259 10.3296 263.493 13.9322C263.856 14.182 264.22 14.4374 264.579 14.6927C268.123 17.2225 271.452 20.0407 274.531 23.1188C277.001 25.5877 279.303 28.2194 281.42 30.9962C281.789 31.4729 282.147 31.9564 282.506 32.4454C292.255 45.793 297.489 61.9043 297.446 78.4333V281.18Z" fill="#B3B3B3"/>
<path d="M284.724 190.499C289.508 190.499 293.386 186.621 293.386 181.837C293.386 177.053 289.508 173.175 284.724 173.175C279.94 173.175 276.062 177.053 276.062 181.837C276.062 186.621 279.94 190.499 284.724 190.499Z" fill="#009900"/>
<path d="M322.404 275.108H315.766L312.608 249.507L322.405 249.507L322.404 275.108Z" fill="#E6CF00"/>
<path d="M311.026 273.211H323.827V281.27H302.967C302.967 280.212 303.175 279.164 303.58 278.186C303.985 277.208 304.579 276.32 305.327 275.571C306.076 274.823 306.964 274.229 307.942 273.824C308.92 273.419 309.968 273.211 311.026 273.211Z" fill="#333333"/>
<path d="M355.428 275.108H348.791L345.633 249.507L355.429 249.507L355.428 275.108Z" fill="#E6CF00"/>
<path d="M344.049 273.211H356.849V281.27H335.989C335.989 280.212 336.198 279.164 336.603 278.186C337.008 277.208 337.601 276.32 338.35 275.571C339.098 274.823 339.987 274.229 340.964 273.824C341.942 273.419 342.99 273.211 344.049 273.211Z" fill="#333333"/>
<path d="M289.108 183.553C288.631 182.849 288.313 182.049 288.178 181.21C288.043 180.371 288.094 179.512 288.327 178.694C288.56 177.876 288.969 177.119 289.526 176.477C290.083 175.835 290.774 175.322 291.55 174.976L314.113 112.789L325.215 118.848L299.453 178.275C299.949 179.618 299.935 181.097 299.413 182.43C298.892 183.763 297.9 184.859 296.625 185.509C295.35 186.159 293.88 186.32 292.495 185.959C291.109 185.598 289.904 184.742 289.108 183.553Z" fill="#E6CF00"/>
<path d="M352.038 195.238C351.301 194.815 350.665 194.235 350.175 193.54C349.686 192.845 349.355 192.051 349.206 191.214C349.056 190.377 349.092 189.517 349.311 188.696C349.53 187.874 349.926 187.11 350.472 186.459L343.482 120.676L356.117 121.253L359.022 185.959C360.056 186.949 360.692 188.283 360.808 189.71C360.924 191.137 360.512 192.557 359.651 193.7C358.791 194.844 357.54 195.632 356.137 195.916C354.734 196.199 353.275 195.958 352.038 195.238Z" fill="#E6CF00"/>
<path d="M331.883 101.27C339.226 101.27 345.18 95.3173 345.18 87.9736C345.18 80.63 339.226 74.6768 331.883 74.6768C324.539 74.6768 318.586 80.63 318.586 87.9736C318.586 95.3173 324.539 101.27 331.883 101.27Z" fill="#E6CF00"/>
<path d="M351.952 180.277H311.864L311.913 179.965C311.985 179.499 319.057 133.169 313.841 118.012C313.317 116.522 313.363 114.892 313.97 113.434C314.577 111.977 315.701 110.795 317.127 110.117C324.582 106.605 338.894 102.282 350.974 112.774C352.751 114.344 354.139 116.305 355.028 118.503C355.917 120.702 356.282 123.077 356.095 125.44L351.952 180.277Z" fill="#009900"/>
<path d="M319.563 140.015L301.516 136.354L309.975 116.307C310.482 114.365 311.737 112.703 313.467 111.686C315.197 110.669 317.259 110.38 319.202 110.881C321.145 111.383 322.81 112.634 323.831 114.362C324.852 116.089 325.147 118.151 324.65 120.095L319.563 140.015Z" fill="#009900"/>
<path d="M342.678 146.814L341.593 121.942C340.77 117.267 343.447 112.847 347.563 112.124C351.68 111.405 355.701 114.647 356.527 119.357L360.606 142.597L342.678 146.814Z" fill="#009900"/>
<path d="M350.618 177.299C357.069 201.865 357.772 233.099 356.032 267.168L347.37 266.086L331.67 201.12L323.008 267.168L313.263 266.627C310.352 230.88 307.517 200.191 312.18 180.006L350.618 177.299Z" fill="#333333"/>
<path d="M340.643 98.2499C338.163 100.892 333.556 99.4738 333.233 95.8639C333.208 95.5837 333.209 95.3016 333.238 95.0217C333.405 93.4227 334.329 91.971 334.108 90.2827C334.058 89.8625 333.901 89.4621 333.653 89.1193C331.676 86.4723 327.036 90.3032 325.17 87.907C324.027 86.4377 325.371 84.1243 324.493 82.4821C323.335 80.3146 319.903 81.3839 317.751 80.1969C315.357 78.8762 315.5 75.2025 317.076 72.968C318.998 70.2429 322.369 68.7888 325.697 68.5792C329.025 68.3697 332.33 69.2694 335.437 70.4803C338.968 71.8561 342.469 73.7575 344.641 76.8618C347.283 80.6369 347.537 85.7122 346.216 90.1265C345.412 92.8118 342.669 96.0921 340.643 98.2499Z" fill="#333333"/>
<path d="M455.248 281.528H55.5509C55.3803 281.528 55.2168 281.46 55.0964 281.339C54.9759 281.218 54.9082 281.054 54.9082 280.884C54.9082 280.713 54.9759 280.549 55.0964 280.428C55.2168 280.308 55.3803 280.24 55.5509 280.239H455.248C455.419 280.24 455.582 280.308 455.703 280.428C455.823 280.549 455.891 280.713 455.891 280.884C455.891 281.054 455.823 281.218 455.703 281.339C455.582 281.46 455.419 281.528 455.248 281.528Z" fill="#808080"/>
<path d="M254.407 222.44H184.028C183.101 222.445 182.21 222.082 181.55 221.431C180.89 220.78 180.516 219.894 180.509 218.967V61.8753C180.516 60.9484 180.89 60.0622 181.55 59.4111C182.21 58.76 183.101 58.3972 184.028 58.4022H254.407C255.334 58.3972 256.225 58.76 256.885 59.4111C257.544 60.0622 257.919 60.9484 257.926 61.8753V218.967C257.919 219.894 257.544 220.78 256.885 221.431C256.225 222.082 255.334 222.445 254.407 222.44Z" fill="white"/>
<path d="M257.926 109.232H180.509V110.315H257.926V109.232Z" fill="#B3B3B3"/>
<path d="M258.197 171.009H180.779V172.092H258.197V171.009Z" fill="#B3B3B3"/>
<path d="M205.954 58.4021H204.871V222.982H205.954V58.4021Z" fill="#B3B3B3"/>
<path d="M233.023 58.4021H231.94V222.982H233.023V58.4021Z" fill="#B3B3B3"/>
</g>
<defs>
<clipPath id="clip0_327_7746">
<rect width="471" height="281.592" fill="white" transform="translate(0.5 0.203857)"/>
</clipPath>
</defs>
</svg>
