<svg width="32" height="32" viewBox="0 0 32 32" fill="none" xmlns="http://www.w3.org/2000/svg">
<path d="M11 12V7C11 6.20435 11.3161 5.44129 11.8787 4.87868C12.4413 4.31607 13.2044 4 14 4H22C22.7957 4 23.5587 4.31607 24.1213 4.87868C24.6839 5.44129 25 6.20435 25 7V25C25 25.7957 24.6839 26.5587 24.1213 27.1213C23.5587 27.6839 22.7957 28 22 28H14C13.2044 28 12.4413 27.6839 11.8787 27.1213C11.3161 26.5587 11 25.7957 11 25V20M7 20L3 16M3 16L7 12M3 16H20" stroke="#009900" stroke-width="1.5" stroke-linecap="round" stroke-linejoin="round"/>
</svg>
