<svg width="32" height="32" viewBox="0 0 32 32" fill="none" xmlns="http://www.w3.org/2000/svg">
<path d="M20.9996 8C20.9996 9.32608 20.4729 10.5979 19.5352 11.5355C18.5975 12.4732 17.3257 13 15.9996 13C14.6736 13 13.4018 12.4732 12.4641 11.5355C11.5264 10.5979 10.9996 9.32608 10.9996 8C10.9996 6.67392 11.5264 5.40215 12.4641 4.46447C13.4018 3.52678 14.6736 3 15.9996 3C17.3257 3 18.5975 3.52678 19.5352 4.46447C20.4729 5.40215 20.9996 6.67392 20.9996 8ZM6.00098 26.824C6.04382 24.2005 7.11609 21.6989 8.98655 19.8587C10.857 18.0186 13.3758 16.9873 15.9996 16.9873C18.6235 16.9873 21.1423 18.0186 23.0127 19.8587C24.8832 21.6989 25.9555 24.2005 25.9983 26.824C22.8615 28.2624 19.4505 29.0047 15.9996 29C12.4316 29 9.04498 28.2213 6.00098 26.824Z" stroke="#009900" stroke-width="1.5" stroke-linecap="round" stroke-linejoin="round"/>
</svg>
