<svg width="472" height="317" viewBox="0 0 472 317" fill="none" xmlns="http://www.w3.org/2000/svg">
<g clip-path="url(#clip0_349_4803)">
<path d="M471.502 168.44C471.502 232.295 431.029 286.703 374.34 307.405C365.717 310.561 356.815 312.897 347.753 314.384C322.823 318.472 297.262 316.151 273.477 307.638C216.429 287.106 175.661 232.515 175.688 168.408C175.688 86.7545 241.91 20.5324 323.595 20.5324C354.466 20.4875 384.571 30.1456 409.654 48.1417C447.102 74.9712 471.502 118.855 471.502 168.44Z" fill="#CCCCCC"/>
<path d="M374.338 307.405C365.715 310.561 356.813 312.897 347.751 314.383C322.821 318.472 297.26 316.151 273.475 307.638L280.305 280.23L280.717 278.585L294.657 278.639L364.684 278.89L365.58 281.539L374.338 307.405Z" fill="#333333"/>
<path d="M128.978 0.65332H0.5V146.03H128.978V0.65332Z" fill="#E6E6E6"/>
<path d="M126.464 3.729H2.79199V142.955H126.464V3.729Z" fill="white"/>
<path d="M64.741 138.005C68.5696 138.005 71.6733 134.901 71.6733 131.073C71.6733 127.244 68.5696 124.14 64.741 124.14C60.9123 124.14 57.8086 127.244 57.8086 131.073C57.8086 134.901 60.9123 138.005 64.741 138.005Z" fill="#E6E6E6"/>
<path d="M63.569 53.0117H23.752V57.085H63.569V53.0117Z" fill="#E6E6E6"/>
<path d="M83.8466 65.2178H23.752V69.291H83.8466V65.2178Z" fill="#009900"/>
<path d="M77.9478 77.5005H23.752V81.5738H77.9478V77.5005Z" fill="#E6E6E6"/>
<path d="M107.442 89.4585H23.752V93.5318H107.442V89.4585Z" fill="#009900"/>
<path d="M92.8274 100.847H24.6221V104.92H92.8274V100.847Z" fill="#E6E6E6"/>
<path d="M183.193 237.211C183.681 237.713 184.13 238.253 184.533 238.825L247.331 237.288L254.657 223.901L276.305 232.317L265.638 257.276C264.776 259.292 263.284 260.975 261.384 262.071C259.485 263.166 257.282 263.617 255.105 263.354L184.154 254.783C182.481 256.902 180.202 258.461 177.62 259.253C175.039 260.045 172.278 260.032 169.704 259.216C167.13 258.401 164.866 256.821 163.212 254.686C161.558 252.552 160.593 249.965 160.445 247.269C160.297 244.573 160.973 241.896 162.384 239.594C163.795 237.292 165.873 235.474 168.342 234.382C170.812 233.29 173.555 232.975 176.207 233.48C178.86 233.985 181.295 235.285 183.191 237.209L183.193 237.211Z" fill="#E6CF00"/>
<path d="M267.717 160.77L297.105 151.138L305.737 139.301L347.74 141.787L353.907 155.6L376.305 166.184L372.863 230.108L366.974 289.933C336.694 274.253 280.184 286.207 279.69 286.402L267.717 160.77Z" fill="#009900"/>
<path d="M273.999 247.295L244.106 235.335L244.234 234.803C244.362 234.266 257.085 181.101 258.774 172.557C260.534 163.657 266.963 161.195 267.236 161.095L267.435 161.022L279.265 164.623L284.461 205.446L273.999 247.295Z" fill="#009900"/>
<path d="M338.54 287.304C339.241 287.287 339.942 287.326 340.637 287.419L382.206 240.326L377.371 225.855L398.261 215.702L409.311 240.494C410.204 242.496 410.423 244.735 409.935 246.873C409.448 249.01 408.28 250.932 406.607 252.35L352.083 298.548C352.498 301.215 352.092 303.946 350.917 306.378C349.743 308.809 347.856 310.824 345.508 312.157C343.159 313.49 340.461 314.076 337.772 313.837C335.082 313.599 332.529 312.548 330.452 310.823C328.375 309.098 326.872 306.782 326.143 304.182C325.414 301.582 325.494 298.822 326.372 296.269C327.25 293.716 328.885 291.491 331.058 289.889C333.232 288.288 335.842 287.386 338.54 287.304Z" fill="#E6CF00"/>
<path d="M378.889 244.91L361.549 204.121L368.312 175.709L375.6 166.502C376.133 166.274 376.709 166.159 377.289 166.164C377.869 166.17 378.442 166.295 378.972 166.533C381.661 167.615 383.947 170.93 385.774 176.387L402.026 222.677L378.889 244.91Z" fill="#009900"/>
<path d="M288.922 124.186V93.4352C288.904 88.0239 289.952 82.662 292.007 77.6557C294.061 72.6494 297.081 68.0968 300.895 64.2577C304.708 60.4186 309.241 57.3683 314.234 55.2809C319.226 53.1935 324.581 52.11 329.992 52.092C335.404 52.0741 340.766 53.1222 345.772 55.1765C350.778 57.2307 355.331 60.2509 359.17 64.0647C363.009 67.8784 366.059 72.4109 368.147 77.4035C370.234 82.396 371.318 87.7509 371.336 93.1622C371.336 93.2532 371.336 93.3442 371.336 93.4352V124.186C371.334 125.654 370.75 127.061 369.712 128.099C368.675 129.136 367.268 129.72 365.8 129.722H294.457C292.99 129.72 291.583 129.136 290.545 128.099C289.507 127.061 288.924 125.654 288.922 124.186Z" fill="#333333"/>
<path d="M321.66 129.005C338.346 129.005 351.872 115.479 351.872 98.7942C351.872 82.109 338.346 68.583 321.66 68.583C304.975 68.583 291.449 82.109 291.449 98.7942C291.449 115.479 304.975 129.005 321.66 129.005Z" fill="#E6CF00"/>
<path d="M279.173 95.8953C279.183 87.2532 282.62 78.9678 288.731 72.8569C294.842 66.7459 303.127 63.3086 311.769 63.2988H317.92C326.562 63.3086 334.847 66.746 340.958 72.8569C347.069 78.9678 350.506 87.2532 350.516 95.8953V96.5103H337.518L333.085 84.095L332.198 96.5103H325.482L323.245 90.2471L322.797 96.5103H279.173V95.8953Z" fill="#333333"/>
<path d="M318.688 133.18C318.077 132.354 317.713 131.372 317.636 130.348C317.56 129.323 317.774 128.298 318.254 127.39C324.772 114.994 333.896 92.0876 321.785 77.9611L320.916 76.9473H356.08V129.741L324.136 135.377C323.813 135.435 323.485 135.463 323.157 135.464C322.285 135.464 321.425 135.257 320.649 134.86C319.872 134.463 319.201 133.888 318.69 133.182L318.688 133.18Z" fill="#333333"/>
<path d="M64.6254 11.9761C61.7097 11.9759 58.8595 12.8404 56.4352 14.4601C54.0108 16.0798 52.1212 18.3821 51.0053 21.0757C49.8893 23.7694 49.5973 26.7335 50.1659 29.5931C50.7346 32.4528 52.1385 35.0796 54.2001 37.1414C56.2616 39.2032 58.8883 40.6073 61.7479 41.1763C64.6075 41.7453 67.5716 41.4535 70.2654 40.3379C72.9592 39.2222 75.2616 37.3328 76.8816 34.9087C78.5016 32.4845 79.3663 29.6343 79.3665 26.7187V26.7179C79.3665 24.782 78.9852 22.865 78.2443 21.0764C77.5035 19.2879 76.4176 17.6628 75.0487 16.2939C73.6798 14.9249 72.0547 13.8391 70.2661 13.0982C68.4775 12.3574 66.5606 11.9761 64.6246 11.9761H64.6254ZM64.6254 16.3982C65.5 16.3982 66.355 16.6576 67.0822 17.1435C67.8094 17.6294 68.3762 18.32 68.7109 19.1281C69.0456 19.9361 69.1332 20.8253 68.9626 21.6831C68.792 22.5409 68.3708 23.3288 67.7524 23.9473C67.1339 24.5657 66.346 24.9869 65.4882 25.1576C64.6303 25.3282 63.7412 25.2406 62.9331 24.9059C62.1251 24.5712 61.4344 24.0044 60.9485 23.2772C60.4626 22.55 60.2033 21.695 60.2033 20.8204C60.2033 19.6476 60.6692 18.5228 61.4985 17.6935C62.3278 16.8641 63.4526 16.3982 64.6254 16.3982ZM64.6254 37.6885C62.8783 37.6805 61.1596 37.2464 59.6182 36.4238C58.0769 35.6012 56.7595 34.415 55.7803 32.9681C55.8513 30.0197 61.677 28.3968 64.6254 28.3968C67.5738 28.3968 73.3995 30.0197 73.4705 32.9681C72.4902 34.4139 71.1726 35.5993 69.6315 36.4218C68.0904 37.2442 66.3722 37.679 64.6254 37.6885Z" fill="#009900"/>
<path d="M64.7988 133.73C70.872 122.601 85.4206 115.553 97.3218 121.906C102.679 124.765 106.937 129.822 108.289 135.8C109.858 142.744 106.552 149.365 103.14 155.199C101.288 158.366 99.2585 161.468 97.7256 164.808C96.1385 168.266 95.0041 172.264 96.199 176.027C97.2747 179.416 99.972 181.882 102.926 183.694C106.186 185.618 109.653 187.167 113.262 188.311C120.69 190.781 128.525 191.795 136.337 191.296C140.22 191.032 144.07 190.41 147.838 189.437C151.847 188.415 155.78 187.12 159.795 186.12C166.498 184.455 174.142 183.627 180.498 186.972C186.673 190.222 189.437 197.02 190.292 203.633C191.87 215.845 187.028 228.518 178.286 237.069C174.092 241.172 168.814 244.562 163.065 245.949C158.049 247.159 151.609 247.081 147.617 243.332C143.163 239.147 144.211 232.436 147.748 228.021C152.264 222.387 159.914 221.034 166.74 220.897C174.506 220.741 182.264 221.898 190.026 221.179C193.814 220.884 197.531 219.987 201.037 218.523C204.119 217.167 206.931 215.264 209.335 212.907C214.127 208.252 217.358 202.051 218.965 195.603C220.9 187.849 220.478 179.7 218.976 171.911C218.176 167.895 217.145 163.928 215.889 160.031C215.371 158.386 212.773 159.089 213.296 160.746C217.921 175.413 220.5 192.372 211.563 205.99C207.865 211.765 202.104 215.912 195.454 217.586C187.719 219.509 179.603 218.558 171.74 218.272C164.263 218 156.053 218.294 149.643 222.649C144.385 226.221 140.708 233.014 142.297 239.428C143.83 245.613 149.774 248.751 155.719 249.234C161.956 249.742 168.094 247.649 173.333 244.375C184.23 237.565 191.476 225.589 192.992 212.892C193.782 206.276 192.978 199.15 189.978 193.145C188.397 189.894 185.936 187.152 182.875 185.229C179.823 183.358 176.297 182.437 172.757 182.111C164.712 181.37 156.984 184.132 149.352 186.245C145.454 187.376 141.458 188.138 137.418 188.523C133.496 188.848 129.552 188.784 125.642 188.331C121.764 187.874 117.941 187.025 114.233 185.799C110.599 184.675 107.119 183.102 103.875 181.116C101.014 179.286 98.5387 176.665 98.3979 173.094C98.2451 169.221 100.198 165.598 102.055 162.333C105.725 155.883 110.257 149.574 111.214 142.023C112.052 135.418 109.395 128.907 104.805 124.196C102.505 121.805 99.7357 119.915 96.671 118.643C93.6063 117.372 90.3121 116.747 86.9947 116.808C80.1852 117.003 73.6652 119.964 68.6565 124.512C66.1723 126.769 64.0819 129.424 62.4713 132.369C61.6416 133.889 63.9629 135.247 64.7934 133.726L64.7988 133.73Z" fill="#4D4D4D"/>
</g>
<defs>
<clipPath id="clip0_349_4803">
<rect width="471" height="315.693" fill="white" transform="translate(0.5 0.65332)"/>
</clipPath>
</defs>
</svg>
