<svg width="472" height="314" viewBox="0 0 472 314" fill="none" xmlns="http://www.w3.org/2000/svg">
<g clip-path="url(#clip0_349_5748)">
<path d="M169.448 180.635C185.589 152.241 216.379 130.439 248.972 132.539C224.93 158.683 210.911 192.489 209.395 227.975C208.859 241.663 209.689 256.942 200.601 267.192C194.947 273.569 186.303 276.657 177.805 277.305C169.306 277.953 160.809 276.418 152.424 274.889L150.39 275.513C149.616 242.861 153.307 209.029 169.448 180.635Z" fill="#E6E6E6"/>
<path d="M249.02 133.223C224.918 144.826 204.366 164.204 191.75 187.837C189.022 192.946 186.7 198.367 185.687 204.098C184.674 209.832 185.382 215.29 187.34 220.736C189.13 225.715 191.538 230.6 192.087 235.927C192.666 241.542 190.6 246.792 186.881 250.959C182.331 256.057 176.22 259.216 170.137 262.098C163.383 265.298 156.316 268.514 151.533 274.486C150.953 275.21 149.864 274.268 150.443 273.545C158.766 263.156 173.013 261.203 182.893 252.833C187.503 248.928 190.964 243.609 190.745 237.378C190.554 231.929 188.076 226.889 186.219 221.864C184.27 216.587 183.298 211.281 183.997 205.656C184.712 199.901 186.827 194.378 189.412 189.221C195.242 177.592 203.22 166.915 212.36 157.685C222.864 147.076 235.105 138.342 248.554 131.86C249.387 131.46 249.848 132.824 249.02 133.223Z" fill="white"/>
<path d="M195.446 179.939C191.751 177.237 189.137 173.31 188.07 168.859C187.004 164.407 187.554 159.722 189.623 155.639C190.045 154.814 191.346 155.43 190.924 156.256C188.99 160.054 188.478 164.419 189.48 168.562C190.482 172.705 192.931 176.354 196.387 178.849C197.137 179.392 196.192 180.479 195.446 179.939Z" fill="white"/>
<path d="M186.1 218.331C195.359 216.978 203.768 212.185 209.65 204.908C210.232 204.187 211.321 205.128 210.74 205.849C204.605 213.41 195.844 218.38 186.206 219.767C185.287 219.898 185.187 218.462 186.1 218.331Z" fill="white"/>
<path d="M223.575 148.847C224.787 150.191 226.314 151.212 228.018 151.819C229.722 152.427 231.55 152.602 233.338 152.328C234.255 152.185 234.354 153.621 233.444 153.764C231.467 154.057 229.448 153.861 227.563 153.194C225.679 152.527 223.987 151.409 222.635 149.937C222.495 149.809 222.41 149.633 222.397 149.444C222.383 149.256 222.441 149.069 222.56 148.922C222.685 148.778 222.862 148.69 223.052 148.676C223.242 148.662 223.43 148.723 223.575 148.847Z" fill="white"/>
<path d="M313.824 222.112C313.254 222.218 312.684 222.324 312.109 222.44C304.456 223.9 296.934 225.98 289.617 228.658C289.048 228.856 288.474 229.065 287.912 229.279C270.354 235.919 254.181 245.761 240.215 258.305C234.663 263.302 229.498 268.714 224.767 274.494C218.233 282.477 211.784 291.653 203.245 296.858C202.361 297.411 201.442 297.909 200.496 298.348L151.31 277.946C151.221 277.844 151.127 277.752 151.038 277.65L149.037 276.925C149.26 276.61 149.499 276.288 149.722 275.972C149.851 275.789 149.99 275.61 150.119 275.427C150.208 275.306 150.298 275.185 150.372 275.071C150.401 275.031 150.431 274.991 150.456 274.962C150.53 274.848 150.611 274.75 150.68 274.647C152.006 272.843 153.348 271.045 154.705 269.253C154.71 269.242 154.71 269.242 154.726 269.235C165.099 255.611 176.701 242.733 189.889 232.025C190.286 231.703 190.687 231.369 191.106 231.057C197.078 226.263 203.431 221.966 210.102 218.207C213.762 216.161 217.523 214.301 221.371 212.635C231.321 208.349 241.884 205.655 252.671 204.652C274.176 202.655 296.08 207.558 312.574 221.068C312.995 221.414 313.407 221.755 313.824 222.112Z" fill="#E6E6E6"/>
<path d="M313.454 222.691C287.223 217.444 259.147 220.543 234.845 231.817C229.591 234.254 224.473 237.184 220.214 241.15C215.952 245.118 213.231 249.902 211.516 255.429C209.948 260.482 208.93 265.833 206.161 270.417C203.242 275.248 198.432 278.197 192.953 279.284C186.251 280.616 179.47 279.459 172.878 278.097C165.558 276.586 157.98 274.899 150.565 276.787C149.666 277.016 149.364 275.609 150.261 275.38C163.162 272.096 175.713 279.114 188.641 278.38C194.673 278.037 200.638 275.874 204.216 270.767C207.344 266.301 208.399 260.785 209.943 255.655C211.563 250.268 213.981 245.447 217.926 241.376C221.962 237.212 226.976 234.075 232.145 231.514C243.801 225.739 256.6 222.017 269.454 220.15C284.228 218.004 299.261 218.4 313.902 221.323C314.808 221.504 314.354 222.871 313.454 222.691Z" fill="white"/>
<path d="M242.551 227.735C241.227 223.354 241.504 218.644 243.333 214.448C245.161 210.251 248.422 206.841 252.532 204.827C253.365 204.422 254.033 205.698 253.199 206.103C249.368 207.972 246.331 211.148 244.636 215.059C242.942 218.971 242.701 223.359 243.958 227.432C244.23 228.317 242.821 228.616 242.551 227.735Z" fill="white"/>
<path d="M211.974 252.763C220.182 257.257 229.781 258.493 238.859 256.224C239.758 255.998 240.061 257.405 239.163 257.631C229.712 259.974 219.725 258.668 211.194 253.972C210.382 253.524 211.166 252.317 211.974 252.763Z" fill="white"/>
<path d="M283.73 219.846C283.889 221.648 284.493 223.383 285.487 224.894C286.482 226.405 287.837 227.645 289.429 228.503C290.247 228.941 289.462 230.148 288.649 229.713C286.894 228.757 285.4 227.385 284.297 225.718C283.194 224.051 282.516 222.139 282.323 220.15C282.289 219.964 282.327 219.772 282.429 219.613C282.532 219.454 282.691 219.34 282.874 219.294C283.061 219.255 283.255 219.291 283.415 219.394C283.576 219.498 283.689 219.66 283.73 219.846Z" fill="white"/>
<path d="M220.126 255.772C213.238 222.465 204.627 211.36 204.627 211.36L201.338 208.809L197.382 205.736L197.401 205.341L196.463 205.022L196.242 204.851L195.881 204.574L195.823 204.636L195.701 204.763L177.8 198.679L155.09 190.965L144.574 177.296C142.861 175.069 140.656 173.27 138.131 172.039C135.607 170.807 132.832 170.177 130.023 170.198L96.4376 170.447C91.8965 170.48 87.5322 172.211 84.2027 175.3L62.1276 195.776L27.7303 212.204L27.6723 212.146L27.3111 212.404L21.9964 214.945L22.2157 216.087L18.9262 218.46C18.9262 218.46 10.3156 228.793 3.42715 259.785C1.67479 267.67 0.812218 284.586 0.500875 305.431C0.485236 306.486 0.679384 307.533 1.07202 308.512C1.46466 309.49 2.04796 310.381 2.78801 311.133C3.52806 311.884 4.41008 312.481 5.3828 312.888C6.35552 313.296 7.39953 313.506 8.45412 313.506H192.177L215.108 313.506C216.161 313.505 217.205 313.296 218.177 312.889C219.149 312.482 220.031 311.886 220.77 311.135C221.51 310.385 222.094 309.495 222.487 308.517C222.88 307.539 223.075 306.493 223.061 305.44C222.757 282.757 221.895 264.323 220.126 255.772Z" fill="#008020"/>
<path d="M243.699 29.54C236.551 29.54 229.696 32.3795 224.642 37.4338C219.588 42.4882 216.748 49.3433 216.748 56.4912C216.748 63.6391 219.588 70.4942 224.642 75.5485C229.696 80.6028 236.551 83.4423 243.699 83.4423H444.549C451.697 83.4423 458.552 80.6028 463.607 75.5485C468.661 70.4942 471.5 63.6391 471.5 56.4912C471.5 49.3433 468.661 42.4882 463.607 37.4338C458.552 32.3795 451.697 29.54 444.549 29.54H243.699Z" fill="#B3B3B3"/>
<path d="M243.699 34.9946C237.998 34.9946 232.53 37.2595 228.498 41.2909C224.467 45.3223 222.202 50.7901 222.202 56.4914C222.202 62.1927 224.467 67.6604 228.498 71.6919C232.53 75.7233 237.998 77.9881 243.699 77.9881H444.549C450.25 77.9881 455.718 75.7233 459.749 71.6919C463.781 67.6604 466.046 62.1927 466.046 56.4914C466.046 50.7901 463.781 45.3223 459.749 41.2909C455.718 37.2595 450.25 34.9946 444.549 34.9946H243.699Z" fill="white"/>
<path d="M118.505 157.581C142.805 157.581 162.505 137.882 162.505 113.581C162.505 89.2805 142.805 69.5811 118.505 69.5811C94.2044 69.5811 74.5049 89.2805 74.5049 113.581C74.5049 137.882 94.2044 157.581 118.505 157.581Z" fill="#E6CF00"/>
<path d="M107.249 155.427C107.061 155.013 106.873 154.597 106.687 154.181C106.759 154.183 106.83 154.193 106.902 154.195L107.249 155.427Z" fill="#333333"/>
<path d="M73.2813 71.5817C75.5067 69.8064 78.1077 68.173 80.9529 68.2648C83.7981 68.3565 86.6834 70.9263 86.0939 73.7113C91.32 64.458 99.6384 57.3412 109.589 53.61C119.54 49.8788 130.486 49.7717 140.508 53.3075C147.58 55.8024 154.514 60.7937 156.139 68.1144C156.556 69.9936 156.645 72.0542 157.819 73.5802C159.298 75.5042 162.129 75.9394 164.46 75.2626C164.483 75.2558 164.506 75.249 164.529 75.242C164.923 75.1076 165.348 75.0944 165.749 75.2041C166.151 75.3138 166.51 75.5414 166.781 75.8575C167.051 76.1736 167.221 76.5636 167.267 76.9771C167.314 77.3905 167.235 77.8085 167.041 78.1767L165.04 81.9084C167.563 82.4706 170.184 82.4149 172.68 81.7459C173.094 81.6372 173.532 81.6594 173.934 81.8095C174.335 81.9596 174.681 82.2303 174.922 82.5843C175.164 82.9384 175.29 83.3586 175.283 83.7872C175.277 84.2158 175.138 84.6319 174.885 84.9783C168.288 94.0366 157.265 99.886 146.017 99.8172C138.022 99.7685 129.945 97.0132 122.165 98.8516C119.155 99.5629 116.342 100.939 113.933 102.879C111.524 104.819 109.581 107.274 108.244 110.063C106.908 112.852 106.213 115.905 106.21 118.998C106.208 122.091 106.898 125.145 108.229 127.937C105.839 125.322 101.219 125.941 98.7736 128.505C96.3287 131.068 95.6957 134.894 95.9421 138.428C96.3188 143.833 98.4364 148.925 100.669 153.882C81.9518 153.293 64.2484 140.163 58.2895 122.405C52.3055 104.572 58.5769 83.3118 73.2813 71.5817Z" fill="#333333"/>
<path opacity="0.2" d="M43.8076 245.716L56.1486 312.861L63.5535 313.506L43.8076 245.716Z" fill="black"/>
<path opacity="0.2" d="M179.746 240.652L167.405 312.813L160 313.506L179.746 240.652Z" fill="black"/>
<path d="M83.8063 48.9843C81.4401 49.9723 78.9711 48.8895 77.9356 46.4097C76.8843 43.892 77.8662 41.3362 80.2703 40.3324C82.6747 39.3284 85.0998 40.4139 86.168 42.9722C87.2203 45.4921 86.2491 47.9643 83.8063 48.9843ZM79.2737 35.3767L77.3923 36.1623C76.9222 36.3563 76.3966 36.3667 75.9192 36.1916C75.4419 36.0165 75.0476 35.6687 74.8145 35.2169L74.7214 35.0348C72.6971 31.3839 72.4653 26.9468 74.0362 21.8536C75.4914 17.2847 76.0958 14.0715 74.8803 11.1604C73.4749 7.79473 70.4738 6.74041 66.6468 8.2677C65.1625 8.88749 64.6902 8.87762 63.5221 10.0364C63.268 10.2915 62.9652 10.4928 62.6316 10.6284C62.298 10.7639 61.9406 10.8309 61.5805 10.8253C61.2325 10.8212 60.8888 10.7471 60.5701 10.6073C60.2513 10.4676 59.964 10.265 59.7252 10.0118C59.2651 9.52384 59.0073 8.87945 59.0039 8.2088C59.0006 7.53814 59.2518 6.89118 59.7069 6.39858C61.6703 4.34335 64.0383 2.7174 66.6616 1.62334C74.8842 -1.81015 79.0235 3.2589 80.9177 7.79522C82.7705 12.2323 81.7283 16.3491 80.0537 21.6808C78.6504 26.1111 78.7321 29.3939 80.3262 32.658C80.4413 32.9048 80.5053 33.1723 80.5145 33.4444C80.5236 33.7166 80.4776 33.9877 80.3793 34.2417C80.281 34.4956 80.1324 34.727 79.9424 34.9221C79.7524 35.1171 79.5249 35.2718 79.2737 35.3767Z" fill="#009900"/>
<path d="M288.064 69.345H248.102C247.975 69.3459 247.849 69.3216 247.732 69.2736C247.614 69.2257 247.507 69.1549 247.417 69.0654C247.327 68.976 247.255 68.8696 247.207 68.7524C247.158 68.6351 247.133 68.5094 247.133 68.3825C247.133 68.2555 247.158 68.1298 247.207 68.0126C247.255 67.8954 247.327 67.789 247.417 67.6995C247.507 67.6101 247.614 67.5393 247.732 67.4913C247.849 67.4433 247.975 67.4191 248.102 67.4199H288.064C288.318 67.4217 288.561 67.5238 288.74 67.7042C288.919 67.8845 289.02 68.1283 289.02 68.3825C289.02 68.6366 288.919 68.8805 288.74 69.0608C288.561 69.2411 288.318 69.3433 288.064 69.345Z" fill="#009900"/>
<path d="M338.758 69.6658H298.796C298.669 69.6667 298.543 69.6424 298.426 69.5945C298.308 69.5465 298.201 69.4757 298.111 69.3862C298.021 69.2968 297.95 69.1904 297.901 69.0732C297.852 68.9559 297.827 68.8302 297.827 68.7033C297.827 68.5763 297.852 68.4506 297.901 68.3334C297.95 68.2162 298.021 68.1098 298.111 68.0203C298.201 67.9309 298.308 67.8601 298.426 67.8121C298.543 67.7641 298.669 67.7399 298.796 67.7407H338.758C338.885 67.7399 339.011 67.7641 339.128 67.8121C339.246 67.8601 339.353 67.9309 339.443 68.0203C339.533 68.1098 339.604 68.2162 339.653 68.3334C339.702 68.4506 339.727 68.5763 339.727 68.7033C339.727 68.8302 339.702 68.9559 339.653 69.0732C339.604 69.1904 339.533 69.2968 339.443 69.3862C339.353 69.4757 339.246 69.5465 339.128 69.5945C339.011 69.6424 338.885 69.6667 338.758 69.6658Z" fill="#009900"/>
<path d="M389.452 69.9866H349.49C349.236 69.9849 348.993 69.8827 348.814 69.7024C348.635 69.5221 348.534 69.2782 348.534 69.0241C348.534 68.7699 348.635 68.5261 348.814 68.3458C348.993 68.1654 349.236 68.0633 349.49 68.0615H389.452C389.579 68.0607 389.705 68.0849 389.822 68.1329C389.94 68.1809 390.047 68.2517 390.137 68.3411C390.227 68.4306 390.298 68.537 390.347 68.6542C390.396 68.7714 390.421 68.8971 390.421 69.0241C390.421 69.151 390.396 69.2767 390.347 69.394C390.298 69.5112 390.227 69.6176 390.137 69.707C390.047 69.7965 389.94 69.8673 389.822 69.9152C389.705 69.9632 389.579 69.9875 389.452 69.9866Z" fill="#009900"/>
<path d="M440.145 70.3074H400.184C399.929 70.3057 399.686 70.2035 399.507 70.0232C399.328 69.8429 399.228 69.599 399.228 69.3449C399.228 69.0907 399.328 68.8469 399.507 68.6665C399.686 68.4862 399.929 68.3841 400.184 68.3823H440.145C440.399 68.3841 440.643 68.4862 440.822 68.6665C441.001 68.8469 441.101 69.0907 441.101 69.3449C441.101 69.599 441.001 69.8429 440.822 70.0232C440.643 70.2035 440.399 70.3057 440.145 70.3074Z" fill="#009900"/>
<path d="M267.996 60.4867C272.097 60.4867 275.423 57.1614 275.423 53.0595C275.423 48.9576 272.097 45.6323 267.996 45.6323C263.894 45.6323 260.568 48.9576 260.568 53.0595C260.568 57.1614 263.894 60.4867 267.996 60.4867Z" fill="#009900"/>
<path d="M318.996 60.4867C323.097 60.4867 326.423 57.1614 326.423 53.0595C326.423 48.9576 323.097 45.6323 318.996 45.6323C314.894 45.6323 311.568 48.9576 311.568 53.0595C311.568 57.1614 314.894 60.4867 318.996 60.4867Z" fill="#009900"/>
<path d="M369.996 60.4867C374.097 60.4867 377.423 57.1614 377.423 53.0595C377.423 48.9576 374.097 45.6323 369.996 45.6323C365.894 45.6323 362.568 48.9576 362.568 53.0595C362.568 57.1614 365.894 60.4867 369.996 60.4867Z" fill="#009900"/>
<path d="M420.996 60.4867C425.097 60.4867 428.423 57.1614 428.423 53.0595C428.423 48.9576 425.097 45.6323 420.996 45.6323C416.894 45.6323 413.568 48.9576 413.568 53.0595C413.568 57.1614 416.894 60.4867 420.996 60.4867Z" fill="#009900"/>
</g>
<defs>
<clipPath id="clip0_349_5748">
<rect width="471" height="313.012" fill="white" transform="translate(0.5 0.493652)"/>
</clipPath>
</defs>
</svg>
