<svg width="472" height="339" viewBox="0 0 472 339" fill="none" xmlns="http://www.w3.org/2000/svg">
<g clip-path="url(#clip0_347_3846)">
<path d="M12.9707 337.778C12.9707 338.192 13.3028 338.524 13.7165 338.524H470.754C471.167 338.524 471.5 338.192 471.5 337.778C471.5 337.365 471.167 337.033 470.754 337.033H13.7165C13.3028 337.033 12.9707 337.365 12.9707 337.778Z" fill="#B3B3B3"/>
<path d="M159.322 60.1053H12.7394C7.14936 60.1053 2.59961 55.5556 2.59961 49.9655C2.59961 44.3754 7.14936 39.8257 12.7394 39.8257H159.322C164.912 39.8257 169.462 44.3754 169.462 49.9655C169.462 55.5556 164.912 60.1053 159.322 60.1053ZM12.7394 41.0791C7.83872 41.0791 3.85299 45.0648 3.85299 49.9655C3.85299 54.8662 7.83872 58.8519 12.7394 58.8519H159.322C164.222 58.8519 168.208 54.8662 168.208 49.9655C168.208 45.0648 164.222 41.0791 159.322 41.0791H12.7394Z" fill="#E6E6E6"/>
<path d="M159.322 178.769H12.7396C7.3187 178.769 2.91309 174.363 2.91309 168.942C2.91309 163.521 7.3187 159.116 12.7396 159.116H159.322C164.743 159.116 169.148 163.521 169.148 168.942C169.148 174.363 164.743 178.769 159.322 178.769Z" fill="#009900"/>
<path d="M111.286 20.129H10.3265C4.90562 20.129 0.5 15.7234 0.5 10.3025C0.5 4.88169 4.90562 0.476074 10.3265 0.476074H111.286C116.707 0.476074 121.112 4.88169 121.112 10.3025C121.112 15.7234 116.707 20.129 111.286 20.129Z" fill="#E6E6E6"/>
<path d="M159.322 99.762H12.7394C7.14936 99.762 2.59961 95.2123 2.59961 89.6222C2.59961 84.0322 7.14936 79.4824 12.7394 79.4824H159.322C164.912 79.4824 169.462 84.0322 169.462 89.6222C169.462 95.2123 164.912 99.762 159.322 99.762ZM12.7394 80.7358C7.83872 80.7358 3.85299 84.7215 3.85299 89.6222C3.85299 94.5229 7.83872 98.5087 12.7394 98.5087H159.322C164.222 98.5087 168.208 94.5229 168.208 89.6222C168.208 84.7215 164.222 80.7358 159.322 80.7358H12.7394Z" fill="#E6E6E6"/>
<path d="M159.322 139.425H12.7394C7.14936 139.425 2.59961 134.875 2.59961 129.285C2.59961 123.695 7.14936 119.146 12.7394 119.146H159.322C164.912 119.146 169.462 123.695 169.462 129.285C169.462 134.875 164.912 139.425 159.322 139.425ZM12.7394 120.399C7.83872 120.399 3.85299 124.385 3.85299 129.285C3.85299 134.186 7.83872 138.172 12.7394 138.172H159.322C164.222 138.172 168.208 134.186 168.208 129.285C168.208 124.385 164.222 120.399 159.322 120.399H12.7394Z" fill="#E6E6E6"/>
<path d="M7.70076 32.5439H46.1167C47.0317 32.5439 47.7775 33.2834 47.7775 34.2047C47.7775 35.1196 47.0317 35.8654 46.1167 35.8654H7.70076C6.7858 35.8654 6.04004 35.1259 6.04004 34.2047C6.04004 33.2897 6.7858 32.5439 7.70076 32.5439Z" fill="#E6E6E6"/>
<path d="M7.70076 73.1406H46.1167C47.0317 73.1406 47.7775 73.8801 47.7775 74.7951C47.7775 75.71 47.0317 76.4558 46.1167 76.4558H7.70076C6.7858 76.4558 6.04004 75.7163 6.04004 74.8013C6.04004 73.8864 6.7858 73.1406 7.70076 73.1406Z" fill="#E6E6E6"/>
<path d="M7.70076 113.744H46.1167C47.0317 113.744 47.7775 114.483 47.7775 115.404C47.7775 116.319 47.0317 117.059 46.1167 117.059H7.70076C6.7858 117.059 6.04004 116.319 6.04004 115.398C6.04004 114.483 6.7858 113.744 7.70076 113.744Z" fill="#E6E6E6"/>
<path d="M280.68 83.3619L266.667 87.9744V67.8013H279.383L280.68 83.3619Z" fill="#E6CF00"/>
<path d="M268.403 73.3852C276.114 73.3852 282.366 67.1339 282.366 59.4226C282.366 51.7112 276.114 45.46 268.403 45.46C260.692 45.46 254.44 51.7112 254.44 59.4226C254.44 67.1339 260.692 73.3852 268.403 73.3852Z" fill="#E6CF00"/>
<path d="M272.238 58.0375C269.901 57.9686 268.365 55.606 267.457 53.4502C266.548 51.2944 265.614 48.819 263.446 47.9291C261.672 47.2021 258.545 52.1216 257.148 50.8118C255.687 49.4457 257.11 42.433 258.658 41.1734C260.206 39.9137 262.324 39.6693 264.317 39.5753C269.18 39.3497 274.074 39.7445 278.843 40.741C281.795 41.3551 284.828 42.2826 286.959 44.4133C289.654 47.1206 290.343 51.2004 290.537 55.0169C290.738 58.9212 290.512 63.0072 288.614 66.4226C286.715 69.8381 282.741 72.3574 278.931 71.4863C278.549 69.4182 278.937 67.2937 279.088 65.1881C279.232 63.0887 279.082 60.82 277.797 59.1468C276.518 57.4735 273.774 56.8092 272.282 58.2945" fill="#333333"/>
<path d="M289.416 62.8755C290.814 61.854 292.487 60.9954 294.204 61.2085C296.059 61.4341 297.632 62.9632 298.108 64.7744C298.585 66.5855 298.052 68.5784 296.899 70.0573C295.752 71.5363 294.041 72.514 292.236 73.0028C291.19 73.2848 290.043 73.4039 289.046 72.9777C287.58 72.3448 286.784 70.471 287.361 68.9794" fill="#333333"/>
<path d="M235.985 194.248C235.051 198.836 236.762 203.028 239.795 203.611C242.828 204.194 246.043 200.941 246.97 196.354C247.365 194.524 247.303 192.631 246.789 190.827L258.339 118.914L243.893 116.194L238.316 189.203C237.131 190.682 236.336 192.412 235.985 194.255V194.248Z" fill="#E6CF00"/>
<path d="M266.517 78.7183H256.659C249.69 79.7774 247.797 83.4936 246.212 90.3621C243.793 100.84 240.703 114.79 241.317 114.997C242.301 115.323 259.084 123.219 267.638 121.415L266.517 78.7183Z" fill="#E6E6E6"/>
<path d="M276.049 307.779H262.926V326.398H276.049V307.779Z" fill="#E6CF00"/>
<path d="M250.147 337.666C248.769 337.666 247.54 337.635 246.613 337.547C243.129 337.227 239.801 334.652 238.128 333.148C237.376 332.471 237.137 331.393 237.526 330.465C237.808 329.801 238.366 329.3 239.061 329.105L248.274 326.473L263.189 316.409L263.358 316.709C263.421 316.822 264.887 319.461 265.376 321.24C265.564 321.917 265.514 322.481 265.232 322.92C265.038 323.221 264.762 323.396 264.542 323.497C264.812 323.779 265.658 324.355 268.265 324.769C272.069 325.37 272.871 321.428 272.903 321.266L272.928 321.134L273.04 321.059C274.852 319.893 275.967 319.36 276.349 319.473C276.587 319.542 276.989 319.667 278.073 330.403C278.179 330.741 278.938 333.21 278.424 335.573C277.866 338.142 266.636 337.259 264.386 337.058C264.323 337.064 255.913 337.666 250.154 337.666H250.147Z" fill="#333333"/>
<path d="M313.416 293.151L302.281 300.095L312.134 315.894L323.269 308.949L313.416 293.151Z" fill="#E6CF00"/>
<path d="M298.628 335.115C297.087 335.115 295.67 334.927 294.661 334.752C293.671 334.576 292.894 333.786 292.731 332.796C292.618 332.082 292.825 331.361 293.314 330.829L299.738 323.722L307.07 307.29L307.371 307.453C307.483 307.516 310.122 308.976 311.482 310.229C312.002 310.706 312.259 311.213 312.246 311.733C312.24 312.097 312.102 312.385 311.964 312.592C312.34 312.692 313.362 312.73 315.793 311.702C319.34 310.204 317.937 306.432 317.874 306.275L317.824 306.15L317.88 306.03C318.801 304.081 319.459 303.041 319.848 302.935C320.092 302.866 320.494 302.759 327.093 311.301C327.362 311.527 329.311 313.225 330.126 315.5C331.009 317.975 321.014 323.17 319.002 324.186C318.939 324.236 308.48 331.837 304.181 334C302.476 334.858 300.458 335.121 298.622 335.121L298.628 335.115Z" fill="#333333"/>
<path d="M285.712 152.078H248.97L245.636 186.258L260.225 312.548H278.982L271.48 239.608L301.906 305.46L318.576 293.791L294.818 232.313C294.818 232.313 303.304 178.756 296.636 165.414C289.968 152.078 285.712 152.078 285.712 152.078Z" fill="#333333"/>
<path d="M303.993 154.159H245.636L263.145 78.7183H288.57L303.993 154.159Z" fill="#E6E6E6"/>
<path d="M309.245 194.248C310.178 198.836 308.467 203.028 305.434 203.611C302.401 204.194 299.186 200.941 298.259 196.354C297.864 194.524 297.927 192.631 298.441 190.827L286.891 118.914L301.336 116.194L306.913 189.203C308.098 190.682 308.894 192.412 309.245 194.255V194.248Z" fill="#E6CF00"/>
<path d="M278.713 78.7183H288.57C295.539 79.7774 297.432 83.4936 299.017 90.3621C301.436 100.84 304.526 114.79 303.912 114.997C302.928 115.323 286.145 123.219 277.591 121.415L278.713 78.7183Z" fill="#E6E6E6"/>
</g>
<defs>
<clipPath id="clip0_347_3846">
<rect width="471" height="338.048" fill="white" transform="translate(0.5 0.476074)"/>
</clipPath>
</defs>
</svg>
