<svg width="472" height="424" viewBox="0 0 472 424" fill="none" xmlns="http://www.w3.org/2000/svg">
<g clip-path="url(#clip0_742_6143)">
<path d="M467.368 162.287C467.199 162.287 467.035 162.235 466.896 162.139L238.371 2.98743C237.676 2.50536 236.85 2.24773 236.003 2.24917C235.157 2.25062 234.332 2.51106 233.638 2.9955L6.75907 162.137C6.57962 162.263 6.35753 162.312 6.14163 162.275C5.92574 162.237 5.73373 162.115 5.60786 161.935C5.48199 161.756 5.43256 161.534 5.47045 161.318C5.50834 161.102 5.63045 160.91 5.8099 160.784L232.689 1.64225C233.66 0.964131 234.816 0.599611 236.001 0.597664C237.185 0.595717 238.342 0.956434 239.316 1.63135L467.841 160.782C467.985 160.883 468.094 161.027 468.151 161.193C468.207 161.36 468.21 161.54 468.157 161.708C468.104 161.876 467.999 162.023 467.857 162.127C467.715 162.231 467.544 162.287 467.368 162.287Z" fill="#3F3D56"/>
<path d="M19.7236 167.928L236.228 7.47168L454.376 179.345L247.384 302.053L135.005 276.437L19.7236 167.928Z" fill="#E6E6E6"/>
<path d="M144.49 377.845H37.5318C36.875 377.845 36.2245 377.717 35.6175 377.466C35.0105 377.215 34.4589 376.847 33.9942 376.383C33.5295 375.919 33.1609 375.368 32.9093 374.761C32.6578 374.155 32.5283 373.504 32.5283 372.848C32.5283 372.191 32.6578 371.541 32.9093 370.934C33.1609 370.327 33.5295 369.776 33.9942 369.312C34.4589 368.848 35.0105 368.48 35.6175 368.229C36.2245 367.978 36.875 367.85 37.5318 367.851H144.49C145.147 367.85 145.798 367.978 146.405 368.229C147.012 368.48 147.563 368.848 148.028 369.312C148.493 369.776 148.861 370.327 149.113 370.934C149.364 371.541 149.494 372.191 149.494 372.848C149.494 373.504 149.364 374.155 149.113 374.761C148.861 375.368 148.493 375.919 148.028 376.383C147.563 376.847 147.012 377.215 146.405 377.466C145.798 377.717 145.147 377.845 144.49 377.845Z" fill="#009900"/>
<path d="M75.9061 356.361H37.5318C36.875 356.362 36.2245 356.233 35.6175 355.982C35.0105 355.732 34.4589 355.364 33.9942 354.899C33.5295 354.435 33.1609 353.884 32.9093 353.278C32.6578 352.671 32.5283 352.02 32.5283 351.364C32.5283 350.707 32.6578 350.057 32.9093 349.45C33.1609 348.843 33.5295 348.292 33.9942 347.828C34.4589 347.364 35.0105 346.996 35.6175 346.745C36.2245 346.494 36.875 346.366 37.5318 346.367H75.9061C76.5629 346.366 77.2134 346.494 77.8204 346.745C78.4274 346.996 78.979 347.364 79.4437 347.828C79.9084 348.292 80.2771 348.843 80.5286 349.45C80.7801 350.057 80.9096 350.707 80.9096 351.364C80.9096 352.02 80.7801 352.671 80.5286 353.278C80.2771 353.884 79.9084 354.435 79.4437 354.899C78.979 355.364 78.4274 355.732 77.8204 355.982C77.2134 356.233 76.5629 356.362 75.9061 356.361Z" fill="#009900"/>
<path d="M239.273 257.3C238.46 257.301 237.655 257.144 236.902 256.836L103.377 201.433V28.0103C103.379 26.4768 103.989 25.0066 105.073 23.9222C106.157 22.8378 107.628 22.2279 109.161 22.2261H365.319C366.853 22.2279 368.323 22.8378 369.407 23.9222C370.491 25.0066 371.101 26.4768 371.103 28.0103V201.554L370.852 201.661L241.715 256.809C240.942 257.134 240.112 257.301 239.273 257.3Z" fill="white"/>
<path d="M239.272 257.713C238.405 257.714 237.546 257.546 236.744 257.219L102.963 201.709V28.0104C102.965 26.3673 103.618 24.792 104.78 23.6302C105.942 22.4684 107.517 21.8148 109.16 21.813H365.318C366.961 21.8148 368.536 22.4684 369.698 23.6302C370.86 24.792 371.514 26.3673 371.516 28.0104V201.826L241.877 257.189C241.052 257.536 240.166 257.714 239.272 257.713ZM104.615 200.605L237.374 255.691C238.612 256.193 239.999 256.185 241.231 255.668L369.863 200.735V28.0104C369.862 26.8055 369.382 25.6503 368.53 24.7983C367.678 23.9463 366.523 23.467 365.318 23.4656H109.16C107.955 23.467 106.8 23.9463 105.948 24.7983C105.096 25.6503 104.617 26.8055 104.616 28.0104L104.615 200.605Z" fill="#3F3D56"/>
<path d="M465.716 160.634H465.55L370.689 201.14L240.9 256.561C240.393 256.775 239.849 256.886 239.299 256.889C238.748 256.892 238.203 256.786 237.694 256.578L103.789 201.025L6.59811 160.7L6.44964 160.634H6.28421C4.75066 160.636 3.28041 161.246 2.19603 162.33C1.11165 163.415 0.501702 164.885 0.5 166.418V417.618C0.501704 419.152 1.11165 420.622 2.19603 421.707C3.28041 422.791 4.75067 423.401 6.28421 423.403H465.716C467.249 423.401 468.72 422.791 469.804 421.707C470.888 420.622 471.498 419.152 471.5 417.618V166.418C471.498 164.885 470.888 163.415 469.804 162.33C468.72 161.246 467.249 160.636 465.716 160.634ZM469.847 417.618C469.847 418.714 469.411 419.765 468.637 420.539C467.862 421.314 466.811 421.75 465.716 421.75H6.28421C5.18858 421.75 4.13796 421.314 3.36323 420.539C2.58851 419.765 2.15307 418.714 2.15263 417.618V166.418C2.15413 165.35 2.56857 164.324 3.30929 163.554C4.05002 162.784 5.05969 162.33 6.12726 162.287L103.789 202.809L237.058 258.106C238.501 258.693 240.117 258.685 241.553 258.082L370.689 202.933L465.881 162.287C466.947 162.333 467.954 162.788 468.693 163.558C469.431 164.327 469.845 165.352 469.847 166.418V417.618Z" fill="#3F3D56"/>
<path d="M237.938 208.124C233.009 208.134 228.21 206.54 224.266 203.583L224.021 203.399L172.533 163.978C170.148 162.151 168.147 159.872 166.643 157.271C165.139 154.671 164.162 151.8 163.768 148.822C163.374 145.844 163.57 142.817 164.346 139.915C165.121 137.013 166.461 134.292 168.288 131.907C170.115 129.523 172.393 127.521 174.994 126.017C177.594 124.514 180.466 123.537 183.444 123.142C186.422 122.748 189.448 122.944 192.35 123.72C195.253 124.495 197.974 125.835 200.358 127.662L233.709 153.234L312.521 50.4518C314.349 48.0678 316.628 46.0673 319.229 44.5643C321.83 43.0614 324.702 42.0855 327.68 41.6923C330.658 41.2992 333.685 41.4965 336.587 42.2731C339.489 43.0496 342.209 44.3901 344.593 46.2181L344.103 46.8834L344.606 46.2278C349.414 49.9235 352.561 55.3758 353.354 61.3885C354.148 67.4011 352.524 73.483 348.839 78.3L256.137 199.197C253.993 201.983 251.236 204.238 248.08 205.786C244.924 207.334 241.453 208.134 237.938 208.124Z" fill="#009900"/>
</g>
<defs>
<clipPath id="clip0_742_6143">
<rect width="471" height="422.805" fill="white" transform="translate(0.5 0.597656)"/>
</clipPath>
</defs>
</svg>
